{
.appVersion = "1342";
copyright = "Copyright 2020 FKxGF Schoolbook Project Authors (https://github.com/floriankarsten/fk-gf-schoolbook)";
customParameters = (
{
name = vendorID;
value = FK;
},
{
name = licenseURL;
value = "https://scripts.sil.org/OFL";
},
{
name = license;
value = "This Font Software is licensed under the SIL Open Font License, Version 1.1. This license is available with a FAQ at: https://scripts.sil.org/OFL";
},
{
name = Axes;
value = (
{
Hidden = 1;
Name = Weight;
Tag = wght;
},
{
Name = Extravaganza;
Tag = extr;
}
);
},
{
name = "Use Typo Metrics";
value = 1;
}
);
date = "2020-08-19 14:36:15 +0000";
designer = "Florian Karsten";
designerURL = "https://fonts.floriankarsten.com";
familyName = "FKxGF Schoolbook";
featurePrefixes = (
{
automatic = 1;
code = "languagesystem DFLT dflt;\012";
name = Languagesystems;
}
);
features = (
{
automatic = 1;
code = "lookup ccmp_Other_1 {\012	@CombiningTopAccents = [dotaccentcomb];\012	sub [i j]' @CombiningTopAccents by [idotless jdotless];\012} ccmp_Other_1;\012";
name = ccmp;
}
);
fontMaster = (
{
alignmentZones = (
"{1520, 16}",
"{1440, 16}",
"{1100, 16}",
"{0, -16}",
"{-380, -20}"
);
ascender = 1520;
capHeight = 1440;
custom = "W100 E0";
customParameters = (
{
name = typoAscender;
value = 1800;
},
{
name = hheaAscender;
value = 1800;
},
{
name = typoDescender;
value = -600;
},
{
name = hheaDescender;
value = -600;
},
{
name = typoLineGap;
value = 0;
},
{
name = hheaLineGap;
value = 0;
},
{
name = winAscent;
value = 1800;
},
{
name = winDescent;
value = 600;
}
);
descender = -400;
horizontalStems = (
40
);
iconName = Light_Condensed;
id = "CA54B7DC-FBBB-40FE-ACF3-AABDD76D6A7B";
verticalStems = (
50,
48
);
widthValue = 0;
xHeight = 1100;
},
{
alignmentZones = (
"{1480, 16}",
"{1440, 16}",
"{1080, 16}",
"{0, -16}",
"{-380, -20}"
);
ascender = 1480;
capHeight = 1440;
custom = "W100 E100";
customParameters = (
{
name = typoAscender;
value = 1800;
},
{
name = hheaAscender;
value = 1800;
},
{

glyphs = (
{
glyphname = A;
lastChange = "2020-08-19 10:40:04 +0000";
layers = (
{
hints = (
{
origin = "{0, 0}";
scale = "{-1.1, 1}";
type = Corner;
name = _corner.Serif;
options = 1;
},
{
origin = "{0, 3}";
scale = "{1.1, 1}";
type = Corner;
name = _corner.Serif;
},
{
origin = "{0, 4}";
scale = "{-0.64, 1}";
type = Corner;
name = _corner.Serif;
options = 1;
},
{
origin = "{0, 7}";
scale = "{0.64, 1}";
type = Corner;
name = _corner.Serif;
}
);
layerId = "CA54B7DC-FBBB-40FE-ACF3-AABDD76D6A7B";
paths = (
{
closed = 1;
nodes = (
"209 0 LINE",
"768 1393 LINE",
"755 1393 LINE",
"1314 0 LINE",
"1366 0 LINE",
"786 1440 LINE",
"742 1440 LINE",
"162 0 LINE"
);
},
{
closed = 1;
nodes = (
"1132 530 LINE",
"396 530 LINE",
"396 490 LINE",
"1132 490 LINE"
);
}
);
width = 1528;
},
{
hints = (
{
origin = "{0, 7}";
scale = "{0.64, 1}";
type = Corner;
name = _corner.Serif;
},
{
origin = "{0, 0}";
scale = "{-1.2, 1}";
type = Corner;
name = _corner.Serif;
options = 1;
},
{
origin = "{0, 3}";
scale = "{1.2, 1}";
type = Corner;
name = _corner.Serif;
},
{
origin = "{0, 4}";
scale = "{-0.64, 1}";
type = Corner;
name = _corner.Serif;
options = 1;
}
);
layerId = "1E61A082-F045-49A7-AB52-DD1B03FD9B54";
paths = (
{
closed = 1;
nodes = (
"192 0 LINE",
"751 1393 LINE",
"738 1393 LINE",
"1297 0 LINE",
"1349 0 LINE",
"769 1440 LINE",
"727 1440 LINE",
"147 0 LINE"
);
},
{
closed = 1;
nodes = (
"1115 530 LINE",
"379 530 LINE",
"379 490 LINE",
"1115 490 LINE"
);
}
);
width = 1496;
},
{
hints = (
{
origin = "{0, 7}";
scale = "{0.5, 1}";
type = Corner;
name = _corner.Serif;
},
{
origin = "{0, 0}";
scale = "{-1.5, 1}";
type = Corner;
name = _corner.Serif;
options = 1;
},
{
origin = "{0, 3}";
scale = "{1.5, 1}";
type = Corner;
name = _corner.Serif;
},
{
origin = "{0, 4}";
scale = "{-0.5, 1}";
type = Corner;
name = _corner.Serif;
options = 1;
}
);
layerId = "642E5713-E15A-4A7E-A28E-9A6B75A6585C";
paths = (
{
closed = 1;
nodes = (
"291 0 LINE",
"802 1273 LINE",
"701 1274 LINE",
"1197 0 LINE",
"1510 0 LINE",
"930 1440 LINE",
"688 1440 LINE",
"108 0 LINE"
);
},
{
closed = 1;
nodes = (
"1082 584 LINE",
"416 584 LINE",
"416 430 LINE",
"1082 430 LINE"
);
}
);
width = 1618;
},
{
hints = (
{
origin = "{0, 0}";
scale = "{-1.4, 1}";
type = Corner;
name = _corner.Serif;
options = 1;
},
{
origin = "{0, 3}";
scale = "{1.4, 1}";
type = Corner;
name = _corner.Serif;
},
{
origin = "{0, 4}";
scale = "{-0.5, 1}";
type = Corner;
name = _corner.Serif;
options = 1;
},
{
origin = "{0, 7}";
scale = "{0.5, 1}";
type = Corner;
name = _corner.Serif;
}
);
layerId = "AF891779-7DE6-4679-9CA2-17B922C1DF84";
paths = (
{
closed = 1;
nodes = (
"304 0 LINE",
"814 1273 LINE",
"703 1274 LINE",
"1199 0 LINE",
"1512 0 LINE",
"932 1440 LINE",
"677 1440 LINE",
"97 0 LINE"
);
},
{
closed = 1;
nodes = (
"1052 606 LINE",
"436 606 LINE",
"436 428 LINE",
"1052 428 LINE"
);
}
);
width = 1600;
}
);
leftKerningGroup = A;
rightKerningGroup = A;
unicode = 0041;
},
{
glyphname = B;
lastChange = "2020-08-19 11:00:02 +0000";
layers = (
{
hints = (
{
origin = "{2, 1}";
scale = "{-0.96, 1}";
type = Corner;
name = _corner.Serif;
},
{
origin = "{2, 2}";
type = Corner;
name = _corner.Serif;
options = 1;
}
);
layerId = "CA54B7DC-FBBB-40FE-ACF3-AABDD76D6A7B";
paths = (
{
closed = 1;
nodes = (
"360 1400 LINE",
"856 1400 LINE SMOOTH",
"1104 1400 OFFCURVE",
"1260 1290 OFFCURVE",
"1260 1076 CURVE SMOOTH",
"1260 862 OFFCURVE",
"1104 752 OFFCURVE",
"856 752 CURVE SMOOTH",
"360 752 LINE",
"360 720 LINE",
"868 720 LINE SMOOTH",
"1132 720 OFFCURVE",
"1308 842 OFFCURVE",
"1308 1076 CURVE SMOOTH",
"1308 1316 OFFCURVE",
"1132 1440 OFFCURVE",
"868 1440 CURVE SMOOTH",
"360 1440 LINE"
);
},
{
closed = 1;
nodes = (
"360 712 LINE",
"880 712 LINE SMOOTH",
"1136 712 OFFCURVE",
"1296 598 OFFCURVE",
"1296 376 CURVE SMOOTH",
"1296 154 OFFCURVE",
"1136 40 OFFCURVE",
"880 40 CURVE SMOOTH",
"360 40 LINE",
"360 0 LINE",
"892 0 LINE SMOOTH",
"1164 0 OFFCURVE",
"1344 128 OFFCURVE",
"1344 376 CURVE SMOOTH",
"1344 618 OFFCURVE",
"1164 746 OFFCURVE",
"892 746 CURVE SMOOTH",
"360 746 LINE"
);
},
{
closed = 1;
nodes = (
"360 1440 LINE",
"312 1440 LINE",
"312 0 LINE",
"360 0 LINE"
);
}
);
width = 1482;
},
{
hints = (
{
origin = "{2, 1}";
scale = "{-0.96, 1}";
type = Corner;
name = _corner.Serif;
},
{
origin = "{2, 2}";
type = Corner;
name = _corner.Serif;
options = 1;
}
);
layerId = "1E61A082-F045-49A7-AB52-DD1B03FD9B54";
paths = (
{
closed = 1;
nodes = (
"318 1400 LINE",
"814 1400 LINE SMOOTH",
"1062 1400 OFFCURVE",
"1218 1290 OFFCURVE",
"1218 1076 CURVE SMOOTH",
"1218 862 OFFCURVE",
"1062 752 OFFCURVE",
"814 752 CURVE SMOOTH",
"318 752 LINE",
"318 720 LINE",
"826 720 LINE SMOOTH",
"1090 720 OFFCURVE",
"1266 842 OFFCURVE",
"1266 1076 CURVE SMOOTH",
"1266 1316 OFFCURVE",
"1090 1440 OFFCURVE",
"826 1440 CURVE SMOOTH",
"318 1440 LINE"
);
},
{
closed = 1;
nodes = (
"318 712 LINE",
"838 712 LINE SMOOTH",
"1094 712 OFFCURVE",
"1254 598 OFFCURVE",
"1254 376 CURVE SMOOTH",
"1254 154 OFFCURVE",
"1094 40 OFFCURVE",
"838 40 CURVE SMOOTH",
"318 40 LINE",
"318 0 LINE",
"850 0 LINE SMOOTH",
"1122 0 OFFCURVE",
"1302 128 OFFCURVE",
"1302 376 CURVE SMOOTH",
"1302 618 OFFCURVE",
"1122 746 OFFCURVE",
"850 746 CURVE SMOOTH",
"318 746 LINE"
);
},
{
closed = 1;
nodes = (
"318 1440 LINE",
"270 1440 LINE",
"270 0 LINE",
"318 0 LINE"
);
}
);
width = 1406;
},
{
hints = (
{
origin = "{2, 1}";
scale = "{-0.96, 0.98}";
type = Corner;
name = _corner.Serif;
},
{
origin = "{2, 2}";
type = Corner;
name = _corner.Serif;
options = 1;
}
);
layerId = "642E5713-E15A-4A7E-A28E-9A6B75A6585C";
paths = (
{
closed = 1;
nodes = (
"530 1284 LINE",
"826 1284 LINE SMOOTH",
"994 1284 OFFCURVE",
"1098 1201 OFFCURVE",
"1098 1044 CURVE SMOOTH",
"1098 887 OFFCURVE",
"994 804 OFFCURVE",
"826 804 CURVE SMOOTH",
"530 804 LINE",
"530 718 LINE",
"892 718 LINE SMOOTH",
"1195 718 OFFCURVE",
"1396 836 OFFCURVE",
"1396 1078 CURVE SMOOTH",
"1396 1320 OFFCURVE",
"1195 1440 OFFCURVE",
"892 1440 CURVE SMOOTH",
"530 1440 LINE"
);
},
{
closed = 1;
nodes = (
"530 648 LINE",
"850 648 LINE SMOOTH",
"1023 648 OFFCURVE",
"1132 568 OFFCURVE",
"1132 403 CURVE SMOOTH",
"1132 238 OFFCURVE",
"1023 158 OFFCURVE",
"850 158 CURVE SMOOTH",
"530 158 LINE",
"530 0 LINE",
"926 0 LINE SMOOTH",
"1229 0 OFFCURVE",
"1430 120 OFFCURVE",
"1430 374 CURVE SMOOTH",
"1430 628 OFFCURVE",
"1229 748 OFFCURVE",
"926 748 CURVE SMOOTH",
"530 748 LINE"
);
},
{
closed = 1;
nodes = (
"530 1440 LINE",
"240 1440 LINE",
"240 0 LINE",
"530 0 LINE"
);
}
);
width = 1476;
},
{
hints = (
{
origin = "{2, 1}";
scale = "{-0.96, 0.98}";
type = Corner;
name = _corner.Serif;
},
{
origin = "{2, 2}";
type = Corner;
name = _corner.Serif;
options = 1;
}
);
layerId = "AF891779-7DE6-4679-9CA2-17B922C1DF84";
paths = (
{
closed = 1;
nodes = (
"554 1260 LINE",
"862 1260 LINE SMOOTH",
"1022 1260 OFFCURVE",
"1122 1184 OFFCURVE",
"1122 1038 CURVE SMOOTH",
"1122 892 OFFCURVE",
"1022 816 OFFCURVE",
"862 816 CURVE SMOOTH",
"554 816 LINE",
"554 704 LINE",
"916 704 LINE SMOOTH",
"1219 704 OFFCURVE",
"1420 828 OFFCURVE",
"1420 1072 CURVE SMOOTH",
"1420 1316 OFFCURVE",
"1219 1440 OFFCURVE",
"916 1440 CURVE SMOOTH",
"554 1440 LINE"
);
},
{
closed = 1;
nodes = (
"554 636 LINE",
"890 636 LINE SMOOTH",
"1055 636 OFFCURVE",
"1156 561 OFFCURVE",
"1156 410 CURVE SMOOTH",
"1156 259 OFFCURVE",
"1055 184 OFFCURVE",
"890 184 CURVE SMOOTH",
"554 184 LINE",
"554 0 LINE",
"950 0 LINE SMOOTH",
"1253 0 OFFCURVE",
"1454 128 OFFCURVE",
"1454 384 CURVE SMOOTH",
"1454 640 OFFCURVE",
"1253 768 OFFCURVE",
"950 768 CURVE SMOOTH",
"554 768 LINE"
);
},
{
closed = 1;
nodes = (
"554 1440 LINE",
"264 1440 LINE",
"264 0 LINE",
"554 0 LINE"
);
}
);
width = 1502;
}
);
leftKerningGroup = I;
leftMetricsKey = I;
rightKerningGroup = B;
unicode = 0042;
},
{
glyphname = C;
lastChange = "2020-08-19 09:49:00 +0000";
layers = (
{
layerId = "CA54B7DC-FBBB-40FE-ACF3-AABDD76D6A7B";
paths = (
{
closed = 1;
nodes = (
"1438 960 LINE",
"1426 1256 OFFCURVE",
"1217 1460 OFFCURVE",
"858 1460 CURVE SMOOTH",
"455 1460 OFFCURVE",
"162 1188 OFFCURVE",
"162 720 CURVE SMOOTH",
"162 252 OFFCURVE",
"455 -20 OFFCURVE",
"858 -20 CURVE SMOOTH",
"1250 -20 OFFCURVE",
"1454 231 OFFCURVE",
"1466 515 CURVE",
"1422 518 LINE",
"1406 252 OFFCURVE",
"1220 24 OFFCURVE",
"858 24 CURVE SMOOTH",
"481 24 OFFCURVE",
"210 296 OFFCURVE",
"210 720 CURVE SMOOTH",
"210 1144 OFFCURVE",
"481 1416 OFFCURVE",
"858 1416 CURVE SMOOTH",
"1218 1416 OFFCURVE",
"1381 1196 OFFCURVE",
"1400 960 CURVE"
);
},
{
closed = 1;
nodes = (
"1412 1440 LINE",
"1412 1014 LINE",
"1438 960 LINE",
"1456 960 LINE",
"1456 1440 LINE"
);
}
);
width = 1656;
},
{
layerId = "1E61A082-F045-49A7-AB52-DD1B03FD9B54";
paths = (
{
closed = 1;
nodes = (
"1372 910 LINE",
"1360 1236 OFFCURVE",
"1152 1460 OFFCURVE",
"794 1460 CURVE SMOOTH",
"416 1460 OFFCURVE",
"126 1188 OFFCURVE",
"126 720 CURVE SMOOTH",
"126 252 OFFCURVE",
"416 -20 OFFCURVE",
"794 -20 CURVE SMOOTH",
"1185 -20 OFFCURVE",
"1392 255 OFFCURVE",
"1400 566 CURVE",
"1356 568 LINE",
"1344 275 OFFCURVE",
"1155 24 OFFCURVE",
"794 24 CURVE SMOOTH",
"442 24 OFFCURVE",
"174 296 OFFCURVE",
"174 720 CURVE SMOOTH",
"174 1144 OFFCURVE",
"442 1416 OFFCURVE",
"794 1416 CURVE SMOOTH",
"1152 1416 OFFCURVE",
"1314 1172 OFFCURVE",
"1334 910 CURVE"
);
},
{
closed = 1;
nodes = (
"1346 1440 LINE",
"1346 964 LINE",
"1372 910 LINE",
"1390 910 LINE",
"1390 1440 LINE"
);
}
);
width = 1536;
},
{
layerId = "642E5713-E15A-4A7E-A28E-9A6B75A6585C";
paths = (
{
closed = 1;
nodes = (
"1452 870 LINE",
"1432 1241 OFFCURVE",
"1222 1460 OFFCURVE",
"832 1460 CURVE SMOOTH",
"405 1460 OFFCURVE",
"76 1188 OFFCURVE",
"76 720 CURVE SMOOTH",
"76 252 OFFCURVE",
"405 -20 OFFCURVE",
"832 -20 CURVE SMOOTH",
"1263 -20 OFFCURVE",
"1480 252 OFFCURVE",
"1496 604 CURVE",
"1326 612 LINE",
"1309 371 OFFCURVE",
"1179 168 OFFCURVE",
"884 168 CURVE SMOOTH",
"586 168 OFFCURVE",
"378 384 OFFCURVE",
"378 720 CURVE SMOOTH",
"378 1071 OFFCURVE",
"586 1296 OFFCURVE",
"884 1296 CURVE SMOOTH",
"1182 1296 OFFCURVE",
"1307 1090 OFFCURVE",
"1324 870 CURVE"
);
},
{
closed = 1;
nodes = (
"1328 1440 LINE",
"1328 1064 LINE",
"1452 870 LINE",
"1490 870 LINE",
"1490 1440 LINE"
);
}
);
width = 1562;
},
{
layerId = "AF891779-7DE6-4679-9CA2-17B922C1DF84";
paths = (
{
closed = 1;
nodes = (
"1454 930 LINE",
"1427 1244 OFFCURVE",
"1215 1460 OFFCURVE",
"834 1460 CURVE SMOOTH",
"414 1460 OFFCURVE",
"90 1188 OFFCURVE",
"90 720 CURVE SMOOTH",
"90 252 OFFCURVE",
"416 -20 OFFCURVE",
"838 -20 CURVE SMOOTH",
"1244 -20 OFFCURVE",
"1435 190 OFFCURVE",
"1481 471 CURVE",
"1284 508 LINE",
"1251 346 OFFCURVE",
"1149 194 OFFCURVE",
"892 194 CURVE SMOOTH",
"599 194 OFFCURVE",
"392 399 OFFCURVE",
"392 720 CURVE SMOOTH",
"392 1057 OFFCURVE",
"595 1272 OFFCURVE",
"882 1272 CURVE SMOOTH",
"1161 1272 OFFCURVE",
"1282 1106 OFFCURVE",
"1296 930 CURVE"
);
},
{
closed = 1;
nodes = (
"1298 1440 LINE",
"1298 1140 LINE",
"1454 930 LINE",
"1484 930 LINE",
"1484 1440 LINE"
);
}
);
width = 1576;
}
);
leftKerningGroup = O;
leftMetricsKey = O;
rightKerningGroup = C;
unicode = 0043;
},
{
glyphname = D;
lastChange = "2020-08-19 11:00:02 +0000";
layers = (
{
hints = (
{
origin = "{1, 1}";
scale = "{-0.96, 1}";
type = Corner;
name = _corner.Serif;
},
{
origin = "{1, 2}";
type = Corner;
name = _corner.Serif;
options = 1;
}
);
layerId = "CA54B7DC-FBBB-40FE-ACF3-AABDD76D6A7B";
paths = (
{
closed = 1;
nodes = (
"360 1400 LINE",
"648 1400 LINE SMOOTH",
"1076 1400 OFFCURVE",
"1356 1136 OFFCURVE",
"1356 720 CURVE SMOOTH",
"1356 304 OFFCURVE",
"1076 40 OFFCURVE",
"648 40 CURVE SMOOTH",
"360 40 LINE",
"360 0 LINE",
"648 0 LINE SMOOTH",
"1104 0 OFFCURVE",
"1404 264 OFFCURVE",
"1404 720 CURVE SMOOTH",
"1404 1176 OFFCURVE",
"1104 1440 OFFCURVE",
"648 1440 CURVE SMOOTH",
"360 1440 LINE"
);
},
{
closed = 1;
nodes = (
"360 1440 LINE",
"312 1440 LINE",
"312 0 LINE",
"360 0 LINE"
);
}
);
width = 1566;
},
{
hints = (
{
origin = "{1, 1}";
scale = "{-0.96, 1}";
type = Corner;
name = _corner.Serif;
},
{
origin = "{1, 2}";
type = Corner;
name = _corner.Serif;
options = 1;
}
);
layerId = "1E61A082-F045-49A7-AB52-DD1B03FD9B54";
paths = (
{
closed = 1;
nodes = (
"318 1400 LINE",
"606 1400 LINE SMOOTH",
"1034 1400 OFFCURVE",
"1314 1136 OFFCURVE",
"1314 720 CURVE SMOOTH",
"1314 304 OFFCURVE",
"1034 40 OFFCURVE",
"606 40 CURVE SMOOTH",
"318 40 LINE",
"318 0 LINE",
"606 0 LINE SMOOTH",
"1062 0 OFFCURVE",
"1362 264 OFFCURVE",
"1362 720 CURVE SMOOTH",
"1362 1176 OFFCURVE",
"1062 1440 OFFCURVE",
"606 1440 CURVE SMOOTH",
"318 1440 LINE"
);
},
{
closed = 1;
nodes = (
"318 1440 LINE",
"270 1440 LINE",
"270 0 LINE",
"318 0 LINE"
);
}
);
width = 1488;
},
{
hints = (
{
origin = "{1, 1}";
scale = "{-0.96, 0.98}";
type = Corner;
name = _corner.Serif;
},
{
origin = "{1, 2}";
type = Corner;
name = _corner.Serif;
options = 1;
}
);
layerId = "642E5713-E15A-4A7E-A28E-9A6B75A6585C";
paths = (
{
closed = 1;
nodes = (
"530 1284 LINE",
"654 1284 LINE SMOOTH",
"965 1284 OFFCURVE",
"1168 1065 OFFCURVE",
"1168 721 CURVE SMOOTH",
"1168 377 OFFCURVE",
"965 158 OFFCURVE",
"654 158 CURVE SMOOTH",
"530 158 LINE",
"530 0 LINE",
"694 0 LINE SMOOTH",
"1162 0 OFFCURVE",
"1470 264 OFFCURVE",
"1470 720 CURVE SMOOTH",
"1470 1176 OFFCURVE",
"1162 1440 OFFCURVE",
"694 1440 CURVE SMOOTH",
"530 1440 LINE"
);
},
{
closed = 1;
nodes = (
"530 1440 LINE",
"240 1440 LINE",
"240 0 LINE",
"530 0 LINE"
);
}
);
width = 1546;
},
{
hints = (
{
origin = "{1, 1}";
scale = "{-0.96, 0.98}";
type = Corner;
name = _corner.Serif;
},
{
origin = "{1, 2}";
type = Corner;
name = _corner.Serif;
options = 1;
}
);
layerId = "AF891779-7DE6-4679-9CA2-17B922C1DF84";
paths = (
{
closed = 1;
nodes = (
"554 1260 LINE",
"676 1260 LINE SMOOTH",
"988 1260 OFFCURVE",
"1192 1050 OFFCURVE",
"1192 721 CURVE SMOOTH",
"1192 392 OFFCURVE",
"988 184 OFFCURVE",
"676 184 CURVE SMOOTH",
"554 184 LINE",
"554 0 LINE",
"718 0 LINE SMOOTH",
"1186 0 OFFCURVE",
"1494 264 OFFCURVE",
"1494 720 CURVE SMOOTH",
"1494 1176 OFFCURVE",
"1186 1440 OFFCURVE",
"718 1440 CURVE SMOOTH",
"554 1440 LINE"
);
},
{
closed = 1;
nodes = (
"554 1440 LINE",
"264 1440 LINE",
"264 0 LINE",
"554 0 LINE"
);
}
);
width = 1584;
}
);
leftKerningGroup = I;
leftMetricsKey = I;
rightKerningGroup = O;
rightMetricsKey = O;
unicode = 0044;
},
{
glyphname = E;
lastChange = "2020-08-19 11:00:02 +0000";
layers = (
{
hints = (
{
origin = "{7, 1}";
scale = "{-0.96, 1}";
type = Corner;
name = _corner.Serif;
},
{
origin = "{7, 2}";
type = Corner;
name = _corner.Serif;
options = 1;
}
);
layerId = "CA54B7DC-FBBB-40FE-ACF3-AABDD76D6A7B";
paths = (
{
closed = 1;
nodes = (
"1268 40 LINE",
"360 40 LINE",
"360 0 LINE",
"1268 0 LINE"
);
},
{
closed = 1;
nodes = (
"1252 1440 LINE",
"360 1440 LINE",
"360 1400 LINE",
"1252 1400 LINE"
);
},
{
closed = 1;
nodes = (
"1268 40 LINE",
"1268 460 LINE",
"1224 460 LINE",
"1224 180 LINE SMOOTH",
"1224 68 OFFCURVE",
"1216 40 OFFCURVE",
"1104 40 CURVE"
);
},
{
closed = 1;
nodes = (
"1200 1400 OFFCURVE",
"1208 1372 OFFCURVE",
"1208 1260 CURVE SMOOTH",
"1208 1000 LINE",
"1252 1000 LINE",
"1252 1400 LINE",
"1088 1400 LINE"
);
},
{
closed = 1;
nodes = (
"914 768 LINE",
"360 768 LINE",
"360 728 LINE",
"914 728 LINE"
);
},
{
closed = 1;
nodes = (
"862 728 OFFCURVE",
"870 700 OFFCURVE",
"870 588 CURVE SMOOTH",
"870 350 LINE",
"914 350 LINE",
"914 728 LINE",
"750 728 LINE"
);
},
{
closed = 1;
nodes = (
"914 768 LINE",
"914 1100 LINE",
"870 1100 LINE",
"870 908 LINE SMOOTH",
"870 796 OFFCURVE",
"862 768 OFFCURVE",
"750 768 CURVE"
);
},
{
closed = 1;
nodes = (
"360 1440 LINE",
"312 1440 LINE",
"312 0 LINE",
"360 0 LINE"
);
}
);
width = 1428;
},
{
hints = (
{
origin = "{7, 1}";
scale = "{-0.96, 1}";
type = Corner;
name = _corner.Serif;
},
{
origin = "{7, 2}";
type = Corner;
name = _corner.Serif;
options = 1;
}
);
layerId = "1E61A082-F045-49A7-AB52-DD1B03FD9B54";
paths = (
{
closed = 1;
nodes = (
"1226 40 LINE",
"318 40 LINE",
"318 0 LINE",
"1226 0 LINE"
);
},
{
closed = 1;
nodes = (
"1208 1440 LINE",
"318 1440 LINE",
"318 1400 LINE",
"1208 1400 LINE"
);
},
{
closed = 1;
nodes = (
"1226 40 LINE",
"1226 560 LINE",
"1182 560 LINE",
"1182 180 LINE SMOOTH",
"1182 68 OFFCURVE",
"1174 40 OFFCURVE",
"1062 40 CURVE"
);
},
{
closed = 1;
nodes = (
"1156 1400 OFFCURVE",
"1164 1372 OFFCURVE",
"1164 1260 CURVE SMOOTH",
"1164 900 LINE",
"1208 900 LINE",
"1208 1400 LINE",
"1044 1400 LINE"
);
},
{
closed = 1;
nodes = (
"872 780 LINE",
"318 780 LINE",
"318 740 LINE",
"872 740 LINE"
);
},
{
closed = 1;
nodes = (
"820 740 OFFCURVE",
"828 712 OFFCURVE",
"828 600 CURVE SMOOTH",
"828 290 LINE",
"872 290 LINE",
"872 740 LINE",
"708 740 LINE"
);
},
{
closed = 1;
nodes = (
"872 780 LINE",
"872 1160 LINE",
"828 1160 LINE",
"828 920 LINE SMOOTH",
"828 808 OFFCURVE",
"820 780 OFFCURVE",
"708 780 CURVE"
);
},
{
closed = 1;
nodes = (
"318 1440 LINE",
"270 1440 LINE",
"270 0 LINE",
"318 0 LINE"
);
}
);
width = 1368;
},
{
hints = (
{
origin = "{7, 1}";
scale = "{-0.96, 0.98}";
type = Corner;
name = _corner.Serif;
},
{
origin = "{7, 2}";
type = Corner;
name = _corner.Serif;
options = 1;
}
);
layerId = "642E5713-E15A-4A7E-A28E-9A6B75A6585C";
paths = (
{
closed = 1;
nodes = (
"1306 158 LINE",
"530 158 LINE",
"530 0 LINE",
"1306 0 LINE"
);
},
{
closed = 1;
nodes = (
"1288 1440 LINE",
"530 1440 LINE",
"530 1284 LINE",
"1288 1284 LINE"
);
},
{
closed = 1;
nodes = (
"1306 158 LINE",
"1306 558 LINE",
"1134 558 LINE",
"1134 338 LINE SMOOTH",
"1134 206 OFFCURVE",
"1106 158 OFFCURVE",
"974 158 CURVE"
);
},
{
closed = 1;
nodes = (
"1088 1284 OFFCURVE",
"1116 1236 OFFCURVE",
"1116 1104 CURVE SMOOTH",
"1116 902 LINE",
"1288 902 LINE",
"1288 1284 LINE",
"956 1284 LINE"
);
},
{
closed = 1;
nodes = (
"970 836 LINE",
"530 836 LINE",
"530 682 LINE",
"970 682 LINE"
);
},
{
closed = 1;
nodes = (
"774 682 OFFCURVE",
"802 634 OFFCURVE",
"802 502 CURVE SMOOTH",
"802 320 LINE",
"970 320 LINE",
"970 682 LINE",
"642 682 LINE"
);
},
{
closed = 1;
nodes = (
"970 836 LINE",
"970 1128 LINE",
"802 1128 LINE",
"802 1016 LINE SMOOTH",
"802 884 OFFCURVE",
"774 836 OFFCURVE",
"642 836 CURVE"
);
},
{
closed = 1;
nodes = (
"530 1440 LINE",
"240 1440 LINE",
"240 0 LINE",
"530 0 LINE"
);
}
);
width = 1364;
},
{
hints = (
{
origin = "{7, 1}";
scale = "{-0.96, 0.98}";
type = Corner;
name = _corner.Serif;
},
{
origin = "{7, 2}";
type = Corner;
name = _corner.Serif;
options = 1;
}
);
layerId = "AF891779-7DE6-4679-9CA2-17B922C1DF84";
paths = (
{
closed = 1;
nodes = (
"1330 184 LINE",
"554 184 LINE",
"554 0 LINE",
"1330 0 LINE"
);
},
{
closed = 1;
nodes = (
"1312 1440 LINE",
"554 1440 LINE",
"554 1260 LINE",
"1312 1260 LINE"
);
},
{
closed = 1;
nodes = (
"1330 184 LINE",
"1330 480 LINE",
"1140 480 LINE",
"1140 364 LINE SMOOTH",
"1140 232 OFFCURVE",
"1112 184 OFFCURVE",
"980 184 CURVE"
);
},
{
closed = 1;
nodes = (
"1094 1260 OFFCURVE",
"1122 1212 OFFCURVE",
"1122 1080 CURVE SMOOTH",
"1122 996 LINE",
"1312 996 LINE",
"1312 1260 LINE",
"962 1260 LINE"
);
},
{
closed = 1;
nodes = (
"980 848 LINE",
"554 848 LINE",
"554 670 LINE",
"980 670 LINE"
);
},
{
closed = 1;
nodes = (
"764 670 OFFCURVE",
"792 622 OFFCURVE",
"792 490 CURVE SMOOTH",
"792 378 LINE",
"980 378 LINE",
"980 670 LINE",
"632 670 LINE"
);
},
{
closed = 1;
nodes = (
"980 848 LINE",
"980 1072 LINE",
"792 1072 LINE",
"792 1028 LINE SMOOTH",
"792 896 OFFCURVE",
"764 848 OFFCURVE",
"632 848 CURVE"
);
},
{
closed = 1;
nodes = (
"554 1440 LINE",
"264 1440 LINE",
"264 0 LINE",
"554 0 LINE"
);
}
);
width = 1414;
}
);
leftKerningGroup = I;
leftMetricsKey = I;
rightKerningGroup = E;
unicode = 0045;
},
{
glyphname = F;
lastChange = "2020-08-19 11:00:02 +0000";
layers = (
{
hints = (
{
origin = "{5, 3}";
scale = "{-0.96, 1}";
type = Corner;
name = _corner.Serif;
},
{
origin = "{5, 0}";
type = Corner;
name = _corner.Serif;
options = 1;
},
{
origin = "{5, 1}";
scale = "{-1.2, 1}";
type = Corner;
name = _corner.Serif;
}
);
layerId = "CA54B7DC-FBBB-40FE-ACF3-AABDD76D6A7B";
paths = (
{
closed = 1;
nodes = (
"1230 1440 LINE",
"360 1440 LINE",
"360 1400 LINE",
"1230 1400 LINE"
);
},
{
closed = 1;
nodes = (
"1178 1400 OFFCURVE",
"1186 1372 OFFCURVE",
"1186 1260 CURVE SMOOTH",
"1186 1000 LINE",
"1230 1000 LINE",
"1230 1400 LINE",
"1066 1400 LINE"
);
},
{
closed = 1;
nodes = (
"916 754 LINE",
"360 754 LINE",
"360 714 LINE",
"916 714 LINE"
);
},
{
closed = 1;
nodes = (
"864 714 OFFCURVE",
"872 686 OFFCURVE",
"872 574 CURVE SMOOTH",
"872 380 LINE",
"916 380 LINE",
"916 714 LINE",
"752 714 LINE"
);
},
{
closed = 1;
nodes = (
"916 754 LINE",
"916 1060 LINE",
"872 1060 LINE",
"872 894 LINE SMOOTH",
"872 782 OFFCURVE",
"864 754 OFFCURVE",
"752 754 CURVE"
);
},
{
closed = 1;
nodes = (
"312 0 LINE",
"360 0 LINE",
"360 1440 LINE",
"312 1440 LINE"
);
}
);
width = 1320;
},
{
hints = (
{
origin = "{5, 3}";
scale = "{-0.96, 1}";
type = Corner;
name = _corner.Serif;
},
{
origin = "{5, 0}";
type = Corner;
name = _corner.Serif;
options = 1;
},
{
origin = "{5, 1}";
scale = "{-1.4, 1}";
type = Corner;
name = _corner.Serif;
}
);
layerId = "1E61A082-F045-49A7-AB52-DD1B03FD9B54";
paths = (
{
closed = 1;
nodes = (
"1188 1440 LINE",
"318 1440 LINE",
"318 1400 LINE",
"1188 1400 LINE"
);
},
{
closed = 1;
nodes = (
"1136 1400 OFFCURVE",
"1144 1372 OFFCURVE",
"1144 1260 CURVE SMOOTH",
"1144 900 LINE",
"1188 900 LINE",
"1188 1400 LINE",
"1024 1400 LINE"
);
},
{
closed = 1;
nodes = (
"878 760 LINE",
"318 760 LINE",
"318 720 LINE",
"878 720 LINE"
);
},
{
closed = 1;
nodes = (
"826 720 OFFCURVE",
"834 692 OFFCURVE",
"834 580 CURVE SMOOTH",
"834 300 LINE",
"878 300 LINE",
"878 720 LINE",
"714 720 LINE"
);
},
{
closed = 1;
nodes = (
"878 760 LINE",
"878 1160 LINE",
"834 1160 LINE",
"834 900 LINE SMOOTH",
"834 788 OFFCURVE",
"826 760 OFFCURVE",
"714 760 CURVE"
);
},
{
closed = 1;
nodes = (
"270 0 LINE",
"318 0 LINE",
"318 1440 LINE",
"270 1440 LINE"
);
}
);
width = 1260;
},
{
hints = (
{
origin = "{5, 3}";
scale = "{-0.96, 0.98}";
type = Corner;
name = _corner.Serif;
},
{
origin = "{5, 0}";
type = Corner;
name = _corner.Serif;
options = 1;
},
{
origin = "{5, 1}";
scale = "{-1.4, 1}";
type = Corner;
name = _corner.Serif;
}
);
layerId = "642E5713-E15A-4A7E-A28E-9A6B75A6585C";
paths = (
{
closed = 1;
nodes = (
"1278 1440 LINE",
"530 1440 LINE",
"530 1284 LINE",
"1278 1284 LINE"
);
},
{
closed = 1;
nodes = (
"1078 1284 OFFCURVE",
"1106 1236 OFFCURVE",
"1106 1104 CURVE SMOOTH",
"1106 902 LINE",
"1278 902 LINE",
"1278 1284 LINE",
"946 1284 LINE"
);
},
{
closed = 1;
nodes = (
"962 826 LINE",
"530 826 LINE",
"530 672 LINE",
"962 672 LINE"
);
},
{
closed = 1;
nodes = (
"766 672 OFFCURVE",
"794 624 OFFCURVE",
"794 492 CURVE SMOOTH",
"794 324 LINE",
"962 324 LINE",
"962 672 LINE",
"634 672 LINE"
);
},
{
closed = 1;
nodes = (
"962 826 LINE",
"962 1130 LINE",
"794 1130 LINE",
"794 1006 LINE SMOOTH",
"794 874 OFFCURVE",
"766 826 OFFCURVE",
"634 826 CURVE"
);
},
{
closed = 1;
nodes = (
"240 0 LINE",
"530 0 LINE",
"530 1440 LINE",
"240 1440 LINE"
);
}
);
width = 1322;
},
{
hints = (
{
origin = "{5, 3}";
scale = "{-0.96, 0.98}";
type = Corner;
name = _corner.Serif;
},
{
origin = "{5, 0}";
type = Corner;
name = _corner.Serif;
options = 1;
},
{
origin = "{5, 1}";
scale = "{-1.2, 1}";
type = Corner;
name = _corner.Serif;
}
);
layerId = "AF891779-7DE6-4679-9CA2-17B922C1DF84";
paths = (
{
closed = 1;
nodes = (
"1302 1440 LINE",
"554 1440 LINE",
"554 1260 LINE",
"1302 1260 LINE"
);
},
{
closed = 1;
nodes = (
"1084 1260 OFFCURVE",
"1112 1212 OFFCURVE",
"1112 1080 CURVE SMOOTH",
"1112 982 LINE",
"1302 982 LINE",
"1302 1260 LINE",
"952 1260 LINE"
);
},
{
closed = 1;
nodes = (
"966 838 LINE",
"554 838 LINE",
"554 660 LINE",
"966 660 LINE"
);
},
{
closed = 1;
nodes = (
"750 660 OFFCURVE",
"778 612 OFFCURVE",
"778 480 CURVE SMOOTH",
"778 360 LINE",
"966 360 LINE",
"966 660 LINE",
"618 660 LINE"
);
},
{
closed = 1;
nodes = (
"966 838 LINE",
"966 1092 LINE",
"778 1092 LINE",
"778 1018 LINE SMOOTH",
"778 886 OFFCURVE",
"750 838 OFFCURVE",
"618 838 CURVE"
);
},
{
closed = 1;
nodes = (
"264 0 LINE",
"554 0 LINE",
"554 1440 LINE",
"264 1440 LINE"
);
}
);
width = 1364;
}
);
leftKerningGroup = I;
leftMetricsKey = I;
rightKerningGroup = F;
unicode = 0046;
},
{
glyphname = G;
lastChange = "2020-08-19 10:39:07 +0000";
layers = (
{
layerId = "CA54B7DC-FBBB-40FE-ACF3-AABDD76D6A7B";
paths = (
{
closed = 1;
nodes = (
"1372 990 LINE",
"1355 1277 OFFCURVE",
"1166 1460 OFFCURVE",
"832 1460 CURVE SMOOTH",
"450 1460 OFFCURVE",
"162 1188 OFFCURVE",
"162 720 CURVE SMOOTH",
"162 252 OFFCURVE",
"456 -20 OFFCURVE",
"846 -20 CURVE SMOOTH",
"1236 -20 OFFCURVE",
"1426 258 OFFCURVE",
"1426 632 CURVE",
"1386 632 LINE",
"1386 302 OFFCURVE",
"1210 24 OFFCURVE",
"846 24 CURVE SMOOTH",
"482 24 OFFCURVE",
"210 296 OFFCURVE",
"210 720 CURVE SMOOTH",
"210 1144 OFFCURVE",
"478 1416 OFFCURVE",
"832 1416 CURVE SMOOTH",
"1163 1416 OFFCURVE",
"1314 1223 OFFCURVE",
"1334 990 CURVE"
);
},
{
closed = 1;
nodes = (
"1346 1440 LINE",
"1346 1044 LINE",
"1372 990 LINE",
"1390 990 LINE",
"1390 1440 LINE"
);
},
{
closed = 1;
nodes = (
"826 632 LINE",
"1630 632 LINE",
"1630 672 LINE",
"826 672 LINE"
);
},
{
closed = 1;
nodes = (
"1386 632 LINE",
"1386 0 LINE",
"1430 0 LINE",
"1430 632 LINE"
);
}
);
width = 1686;
},
{
layerId = "1E61A082-F045-49A7-AB52-DD1B03FD9B54";
paths = (
{
closed = 1;
nodes = (
"1344 940 LINE",
"1326 1262 OFFCURVE",
"1136 1460 OFFCURVE",
"798 1460 CURVE SMOOTH",
"416 1460 OFFCURVE",
"126 1188 OFFCURVE",
"126 720 CURVE SMOOTH",
"126 252 OFFCURVE",
"420 -20 OFFCURVE",
"810 -20 CURVE SMOOTH",
"1200 -20 OFFCURVE",
"1390 258 OFFCURVE",
"1390 632 CURVE",
"1350 632 LINE",
"1350 302 OFFCURVE",
"1174 24 OFFCURVE",
"810 24 CURVE SMOOTH",
"446 24 OFFCURVE",
"174 296 OFFCURVE",
"174 720 CURVE SMOOTH",
"174 1144 OFFCURVE",
"444 1416 OFFCURVE",
"798 1416 CURVE SMOOTH",
"1135 1416 OFFCURVE",
"1286 1205 OFFCURVE",
"1306 940 CURVE"
);
},
{
closed = 1;
nodes = (
"1318 1440 LINE",
"1318 994 LINE",
"1344 940 LINE",
"1362 940 LINE",
"1362 1440 LINE"
);
},
{
closed = 1;
nodes = (
"746 632 LINE",
"1594 632 LINE",
"1594 672 LINE",
"746 672 LINE"
);
},
{
closed = 1;
nodes = (
"1350 632 LINE",
"1350 0 LINE",
"1394 0 LINE",
"1394 632 LINE"
);
}
);
width = 1638;
},
{
layerId = "642E5713-E15A-4A7E-A28E-9A6B75A6585C";
paths = (
{
closed = 1;
nodes = (
"1402 890 LINE",
"1385 1252 OFFCURVE",
"1190 1460 OFFCURVE",
"808 1460 CURVE SMOOTH",
"394 1460 OFFCURVE",
"76 1188 OFFCURVE",
"76 720 CURVE SMOOTH",
"76 252 OFFCURVE",
"394 -20 OFFCURVE",
"808 -20 CURVE SMOOTH",
"1216 -20 OFFCURVE",
"1394 243 OFFCURVE",
"1405 552 CURVE",
"1296 552 LINE",
"1279 358 OFFCURVE",
"1168 170 OFFCURVE",
"870 170 CURVE SMOOTH",
"579 170 OFFCURVE",
"378 384 OFFCURVE",
"378 720 CURVE SMOOTH",
"378 1072 OFFCURVE",
"575 1296 OFFCURVE",
"856 1296 CURVE SMOOTH",
"1138 1296 OFFCURVE",
"1265 1107 OFFCURVE",
"1282 890 CURVE"
);
},
{
closed = 1;
nodes = (
"1286 1440 LINE",
"1286 1064 LINE",
"1402 890 LINE",
"1448 890 LINE",
"1448 1440 LINE"
);
},
{
closed = 1;
nodes = (
"841 552 LINE",
"1638 552 LINE",
"1638 712 LINE",
"841 712 LINE"
);
},
{
closed = 1;
nodes = (
"1302 552 LINE",
"1302 0 LINE",
"1472 0 LINE",
"1472 552 LINE"
);
}
);
width = 1658;
},
{
layerId = "AF891779-7DE6-4679-9CA2-17B922C1DF84";
paths = (
{
closed = 1;
nodes = (
"1422 950 LINE",
"1393 1252 OFFCURVE",
"1215 1460 OFFCURVE",
"824 1460 CURVE SMOOTH",
"409 1460 OFFCURVE",
"90 1188 OFFCURVE",
"90 720 CURVE SMOOTH",
"90 252 OFFCURVE",
"410 -20 OFFCURVE",
"826 -20 CURVE SMOOTH",
"1232 -20 OFFCURVE",
"1417 239 OFFCURVE",
"1428 544 CURVE",
"1282 544 LINE",
"1265 366 OFFCURVE",
"1159 194 OFFCURVE",
"874 194 CURVE SMOOTH",
"589 194 OFFCURVE",
"392 399 OFFCURVE",
"392 720 CURVE SMOOTH",
"392 1057 OFFCURVE",
"589 1272 OFFCURVE",
"870 1272 CURVE SMOOTH",
"1138 1272 OFFCURVE",
"1258 1122 OFFCURVE",
"1274 950 CURVE"
);
},
{
closed = 1;
nodes = (
"1276 1440 LINE",
"1276 1140 LINE",
"1422 950 LINE",
"1462 950 LINE",
"1462 1440 LINE"
);
},
{
closed = 1;
nodes = (
"855 544 LINE",
"1652 544 LINE",
"1652 724 LINE",
"855 724 LINE"
);
},
{
closed = 1;
nodes = (
"1288 544 LINE",
"1288 0 LINE",
"1478 0 LINE",
"1478 544 LINE"
);
}
);
width = 1694;
}
);
leftKerningGroup = O;
leftMetricsKey = O;
rightKerningGroup = G;
unicode = 0047;
},
{
glyphname = H;
lastChange = "2020-08-19 10:40:19 +0000";
layers = (
{
hints = (
{
origin = "{1, 0}";
scale = "{0.96, 1}";
type = Corner;
name = _corner.Serif;
},
{
origin = "{1, 1}";
scale = "{-0.96, 1}";
type = Corner;
name = _corner.Serif;
},
{
origin = "{1, 2}";
type = Corner;
name = _corner.Serif;
options = 1;
},
{
origin = "{1, 3}";
scale = "{-1, 1}";
type = Corner;
name = _corner.Serif;
},
{
origin = "{2, 0}";
scale = "{0.96, 1}";
type = Corner;
name = _corner.Serif;
},
{
origin = "{2, 1}";
scale = "{-0.96, 1}";
type = Corner;
name = _corner.Serif;
},
{
origin = "{2, 2}";
type = Corner;
name = _corner.Serif;
options = 1;
},
{
origin = "{2, 3}";
scale = "{-1, 1}";
type = Corner;
name = _corner.Serif;
}
);
layerId = "CA54B7DC-FBBB-40FE-ACF3-AABDD76D6A7B";
paths = (
{
closed = 1;
nodes = (
"1264 750 LINE",
"360 750 LINE",
"360 710 LINE",
"1264 710 LINE"
);
},
{
closed = 1;
nodes = (
"360 1440 LINE",
"312 1440 LINE",
"312 0 LINE",
"360 0 LINE"
);
},
{
closed = 1;
nodes = (
"1312 1440 LINE",
"1264 1440 LINE",
"1264 0 LINE",
"1312 0 LINE"
);
}
);
width = 1624;
},
{
hints = (
{
origin = "{1, 0}";
scale = "{1.06, 1}";
type = Corner;
name = _corner.Serif;
},
{
origin = "{1, 1}";
scale = "{-0.96, 1}";
type = Corner;
name = _corner.Serif;
},
{
origin = "{1, 2}";
type = Corner;
name = _corner.Serif;
options = 1;
},
{
origin = "{1, 3}";
scale = "{-1.1, 1}";
type = Corner;
name = _corner.Serif;
},
{
origin = "{2, 0}";
scale = "{0.96, 1}";
type = Corner;
name = _corner.Serif;
},
{
origin = "{2, 1}";
scale = "{-1.06, 1}";
type = Corner;
name = _corner.Serif;
},
{
origin = "{2, 2}";
scale = "{1.1, 1}";
type = Corner;
name = _corner.Serif;
options = 1;
},
{
origin = "{2, 3}";
scale = "{-1, 1}";
type = Corner;
name = _corner.Serif;
}
);
layerId = "1E61A082-F045-49A7-AB52-DD1B03FD9B54";
paths = (
{
closed = 1;
nodes = (
"1222 750 LINE",
"318 750 LINE",
"318 710 LINE",
"1222 710 LINE"
);
},
{
closed = 1;
nodes = (
"318 1440 LINE",
"270 1440 LINE",
"270 0 LINE",
"318 0 LINE"
);
},
{
closed = 1;
nodes = (
"1270 1440 LINE",
"1222 1440 LINE",
"1222 0 LINE",
"1270 0 LINE"
);
}
);
width = 1540;
},
{
hints = (
{
origin = "{1, 0}";
scale = "{1.06, 0.98}";
type = Corner;
name = _corner.Serif;
options = 1;
},
{
origin = "{1, 1}";
scale = "{-0.96, 0.98}";
type = Corner;
name = _corner.Serif;
},
{
origin = "{1, 2}";
type = Corner;
name = _corner.Serif;
options = 1;
},
{
origin = "{1, 3}";
scale = "{-1.1, 1}";
type = Corner;
name = _corner.Serif;
},
{
origin = "{2, 0}";
scale = "{0.96, 0.98}";
type = Corner;
name = _corner.Serif;
options = 1;
},
{
origin = "{2, 1}";
scale = "{-1.06, 0.98}";
type = Corner;
name = _corner.Serif;
},
{
origin = "{2, 2}";
scale = "{1.1, 1}";
type = Corner;
name = _corner.Serif;
options = 1;
},
{
origin = "{2, 3}";
scale = "{-1, 1}";
type = Corner;
name = _corner.Serif;
}
);
layerId = "642E5713-E15A-4A7E-A28E-9A6B75A6585C";
paths = (
{
closed = 1;
nodes = (
"1136 810 LINE",
"530 810 LINE",
"530 652 LINE",
"1136 652 LINE"
);
},
{
closed = 1;
nodes = (
"530 1440 LINE",
"240 1440 LINE",
"240 0 LINE",
"530 0 LINE"
);
},
{
closed = 1;
nodes = (
"1426 1440 LINE",
"1136 1440 LINE",
"1136 0 LINE",
"1426 0 LINE"
);
}
);
width = 1666;
},
{
hints = (
{
origin = "{1, 0}";
scale = "{0.96, 0.98}";
type = Corner;
name = _corner.Serif;
options = 1;
},
{
origin = "{1, 1}";
scale = "{-0.96, 0.98}";
type = Corner;
name = _corner.Serif;
},
{
origin = "{1, 2}";
type = Corner;
name = _corner.Serif;
options = 1;
},
{
origin = "{1, 3}";
scale = "{-1, 1}";
type = Corner;
name = _corner.Serif;
},
{
origin = "{2, 0}";
scale = "{0.96, 0.98}";
type = Corner;
name = _corner.Serif;
options = 1;
},
{
origin = "{2, 1}";
scale = "{-0.96, 0.98}";
type = Corner;
name = _corner.Serif;
},
{
origin = "{2, 2}";
type = Corner;
name = _corner.Serif;
options = 1;
},
{
origin = "{2, 3}";
scale = "{-1, 1}";
type = Corner;
name = _corner.Serif;
}
);
layerId = "AF891779-7DE6-4679-9CA2-17B922C1DF84";
paths = (
{
closed = 1;
nodes = (
"1160 822 LINE",
"554 822 LINE",
"554 638 LINE",
"1160 638 LINE"
);
},
{
closed = 1;
nodes = (
"554 1440 LINE",
"264 1440 LINE",
"264 0 LINE",
"554 0 LINE"
);
},
{
closed = 1;
nodes = (
"1450 1440 LINE",
"1160 1440 LINE",
"1160 0 LINE",
"1450 0 LINE"
);
}
);
width = 1714;
}
);
leftKerningGroup = I;
leftMetricsKey = I;
rightKerningGroup = I;
rightMetricsKey = I;
unicode = 0048;
},
{
glyphname = I;
lastChange = "2020-08-19 09:26:07 +0000";
layers = (
{
hints = (
{
origin = "{0, 3}";
scale = "{0.96, 1}";
type = Corner;
name = _corner.Serif;
},
{
origin = "{0, 0}";
scale = "{-0.96, 1}";
type = Corner;
name = _corner.Serif;
},
{
origin = "{0, 1}";
type = Corner;
name = _corner.Serif;
options = 1;
},
{
origin = "{0, 2}";
scale = "{-1, 1}";
type = Corner;
name = _corner.Serif;
}
);
layerId = "CA54B7DC-FBBB-40FE-ACF3-AABDD76D6A7B";
paths = (
{
closed = 1;
nodes = (
"312 1440 LINE",
"312 0 LINE",
"360 0 LINE",
"360 1440 LINE"
);
}
);
width = 672;
},
{
hints = (
{
origin = "{0, 0}";
scale = "{-0.96, 1}";
type = Corner;
name = _corner.Serif;
},
{
origin = "{0, 1}";
type = Corner;
name = _corner.Serif;
options = 1;
},
{
origin = "{0, 2}";
scale = "{-1, 1}";
type = Corner;
name = _corner.Serif;
},
{
origin = "{0, 3}";
scale = "{0.96, 1}";
type = Corner;
name = _corner.Serif;
}
);
layerId = "1E61A082-F045-49A7-AB52-DD1B03FD9B54";
paths = (
{
closed = 1;
nodes = (
"270 1440 LINE",
"270 0 LINE",
"318 0 LINE",
"318 1440 LINE"
);
}
);
width = 588;
},
{
hints = (
{
origin = "{0, 3}";
scale = "{0.96, 0.98}";
type = Corner;
name = _corner.Serif;
options = 1;
},
{
origin = "{0, 0}";
scale = "{-0.96, 0.98}";
type = Corner;
name = _corner.Serif;
},
{
origin = "{0, 1}";
type = Corner;
name = _corner.Serif;
options = 1;
},
{
origin = "{0, 2}";
scale = "{-1, 1}";
type = Corner;
name = _corner.Serif;
}
);
layerId = "642E5713-E15A-4A7E-A28E-9A6B75A6585C";
paths = (
{
closed = 1;
nodes = (
"240 1440 LINE",
"240 0 LINE",
"530 0 LINE",
"530 1440 LINE"
);
}
);
width = 770;
},
{
hints = (
{
origin = "{0, 0}";
scale = "{-0.96, 0.98}";
type = Corner;
name = _corner.Serif;
},
{
origin = "{0, 1}";
type = Corner;
name = _corner.Serif;
options = 1;
},
{
origin = "{0, 2}";
scale = "{-1, 1}";
type = Corner;
name = _corner.Serif;
},
{
origin = "{0, 3}";
scale = "{0.96, 0.98}";
type = Corner;
name = _corner.Serif;
options = 1;
}
);
layerId = "AF891779-7DE6-4679-9CA2-17B922C1DF84";
paths = (
{
closed = 1;
nodes = (
"264 1440 LINE",
"264 0 LINE",
"554 0 LINE",
"554 1440 LINE"
);
}
);
width = 818;
}
);
leftKerningGroup = I;
rightKerningGroup = I;
unicode = 0049;
},
{
glyphname = J;
lastChange = "2020-08-19 13:47:42 +0000";
layers = (
{
hints = (
{
origin = "{0, 17}";
scale = "{0.96, 1}";
type = Corner;
name = _corner.Serif;
},
{
origin = "{0, 0}";
scale = "{-1.16, 1}";
type = Corner;
name = _corner.Serif;
options = 1;
}
);
layerId = "CA54B7DC-FBBB-40FE-ACF3-AABDD76D6A7B";
paths = (
{
closed = 1;
nodes = (
"790 1440 LINE",
"790 396 LINE SMOOTH",
"790 150 OFFCURVE",
"664 24 OFFCURVE",
"460 24 CURVE SMOOTH",
"256 24 OFFCURVE",
"130 150 OFFCURVE",
"130 396 CURVE SMOOTH",
"130 460 LINE",
"84 460 LINE",
"84 392 LINE SMOOTH",
"84 114 OFFCURVE",
"233 -16 OFFCURVE",
"461 -16 CURVE SMOOTH",
"689 -16 OFFCURVE",
"838 114 OFFCURVE",
"838 400 CURVE SMOOTH",
"838 1440 LINE"
);
}
);
width = 1100;
},
{
hints = (
{
origin = "{0, 17}";
scale = "{0.96, 1}";
type = Corner;
name = _corner.Serif;
},
{
origin = "{0, 0}";
scale = "{-1.36, 1}";
type = Corner;
name = _corner.Serif;
options = 1;
}
);
layerId = "1E61A082-F045-49A7-AB52-DD1B03FD9B54";
paths = (
{
closed = 1;
nodes = (
"778 1440 LINE",
"778 396 LINE SMOOTH",
"778 150 OFFCURVE",
"652 24 OFFCURVE",
"448 24 CURVE SMOOTH",
"244 24 OFFCURVE",
"118 150 OFFCURVE",
"118 396 CURVE SMOOTH",
"118 560 LINE",
"74 560 LINE",
"74 392 LINE SMOOTH",
"74 114 OFFCURVE",
"222 -16 OFFCURVE",
"450 -16 CURVE SMOOTH",
"678 -16 OFFCURVE",
"826 114 OFFCURVE",
"826 400 CURVE SMOOTH",
"826 1440 LINE"
);
}
);
width = 1064;
},
{
hints = (
{
origin = "{0, 17}";
scale = "{0.96, 0.98}";
type = Corner;
name = _corner.Serif;
},
{
origin = "{0, 0}";
scale = "{-1.36, 0.98}";
type = Corner;
name = _corner.Serif;
options = 1;
}
);
layerId = "642E5713-E15A-4A7E-A28E-9A6B75A6585C";
paths = (
{
closed = 1;
nodes = (
"670 1440 LINE",
"670 436 LINE SMOOTH",
"670 278 OFFCURVE",
"607 184 OFFCURVE",
"458 184 CURVE SMOOTH",
"309 184 OFFCURVE",
"238 278 OFFCURVE",
"238 430 CURVE SMOOTH",
"238 558 LINE",
"70 558 LINE",
"70 424 LINE SMOOTH",
"70 135 OFFCURVE",
"224 -20 OFFCURVE",
"511 -20 CURVE SMOOTH",
"802 -20 OFFCURVE",
"960 138 OFFCURVE",
"960 424 CURVE SMOOTH",
"960 1440 LINE"
);
}
);
width = 1176;
},
{
hints = (
{
origin = "{0, 0}";
scale = "{-1.16, 0.98}";
type = Corner;
name = _corner.Serif;
options = 1;
},
{
origin = "{0, 17}";
scale = "{0.96, 0.98}";
type = Corner;
name = _corner.Serif;
}
);
layerId = "AF891779-7DE6-4679-9CA2-17B922C1DF84";
paths = (
{
closed = 1;
nodes = (
"670 1440 LINE",
"670 437 LINE SMOOTH",
"670 287 OFFCURVE",
"610 198 OFFCURVE",
"467 198 CURVE SMOOTH",
"323 198 OFFCURVE",
"254 287 OFFCURVE",
"254 431 CURVE SMOOTH",
"254 480 LINE",
"60 480 LINE",
"60 424 LINE SMOOTH",
"60 135 OFFCURVE",
"216 -20 OFFCURVE",
"506 -20 CURVE SMOOTH",
"800 -20 OFFCURVE",
"960 138 OFFCURVE",
"960 424 CURVE SMOOTH",
"960 1440 LINE"
);
}
);
width = 1176;
}
);
leftKerningGroup = J;
rightKerningGroup = U;
rightMetricsKey = U;
unicode = 004A;
},
{
glyphname = K;
lastChange = "2020-08-19 13:55:22 +0000";
layers = (
{
hints = (
{
origin = "{0, 0}";
scale = "{-0.96, 1}";
type = Corner;
name = _corner.Serif;
},
{
origin = "{0, 1}";
type = Corner;
name = _corner.Serif;
options = 1;
},
{
origin = "{0, 2}";
scale = "{-1, 1}";
type = Corner;
name = _corner.Serif;
},
{
origin = "{0, 3}";
scale = "{0.96, 1}";
type = Corner;
name = _corner.Serif;
},
{
origin = "{1, 0}";
scale = "{-1.16, 1}";
type = Corner;
name = _corner.Serif;
options = 1;
},
{
origin = "{1, 3}";
scale = "{0.46, 1}";
type = Corner;
name = _corner.Serif;
},
{
origin = "{2, 2}";
scale = "{1.2, 1}";
type = Corner;
name = _corner.Serif;
},
{
origin = "{2, 3}";
scale = "{-0.5, 1}";
type = Corner;
name = _corner.Serif;
options = 1;
}
);
layerId = "CA54B7DC-FBBB-40FE-ACF3-AABDD76D6A7B";
paths = (
{
closed = 1;
nodes = (
"312 1440 LINE",
"312 0 LINE",
"360 0 LINE",
"360 1440 LINE"
);
},
{
closed = 1;
nodes = (
"1263 1440 LINE",
"326 586 LINE",
"351 552 LINE",
"1328 1440 LINE"
);
},
{
closed = 1;
nodes = (
"619 816 LINE",
"586 784 LINE",
"1313 0 LINE",
"1378 0 LINE"
);
}
);
width = 1531;
},
{
hints = (
{
origin = "{0, 0}";
scale = "{-0.96, 1}";
type = Corner;
name = _corner.Serif;
},
{
origin = "{0, 1}";
type = Corner;
name = _corner.Serif;
options = 1;
},
{
origin = "{0, 2}";
scale = "{-1, 1}";
type = Corner;
name = _corner.Serif;
},
{
origin = "{0, 3}";
scale = "{0.96, 1}";
type = Corner;
name = _corner.Serif;
},
{
origin = "{1, 0}";
scale = "{-1.16, 1}";
type = Corner;
name = _corner.Serif;
options = 1;
},
{
origin = "{1, 3}";
scale = "{0.46, 1}";
type = Corner;
name = _corner.Serif;
},
{
origin = "{2, 2}";
scale = "{1.2, 1}";
type = Corner;
name = _corner.Serif;
},
{
origin = "{2, 3}";
scale = "{-0.5, 1}";
type = Corner;
name = _corner.Serif;
options = 1;
}
);
layerId = "1E61A082-F045-49A7-AB52-DD1B03FD9B54";
paths = (
{
closed = 1;
nodes = (
"270 1440 LINE",
"270 0 LINE",
"318 0 LINE",
"318 1440 LINE"
);
},
{
closed = 1;
nodes = (
"1223 1440 LINE",
"284 585 LINE",
"309 554 LINE",
"1286 1440 LINE"
);
},
{
closed = 1;
nodes = (
"577 816 LINE",
"544 784 LINE",
"1271 0 LINE",
"1336 0 LINE"
);
}
);
width = 1463;
},
{
hints = (
{
origin = "{0, 0}";
scale = "{-0.96, 0.98}";
type = Corner;
name = _corner.Serif;
},
{
origin = "{0, 1}";
type = Corner;
name = _corner.Serif;
options = 1;
},
{
origin = "{0, 2}";
scale = "{-1, 1}";
type = Corner;
name = _corner.Serif;
},
{
origin = "{0, 3}";
scale = "{0.96, 0.98}";
type = Corner;
name = _corner.Serif;
options = 1;
},
{
origin = "{1, 0}";
scale = "{-2.1, 0.98}";
type = Corner;
name = _corner.Serif;
options = 1;
},
{
origin = "{1, 3}";
scale = "{0.02, 0.98}";
type = Corner;
name = _corner.Serif;
},
{
origin = "{2, 2}";
scale = "{1.56, 1}";
type = Corner;
name = _corner.Serif;
},
{
origin = "{2, 3}";
scale = "{-0.02, 1}";
type = Corner;
name = _corner.Serif;
options = 1;
}
);
layerId = "642E5713-E15A-4A7E-A28E-9A6B75A6585C";
paths = (
{
closed = 1;
nodes = (
"240 1440 LINE",
"240 0 LINE",
"530 0 LINE",
"530 1440 LINE"
);
},
{
closed = 1;
nodes = (
"1248 1440 LINE",
"369 591 LINE",
"473 464 LINE",
"1490 1440 LINE"
);
},
{
closed = 1;
nodes = (
"804 892 LINE",
"601 714 LINE",
"1138 0 LINE",
"1508 0 LINE"
);
}
);
width = 1582;
},
{
hints = (
{
origin = "{0, 0}";
scale = "{-0.96, 0.98}";
type = Corner;
name = _corner.Serif;
},
{
origin = "{0, 1}";
type = Corner;
name = _corner.Serif;
options = 1;
},
{
origin = "{0, 2}";
scale = "{-1, 1}";
type = Corner;
name = _corner.Serif;
},
{
origin = "{0, 3}";
scale = "{0.96, 0.98}";
type = Corner;
name = _corner.Serif;
options = 1;
},
{
origin = "{1, 0}";
scale = "{-2.1, 0.98}";
type = Corner;
name = _corner.Serif;
options = 1;
},
{
origin = "{1, 3}";
scale = "{0.02, 0.98}";
type = Corner;
name = _corner.Serif;
},
{
origin = "{2, 2}";
scale = "{1.56, 1}";
type = Corner;
name = _corner.Serif;
},
{
origin = "{2, 3}";
scale = "{-0.02, 1}";
type = Corner;
name = _corner.Serif;
options = 1;
}
);
layerId = "AF891779-7DE6-4679-9CA2-17B922C1DF84";
paths = (
{
closed = 1;
nodes = (
"264 1440 LINE",
"264 0 LINE",
"554 0 LINE",
"554 1440 LINE"
);
},
{
closed = 1;
nodes = (
"1247 1440 LINE",
"383 592 LINE",
"507 458 LINE",
"1516 1440 LINE"
);
},
{
closed = 1;
nodes = (
"828 892 LINE",
"625 714 LINE",
"1162 0 LINE",
"1532 0 LINE"
);
}
);
width = 1606;
}
);
leftKerningGroup = I;
leftMetricsKey = I;
rightKerningGroup = K;
rightMetricsKey = X;
unicode = 004B;
},
{
glyphname = L;
lastChange = "2020-08-19 10:40:42 +0000";
layers = (
{
hints = (
{
origin = "{2, 1}";
scale = "{-0.96, 1}";
type = Corner;
name = _corner.Serif;
},
{
origin = "{2, 2}";
type = Corner;
name = _corner.Serif;
options = 1;
},
{
origin = "{2, 0}";
scale = "{1.16, 1}";
type = Corner;
name = _corner.Serif;
}
);
layerId = "CA54B7DC-FBBB-40FE-ACF3-AABDD76D6A7B";
paths = (
{
closed = 1;
nodes = (
"1222 40 LINE",
"360 40 LINE",
"360 0 LINE",
"1222 0 LINE"
);
},
{
closed = 1;
nodes = (
"1222 40 LINE",
"1222 460 LINE",
"1178 460 LINE",
"1178 180 LINE SMOOTH",
"1178 68 OFFCURVE",
"1170 40 OFFCURVE",
"1058 40 CURVE"
);
},
{
closed = 1;
nodes = (
"360 1440 LINE",
"312 1440 LINE",
"312 0 LINE",
"360 0 LINE"
);
}
);
width = 1312;
},
{
hints = (
{
origin = "{2, 1}";
scale = "{-0.96, 1}";
type = Corner;
name = _corner.Serif;
},
{
origin = "{2, 2}";
type = Corner;
name = _corner.Serif;
options = 1;
},
{
origin = "{2, 0}";
scale = "{1.36, 1}";
type = Corner;
name = _corner.Serif;
}
);
layerId = "1E61A082-F045-49A7-AB52-DD1B03FD9B54";
paths = (
{
closed = 1;
nodes = (
"1180 40 LINE",
"318 40 LINE",
"318 0 LINE",
"1180 0 LINE"
);
},
{
closed = 1;
nodes = (
"1180 40 LINE",
"1180 560 LINE",
"1136 560 LINE",
"1136 180 LINE SMOOTH",
"1136 68 OFFCURVE",
"1128 40 OFFCURVE",
"1016 40 CURVE"
);
},
{
closed = 1;
nodes = (
"318 1440 LINE",
"270 1440 LINE",
"270 0 LINE",
"318 0 LINE"
);
}
);
width = 1256;
},
{
hints = (
{
origin = "{2, 1}";
scale = "{-0.96, 0.98}";
type = Corner;
name = _corner.Serif;
},
{
origin = "{2, 2}";
type = Corner;
name = _corner.Serif;
options = 1;
},
{
origin = "{2, 0}";
scale = "{1.36, 0.98}";
type = Corner;
name = _corner.Serif;
}
);
layerId = "642E5713-E15A-4A7E-A28E-9A6B75A6585C";
paths = (
{
closed = 1;
nodes = (
"1266 158 LINE",
"530 158 LINE",
"530 0 LINE",
"1266 0 LINE"
);
},
{
closed = 1;
nodes = (
"1266 158 LINE",
"1266 558 LINE",
"1094 558 LINE",
"1094 338 LINE SMOOTH",
"1094 206 OFFCURVE",
"1066 158 OFFCURVE",
"934 158 CURVE"
);
},
{
closed = 1;
nodes = (
"530 1440 LINE",
"240 1440 LINE",
"240 0 LINE",
"530 0 LINE"
);
}
);
width = 1310;
},
{
hints = (
{
origin = "{2, 1}";
scale = "{-0.96, 0.98}";
type = Corner;
name = _corner.Serif;
},
{
origin = "{2, 2}";
type = Corner;
name = _corner.Serif;
options = 1;
},
{
origin = "{2, 0}";
scale = "{1.16, 0.98}";
type = Corner;
name = _corner.Serif;
}
);
layerId = "AF891779-7DE6-4679-9CA2-17B922C1DF84";
paths = (
{
closed = 1;
nodes = (
"1290 184 LINE",
"554 184 LINE",
"554 0 LINE",
"1290 0 LINE"
);
},
{
closed = 1;
nodes = (
"1290 184 LINE",
"1290 464 LINE",
"1100 464 LINE",
"1100 364 LINE SMOOTH",
"1100 232 OFFCURVE",
"1072 184 OFFCURVE",
"940 184 CURVE"
);
},
{
closed = 1;
nodes = (
"554 1440 LINE",
"264 1440 LINE",
"264 0 LINE",
"554 0 LINE"
);
}
);
width = 1358;
}
);
leftKerningGroup = I;
leftMetricsKey = I;
rightKerningGroup = L;
unicode = 004C;
},
{
glyphname = M;
lastChange = "2020-08-19 09:38:10 +0000";
layers = (
{
hints = (
{
origin = "{0, 2}";
scale = "{-0.96, 1}";
type = Corner;
name = _corner.Serif;
},
{
origin = "{0, 3}";
type = Corner;
name = _corner.Serif;
options = 1;
},
{
origin = "{0, 4}";
scale = "{-1, 1}";
type = Corner;
name = _corner.Serif;
},
{
origin = "{1, 2}";
type = Corner;
name = _corner.Serif;
},
{
origin = "{1, 3}";
scale = "{-1, 1}";
type = Corner;
name = _corner.Serif;
options = 1;
},
{
origin = "{1, 0}";
scale = "{0.96, 1}";
type = Corner;
name = _corner.Serif;
}
);
layerId = "CA54B7DC-FBBB-40FE-ACF3-AABDD76D6A7B";
paths = (
{
closed = 1;
nodes = (
"358 1356 LINE",
"358 1440 LINE",
"312 1440 LINE",
"312 0 LINE",
"358 0 LINE"
);
},
{
closed = 1;
nodes = (
"1606 1440 LINE",
"1558 1440 LINE",
"1558 0 LINE",
"1606 0 LINE"
);
},
{
closed = 1;
nodes = (
"938 0 LINE",
"978 0 LINE",
"1558 1357 LINE",
"1558 1440 LINE",
"1544 1440 LINE",
"950 52 LINE",
"968 52 LINE",
"374 1440 LINE",
"358 1440 LINE",
"358 1356 LINE"
);
}
);
width = 1918;
},
{
hints = (
{
origin = "{0, 2}";
scale = "{-0.96, 1}";
type = Corner;
name = _corner.Serif;
},
{
origin = "{0, 3}";
type = Corner;
name = _corner.Serif;
options = 1;
},
{
origin = "{0, 4}";
scale = "{-1, 1}";
type = Corner;
name = _corner.Serif;
},
{
origin = "{1, 0}";
scale = "{0.96, 1}";
type = Corner;
name = _corner.Serif;
},
{
origin = "{1, 2}";
type = Corner;
name = _corner.Serif;
},
{
origin = "{1, 3}";
scale = "{-1, 1}";
type = Corner;
name = _corner.Serif;
options = 1;
}
);
layerId = "1E61A082-F045-49A7-AB52-DD1B03FD9B54";
paths = (
{
closed = 1;
nodes = (
"314 1356 LINE",
"314 1440 LINE",
"270 1440 LINE",
"270 0 LINE",
"314 0 LINE"
);
},
{
closed = 1;
nodes = (
"1560 1440 LINE",
"1512 1440 LINE",
"1512 0 LINE",
"1560 0 LINE"
);
},
{
closed = 1;
nodes = (
"894 0 LINE",
"932 0 LINE",
"1512 1357 LINE",
"1514 1440 LINE",
"1500 1440 LINE",
"906 52 LINE",
"924 52 LINE",
"330 1440 LINE",
"314 1440 LINE",
"314 1356 LINE"
);
}
);
width = 1830;
},
{
hints = (
{
origin = "{0, 2}";
scale = "{-0.96, 0.98}";
type = Corner;
name = _corner.Serif;
},
{
origin = "{0, 3}";
type = Corner;
name = _corner.Serif;
options = 1;
},
{
origin = "{0, 4}";
scale = "{-1, 1}";
type = Corner;
name = _corner.Serif;
},
{
origin = "{1, 0}";
scale = "{0.96, 0.98}";
type = Corner;
name = _corner.Serif;
},
{
origin = "{1, 2}";
type = Corner;
name = _corner.Serif;
},
{
origin = "{1, 3}";
scale = "{-1, 1}";
type = Corner;
name = _corner.Serif;
options = 1;
}
);
layerId = "642E5713-E15A-4A7E-A28E-9A6B75A6585C";
paths = (
{
closed = 1;
nodes = (
"408 1056 LINE",
"408 1440 LINE",
"240 1440 LINE",
"240 0 LINE",
"408 0 LINE"
);
},
{
closed = 1;
nodes = (
"1815 1440 LINE",
"1525 1440 LINE",
"1525 0 LINE",
"1815 0 LINE"
);
},
{
closed = 1;
nodes = (
"872 0 LINE",
"1064 0 LINE",
"1525 1047 LINE",
"1525 1440 LINE",
"1514 1440 LINE",
"1025 328 LINE",
"1043 328 LINE",
"554 1440 LINE",
"408 1440 LINE",
"408 1056 LINE"
);
}
);
width = 2055;
},
{
hints = (
{
origin = "{0, 2}";
scale = "{-0.96, 0.98}";
type = Corner;
name = _corner.Serif;
},
{
origin = "{0, 3}";
type = Corner;
name = _corner.Serif;
options = 1;
},
{
origin = "{0, 4}";
scale = "{-1, 1}";
type = Corner;
name = _corner.Serif;
},
{
origin = "{1, 0}";
scale = "{0.96, 0.98}";
type = Corner;
name = _corner.Serif;
},
{
origin = "{1, 2}";
type = Corner;
name = _corner.Serif;
},
{
origin = "{1, 3}";
scale = "{-1, 1}";
type = Corner;
name = _corner.Serif;
options = 1;
}
);
layerId = "AF891779-7DE6-4679-9CA2-17B922C1DF84";
paths = (
{
closed = 1;
nodes = (
"458 1056 LINE",
"458 1440 LINE",
"264 1440 LINE",
"264 0 LINE",
"458 0 LINE"
);
},
{
closed = 1;
nodes = (
"1854 1440 LINE",
"1564 1440 LINE",
"1564 0 LINE",
"1854 0 LINE"
);
},
{
closed = 1;
nodes = (
"898 0 LINE",
"1124 0 LINE",
"1564 1056 LINE",
"1564 1440 LINE",
"1518 1440 LINE",
"1055 328 LINE",
"1073 328 LINE",
"610 1440 LINE",
"458 1440 LINE",
"458 1056 LINE"
);
}
);
width = 2118;
}
);
leftKerningGroup = I;
leftMetricsKey = I;
rightKerningGroup = I;
rightMetricsKey = I;
unicode = 004D;
},
{
glyphname = N;
lastChange = "2020-08-19 09:39:53 +0000";
layers = (
{
hints = (
{
origin = "{0, 2}";
scale = "{-0.96, 1}";
type = Corner;
name = _corner.Serif;
},
{
origin = "{0, 3}";
type = Corner;
name = _corner.Serif;
options = 1;
},
{
origin = "{0, 4}";
scale = "{-1, 1}";
type = Corner;
name = _corner.Serif;
},
{
origin = "{2, 0}";
scale = "{0.96, 1}";
type = Corner;
name = _corner.Serif;
},
{
origin = "{2, 1}";
scale = "{-0.96, 1}";
type = Corner;
name = _corner.Serif;
options = 1;
}
);
layerId = "CA54B7DC-FBBB-40FE-ACF3-AABDD76D6A7B";
paths = (
{
closed = 1;
nodes = (
"358 1361 LINE",
"362 1440 LINE",
"312 1440 LINE",
"312 0 LINE",
"358 0 LINE"
);
},
{
closed = 1;
nodes = (
"362 1440 LINE",
"358 1361 LINE",
"1282 0 LINE",
"1286 79 LINE"
);
},
{
closed = 1;
nodes = (
"1332 1440 LINE",
"1286 1440 LINE",
"1286 79 LINE",
"1282 0 LINE",
"1332 0 LINE"
);
}
);
width = 1602;
},
{
hints = (
{
origin = "{0, 2}";
scale = "{-0.96, 1}";
type = Corner;
name = _corner.Serif;
},
{
origin = "{0, 3}";
type = Corner;
name = _corner.Serif;
options = 1;
},
{
origin = "{0, 4}";
scale = "{-1, 1}";
type = Corner;
name = _corner.Serif;
},
{
origin = "{2, 0}";
scale = "{0.96, 1}";
type = Corner;
name = _corner.Serif;
},
{
origin = "{2, 1}";
scale = "{-0.96, 1}";
type = Corner;
name = _corner.Serif;
options = 1;
}
);
layerId = "1E61A082-F045-49A7-AB52-DD1B03FD9B54";
paths = (
{
closed = 1;
nodes = (
"314 1361 LINE",
"318 1440 LINE",
"270 1440 LINE",
"270 0 LINE",
"314 0 LINE"
);
},
{
closed = 1;
nodes = (
"318 1440 LINE",
"314 1361 LINE",
"1242 0 LINE",
"1246 79 LINE"
);
},
{
closed = 1;
nodes = (
"1290 1440 LINE",
"1246 1440 LINE",
"1246 79 LINE",
"1242 0 LINE",
"1290 0 LINE"
);
}
);
width = 1532;
},
{
hints = (
{
origin = "{0, 3}";
type = Corner;
name = _corner.Serif;
},
{
origin = "{0, 4}";
scale = "{-1.1, 1}";
type = Corner;
name = _corner.Serif;
options = 1;
},
{
origin = "{0, 2}";
scale = "{-0.96, 0.98}";
type = Corner;
name = _corner.Serif;
},
{
origin = "{2, 0}";
scale = "{0.96, 0.98}";
type = Corner;
name = _corner.Serif;
},
{
origin = "{2, 1}";
scale = "{-1.06, 0.98}";
type = Corner;
name = _corner.Serif;
options = 1;
}
);
layerId = "642E5713-E15A-4A7E-A28E-9A6B75A6585C";
paths = (
{
closed = 1;
nodes = (
"408 1035 LINE",
"452 1440 LINE",
"240 1440 LINE",
"240 0 LINE",
"408 0 LINE"
);
},
{
closed = 1;
nodes = (
"452 1440 LINE",
"408 1035 LINE",
"1218 0 LINE",
"1219 459 LINE"
);
},
{
closed = 1;
nodes = (
"1387 1440 LINE",
"1219 1440 LINE",
"1219 459 LINE",
"1218 0 LINE",
"1387 0 LINE"
);
}
);
width = 1604;
},
{
hints = (
{
origin = "{0, 2}";
scale = "{-0.96, 0.98}";
type = Corner;
name = _corner.Serif;
},
{
origin = "{0, 3}";
type = Corner;
name = _corner.Serif;
options = 1;
},
{
origin = "{0, 4}";
scale = "{-1, 1}";
type = Corner;
name = _corner.Serif;
},
{
origin = "{2, 0}";
scale = "{0.96, 0.98}";
type = Corner;
name = _corner.Serif;
},
{
origin = "{2, 1}";
scale = "{-0.96, 0.98}";
type = Corner;
name = _corner.Serif;
options = 1;
}
);
layerId = "AF891779-7DE6-4679-9CA2-17B922C1DF84";
paths = (
{
closed = 1;
nodes = (
"458 1036 LINE",
"512 1440 LINE",
"264 1440 LINE",
"264 0 LINE",
"458 0 LINE"
);
},
{
closed = 1;
nodes = (
"512 1440 LINE",
"458 1036 LINE",
"1226 0 LINE",
"1228 474 LINE"
);
},
{
closed = 1;
nodes = (
"1422 1440 LINE",
"1228 1440 LINE",
"1228 474 LINE",
"1226 0 LINE",
"1422 0 LINE"
);
}
);
width = 1654;
}
);
leftKerningGroup = I;
leftMetricsKey = I;
rightKerningGroup = N;
unicode = 004E;
},
{
glyphname = O;
lastChange = "2020-06-16 13:57:38 +0000";
layers = (
{
layerId = "CA54B7DC-FBBB-40FE-ACF3-AABDD76D6A7B";
paths = (
{
closed = 1;
nodes = (
"1278 -20 OFFCURVE",
"1582 252 OFFCURVE",
"1582 720 CURVE SMOOTH",
"1582 1188 OFFCURVE",
"1278 1460 OFFCURVE",
"872 1460 CURVE SMOOTH",
"466 1460 OFFCURVE",
"162 1188 OFFCURVE",
"162 720 CURVE SMOOTH",
"162 252 OFFCURVE",
"466 -20 OFFCURVE",
"872 -20 CURVE SMOOTH"
);
},
{
closed = 1;
nodes = (
"478 20 OFFCURVE",
"210 296 OFFCURVE",
"210 720 CURVE SMOOTH",
"210 1144 OFFCURVE",
"478 1420 OFFCURVE",
"872 1420 CURVE SMOOTH",
"1266 1420 OFFCURVE",
"1534 1144 OFFCURVE",
"1534 720 CURVE SMOOTH",
"1534 296 OFFCURVE",
"1266 20 OFFCURVE",
"872 20 CURVE SMOOTH"
);
}
);
width = 1744;
},
{
layerId = "1E61A082-F045-49A7-AB52-DD1B03FD9B54";
paths = (
{
closed = 1;
nodes = (
"1242 -20 OFFCURVE",
"1546 252 OFFCURVE",
"1546 720 CURVE SMOOTH",
"1546 1188 OFFCURVE",
"1242 1460 OFFCURVE",
"836 1460 CURVE SMOOTH",
"430 1460 OFFCURVE",
"126 1188 OFFCURVE",
"126 720 CURVE SMOOTH",
"126 252 OFFCURVE",
"430 -20 OFFCURVE",
"836 -20 CURVE SMOOTH"
);
},
{
closed = 1;
nodes = (
"442 20 OFFCURVE",
"174 296 OFFCURVE",
"174 720 CURVE SMOOTH",
"174 1144 OFFCURVE",
"442 1420 OFFCURVE",
"836 1420 CURVE SMOOTH",
"1230 1420 OFFCURVE",
"1498 1144 OFFCURVE",
"1498 720 CURVE SMOOTH",
"1498 296 OFFCURVE",
"1230 20 OFFCURVE",
"836 20 CURVE SMOOTH"
);
}
);
width = 1672;
},
{
layerId = "642E5713-E15A-4A7E-A28E-9A6B75A6585C";
paths = (
{
closed = 1;
nodes = (
"1317 -20 OFFCURVE",
"1648 252 OFFCURVE",
"1648 720 CURVE SMOOTH",
"1648 1188 OFFCURVE",
"1317 1460 OFFCURVE",
"862 1460 CURVE SMOOTH",
"407 1460 OFFCURVE",
"76 1188 OFFCURVE",
"76 720 CURVE SMOOTH",
"76 252 OFFCURVE",
"407 -20 OFFCURVE",
"862 -20 CURVE SMOOTH"
);
},
{
closed = 1;
nodes = (
"568 138 OFFCURVE",
"378 367 OFFCURVE",
"378 720 CURVE SMOOTH",
"378 1073 OFFCURVE",
"568 1302 OFFCURVE",
"862 1302 CURVE SMOOTH",
"1156 1302 OFFCURVE",
"1346 1073 OFFCURVE",
"1346 720 CURVE SMOOTH",
"1346 367 OFFCURVE",
"1156 138 OFFCURVE",
"862 138 CURVE SMOOTH"
);
}
);
width = 1724;
},
{
layerId = "AF891779-7DE6-4679-9CA2-17B922C1DF84";
paths = (
{
closed = 1;
nodes = (
"1337 -20 OFFCURVE",
"1670 252 OFFCURVE",
"1670 720 CURVE SMOOTH",
"1670 1188 OFFCURVE",
"1337 1460 OFFCURVE",
"880 1460 CURVE SMOOTH",
"423 1460 OFFCURVE",
"90 1188 OFFCURVE",
"90 720 CURVE SMOOTH",
"90 252 OFFCURVE",
"423 -20 OFFCURVE",
"880 -20 CURVE SMOOTH"
);
},
{
closed = 1;
nodes = (
"587 162 OFFCURVE",
"398 382 OFFCURVE",
"398 720 CURVE SMOOTH",
"398 1058 OFFCURVE",
"587 1278 OFFCURVE",
"880 1278 CURVE SMOOTH",
"1173 1278 OFFCURVE",
"1362 1058 OFFCURVE",
"1362 720 CURVE SMOOTH",
"1362 382 OFFCURVE",
"1173 162 OFFCURVE",
"880 162 CURVE SMOOTH"
);
}
);
width = 1760;
}
);
leftKerningGroup = O;
rightKerningGroup = O;
unicode = 004F;
},
{
glyphname = P;
lastChange = "2020-08-19 11:00:02 +0000";
layers = (
{
hints = (
{
origin = "{1, 0}";
type = Corner;
name = _corner.Serif;
options = 1;
},
{
origin = "{1, 1}";
scale = "{-1.2, 1}";
type = Corner;
name = _corner.Serif;
},
{
origin = "{1, 3}";
scale = "{-0.96, 1}";
type = Corner;
name = _corner.Serif;
}
);
layerId = "CA54B7DC-FBBB-40FE-ACF3-AABDD76D6A7B";
paths = (
{
closed = 1;
nodes = (
"360 1400 LINE",
"830 1400 LINE SMOOTH",
"1090 1400 OFFCURVE",
"1254 1284 OFFCURVE",
"1254 1056 CURVE SMOOTH",
"1254 828 OFFCURVE",
"1090 712 OFFCURVE",
"830 712 CURVE SMOOTH",
"360 712 LINE",
"360 672 LINE",
"842 672 LINE SMOOTH",
"1118 672 OFFCURVE",
"1302 802 OFFCURVE",
"1302 1056 CURVE SMOOTH",
"1302 1310 OFFCURVE",
"1118 1440 OFFCURVE",
"842 1440 CURVE SMOOTH",
"360 1440 LINE"
);
},
{
closed = 1;
nodes = (
"312 0 LINE",
"360 0 LINE",
"360 1440 LINE",
"312 1440 LINE"
);
}
);
width = 1382;
},
{
hints = (
{
origin = "{1, 0}";
type = Corner;
name = _corner.Serif;
options = 1;
},
{
origin = "{1, 1}";
scale = "{-1.4, 1}";
type = Corner;
name = _corner.Serif;
},
{
origin = "{1, 3}";
scale = "{-0.96, 1}";
type = Corner;
name = _corner.Serif;
}
);
layerId = "1E61A082-F045-49A7-AB52-DD1B03FD9B54";
paths = (
{
closed = 1;
nodes = (
"318 1400 LINE",
"788 1400 LINE SMOOTH",
"1048 1400 OFFCURVE",
"1212 1284 OFFCURVE",
"1212 1056 CURVE SMOOTH",
"1212 828 OFFCURVE",
"1048 712 OFFCURVE",
"788 712 CURVE SMOOTH",
"318 712 LINE",
"318 672 LINE",
"800 672 LINE SMOOTH",
"1076 672 OFFCURVE",
"1260 802 OFFCURVE",
"1260 1056 CURVE SMOOTH",
"1260 1310 OFFCURVE",
"1076 1440 OFFCURVE",
"800 1440 CURVE SMOOTH",
"318 1440 LINE"
);
},
{
closed = 1;
nodes = (
"270 0 LINE",
"318 0 LINE",
"318 1440 LINE",
"270 1440 LINE"
);
}
);
width = 1318;
},
{
hints = (
{
origin = "{1, 0}";
type = Corner;
name = _corner.Serif;
options = 1;
},
{
origin = "{1, 1}";
scale = "{-1.4, 1}";
type = Corner;
name = _corner.Serif;
},
{
origin = "{1, 3}";
scale = "{-0.96, 0.98}";
type = Corner;
name = _corner.Serif;
}
);
layerId = "642E5713-E15A-4A7E-A28E-9A6B75A6585C";
paths = (
{
closed = 1;
nodes = (
"530 1284 LINE",
"820 1284 LINE SMOOTH",
"994 1284 OFFCURVE",
"1102 1199 OFFCURVE",
"1102 1032 CURVE SMOOTH",
"1102 865 OFFCURVE",
"994 780 OFFCURVE",
"820 780 CURVE SMOOTH",
"530 780 LINE",
"530 624 LINE",
"896 624 LINE SMOOTH",
"1199 624 OFFCURVE",
"1400 762 OFFCURVE",
"1400 1032 CURVE SMOOTH",
"1400 1302 OFFCURVE",
"1199 1440 OFFCURVE",
"896 1440 CURVE SMOOTH",
"530 1440 LINE"
);
},
{
closed = 1;
nodes = (
"240 0 LINE",
"530 0 LINE",
"530 1440 LINE",
"240 1440 LINE"
);
}
);
width = 1420;
},
{
hints = (
{
origin = "{1, 0}";
type = Corner;
name = _corner.Serif;
options = 1;
},
{
origin = "{1, 1}";
scale = "{-1.2, 1}";
type = Corner;
name = _corner.Serif;
},
{
origin = "{1, 3}";
scale = "{-0.96, 0.98}";
type = Corner;
name = _corner.Serif;
}
);
layerId = "AF891779-7DE6-4679-9CA2-17B922C1DF84";
paths = (
{
closed = 1;
nodes = (
"554 1260 LINE",
"858 1260 LINE SMOOTH",
"1023 1260 OFFCURVE",
"1126 1180 OFFCURVE",
"1126 1026 CURVE SMOOTH",
"1126 872 OFFCURVE",
"1023 792 OFFCURVE",
"858 792 CURVE SMOOTH",
"554 792 LINE",
"554 612 LINE",
"914 612 LINE SMOOTH",
"1220 612 OFFCURVE",
"1424 752 OFFCURVE",
"1424 1026 CURVE SMOOTH",
"1424 1300 OFFCURVE",
"1220 1440 OFFCURVE",
"914 1440 CURVE SMOOTH",
"554 1440 LINE"
);
},
{
closed = 1;
nodes = (
"264 0 LINE",
"554 0 LINE",
"554 1440 LINE",
"264 1440 LINE"
);
}
);
width = 1444;
}
);
leftKerningGroup = I;
leftMetricsKey = I;
rightKerningGroup = P;
unicode = 0050;
},
{
glyphname = Q;
lastChange = "2020-06-27 07:19:54 +0000";
layers = (
{
layerId = "CA54B7DC-FBBB-40FE-ACF3-AABDD76D6A7B";
paths = (
{
closed = 1;
nodes = (
"1118 0 LINE",
"1118 196 LINE SMOOTH",
"1118 345 OFFCURVE",
"1040 420 OFFCURVE",
"926 420 CURVE SMOOTH",
"812 420 OFFCURVE",
"730 345 OFFCURVE",
"730 196 CURVE SMOOTH",
"730 0 LINE",
"774 0 LINE",
"774 196 LINE SMOOTH",
"774 319 OFFCURVE",
"828 380 OFFCURVE",
"924 380 CURVE SMOOTH",
"1020 380 OFFCURVE",
"1074 319 OFFCURVE",
"1074 196 CURVE SMOOTH",
"1074 0 LINE"
);
},
{
closed = 1;
nodes = (
"1418 -116 LINE SMOOTH",
"1418 -239 OFFCURVE",
"1364 -300 OFFCURVE",
"1268 -300 CURVE SMOOTH",
"1172 -300 OFFCURVE",
"1118 -239 OFFCURVE",
"1118 -116 CURVE SMOOTH",
"1118 0 LINE",
"1074 0 LINE",
"1074 -116 LINE SMOOTH",
"1074 -265 OFFCURVE",
"1156 -340 OFFCURVE",
"1270 -340 CURVE SMOOTH",
"1384 -340 OFFCURVE",
"1462 -265 OFFCURVE",
"1462 -116 CURVE SMOOTH",
"1462 0 LINE",
"1418 0 LINE"
);
},
{
closed = 1;
nodes = (
"1278 -20 OFFCURVE",
"1582 252 OFFCURVE",
"1582 720 CURVE SMOOTH",
"1582 1188 OFFCURVE",
"1278 1460 OFFCURVE",
"872 1460 CURVE SMOOTH",
"466 1460 OFFCURVE",
"162 1188 OFFCURVE",
"162 720 CURVE SMOOTH",
"162 252 OFFCURVE",
"466 -20 OFFCURVE",
"872 -20 CURVE SMOOTH"
);
},
{
closed = 1;
nodes = (
"478 20 OFFCURVE",
"210 296 OFFCURVE",
"210 720 CURVE SMOOTH",
"210 1144 OFFCURVE",
"478 1420 OFFCURVE",
"872 1420 CURVE SMOOTH",
"1266 1420 OFFCURVE",
"1534 1144 OFFCURVE",
"1534 720 CURVE SMOOTH",
"1534 296 OFFCURVE",
"1266 20 OFFCURVE",
"872 20 CURVE SMOOTH"
);
}
);
width = 1744;
},
{
layerId = "1E61A082-F045-49A7-AB52-DD1B03FD9B54";
paths = (
{
closed = 1;
nodes = (
"1082 0 LINE",
"1082 196 LINE SMOOTH",
"1082 345 OFFCURVE",
"1004 420 OFFCURVE",
"890 420 CURVE SMOOTH",
"776 420 OFFCURVE",
"694 345 OFFCURVE",
"694 196 CURVE SMOOTH",
"694 0 LINE",
"738 0 LINE",
"738 196 LINE SMOOTH",
"738 319 OFFCURVE",
"792 380 OFFCURVE",
"888 380 CURVE SMOOTH",
"984 380 OFFCURVE",
"1038 319 OFFCURVE",
"1038 196 CURVE SMOOTH",
"1038 0 LINE"
);
},
{
closed = 1;
nodes = (
"1382 -116 LINE SMOOTH",
"1382 -239 OFFCURVE",
"1328 -300 OFFCURVE",
"1232 -300 CURVE SMOOTH",
"1136 -300 OFFCURVE",
"1082 -239 OFFCURVE",
"1082 -116 CURVE SMOOTH",
"1082 0 LINE",
"1038 0 LINE",
"1038 -116 LINE SMOOTH",
"1038 -265 OFFCURVE",
"1120 -340 OFFCURVE",
"1234 -340 CURVE SMOOTH",
"1348 -340 OFFCURVE",
"1426 -265 OFFCURVE",
"1426 -116 CURVE SMOOTH",
"1426 0 LINE",
"1382 0 LINE"
);
},
{
closed = 1;
nodes = (
"1242 -20 OFFCURVE",
"1546 252 OFFCURVE",
"1546 720 CURVE SMOOTH",
"1546 1188 OFFCURVE",
"1242 1460 OFFCURVE",
"836 1460 CURVE SMOOTH",
"430 1460 OFFCURVE",
"126 1188 OFFCURVE",
"126 720 CURVE SMOOTH",
"126 252 OFFCURVE",
"430 -20 OFFCURVE",
"836 -20 CURVE SMOOTH"
);
},
{
closed = 1;
nodes = (
"442 20 OFFCURVE",
"174 296 OFFCURVE",
"174 720 CURVE SMOOTH",
"174 1144 OFFCURVE",
"442 1420 OFFCURVE",
"836 1420 CURVE SMOOTH",
"1230 1420 OFFCURVE",
"1498 1144 OFFCURVE",
"1498 720 CURVE SMOOTH",
"1498 296 OFFCURVE",
"1230 20 OFFCURVE",
"836 20 CURVE SMOOTH"
);
}
);
width = 1672;
},
{
layerId = "642E5713-E15A-4A7E-A28E-9A6B75A6585C";
paths = (
{
closed = 1;
nodes = (
"1160 0 LINE",
"1160 282 LINE SMOOTH",
"1160 466 OFFCURVE",
"1049 560 OFFCURVE",
"895 560 CURVE SMOOTH",
"741 560 OFFCURVE",
"630 466 OFFCURVE",
"630 282 CURVE SMOOTH",
"630 44 LINE",
"800 44 LINE",
"800 310 LINE SMOOTH",
"800 356 OFFCURVE",
"823 382 OFFCURVE",
"862 382 CURVE SMOOTH",
"901 382 OFFCURVE",
"924 356 OFFCURVE",
"924 310 CURVE SMOOTH",
"924 0 LINE"
);
},
{
closed = 1;
nodes = (
"1284 -84 LINE SMOOTH",
"1284 -130 OFFCURVE",
"1261 -156 OFFCURVE",
"1222 -156 CURVE SMOOTH",
"1183 -156 OFFCURVE",
"1160 -130 OFFCURVE",
"1160 -84 CURVE SMOOTH",
"1160 0 LINE",
"924 0 LINE",
"924 -52 LINE SMOOTH",
"924 -236 OFFCURVE",
"1033 -330 OFFCURVE",
"1187 -330 CURVE SMOOTH",
"1341 -330 OFFCURVE",
"1450 -236 OFFCURVE",
"1450 -52 CURVE SMOOTH",
"1450 0 LINE",
"1284 0 LINE"
);
},
{
closed = 1;
nodes = (
"1317 -20 OFFCURVE",
"1648 252 OFFCURVE",
"1648 720 CURVE SMOOTH",
"1648 1188 OFFCURVE",
"1317 1460 OFFCURVE",
"862 1460 CURVE SMOOTH",
"407 1460 OFFCURVE",
"76 1188 OFFCURVE",
"76 720 CURVE SMOOTH",
"76 252 OFFCURVE",
"407 -20 OFFCURVE",
"862 -20 CURVE SMOOTH"
);
},
{
closed = 1;
nodes = (
"568 138 OFFCURVE",
"378 367 OFFCURVE",
"378 720 CURVE SMOOTH",
"378 1073 OFFCURVE",
"568 1302 OFFCURVE",
"862 1302 CURVE SMOOTH",
"1156 1302 OFFCURVE",
"1346 1073 OFFCURVE",
"1346 720 CURVE SMOOTH",
"1346 367 OFFCURVE",
"1156 138 OFFCURVE",
"862 138 CURVE SMOOTH"
);
}
);
width = 1724;
},
{
layerId = "AF891779-7DE6-4679-9CA2-17B922C1DF84";
paths = (
{
closed = 1;
nodes = (
"1178 0 LINE",
"1178 272 LINE SMOOTH",
"1178 456 OFFCURVE",
"1065 550 OFFCURVE",
"907 550 CURVE SMOOTH",
"749 550 OFFCURVE",
"636 456 OFFCURVE",
"636 272 CURVE SMOOTH",
"636 44 LINE",
"822 44 LINE",
"822 294 LINE SMOOTH",
"822 339 OFFCURVE",
"844 364 OFFCURVE",
"882 364 CURVE SMOOTH",
"920 364 OFFCURVE",
"942 339 OFFCURVE",
"942 294 CURVE SMOOTH",
"942 0 LINE"
);
},
{
closed = 1;
nodes = (
"1298 -78 LINE SMOOTH",
"1298 -123 OFFCURVE",
"1276 -148 OFFCURVE",
"1238 -148 CURVE SMOOTH",
"1200 -148 OFFCURVE",
"1178 -123 OFFCURVE",
"1178 -78 CURVE SMOOTH",
"1178 0 LINE",
"942 0 LINE",
"942 -52 LINE SMOOTH",
"942 -236 OFFCURVE",
"1053 -330 OFFCURVE",
"1211 -330 CURVE SMOOTH",
"1369 -330 OFFCURVE",
"1480 -236 OFFCURVE",
"1480 -52 CURVE SMOOTH",
"1480 0 LINE",
"1298 0 LINE"
);
},
{
closed = 1;
nodes = (
"1337 -20 OFFCURVE",
"1670 252 OFFCURVE",
"1670 720 CURVE SMOOTH",
"1670 1188 OFFCURVE",
"1337 1460 OFFCURVE",
"880 1460 CURVE SMOOTH",
"423 1460 OFFCURVE",
"90 1188 OFFCURVE",
"90 720 CURVE SMOOTH",
"90 252 OFFCURVE",
"423 -20 OFFCURVE",
"880 -20 CURVE SMOOTH"
);
},
{
closed = 1;
nodes = (
"587 162 OFFCURVE",
"398 382 OFFCURVE",
"398 720 CURVE SMOOTH",
"398 1058 OFFCURVE",
"587 1278 OFFCURVE",
"880 1278 CURVE SMOOTH",
"1173 1278 OFFCURVE",
"1362 1058 OFFCURVE",
"1362 720 CURVE SMOOTH",
"1362 382 OFFCURVE",
"1173 162 OFFCURVE",
"880 162 CURVE SMOOTH"
);
}
);
width = 1760;
}
);
leftKerningGroup = O;
leftMetricsKey = O;
rightKerningGroup = O;
rightMetricsKey = O;
unicode = 0051;
},
{
glyphname = R;
lastChange = "2020-08-19 11:00:02 +0000";
layers = (
{
hints = (
{
origin = "{2, 0}";
type = Corner;
name = _corner.Serif;
options = 1;
},
{
origin = "{2, 1}";
scale = "{-1.2, 1}";
type = Corner;
name = _corner.Serif;
},
{
origin = "{2, 3}";
scale = "{-0.96, 1}";
type = Corner;
name = _corner.Serif;
}
);
layerId = "CA54B7DC-FBBB-40FE-ACF3-AABDD76D6A7B";
paths = (
{
closed = 1;
nodes = (
"360 1400 LINE",
"860 1400 LINE SMOOTH",
"1120 1400 OFFCURVE",
"1284 1290 OFFCURVE",
"1284 1072 CURVE SMOOTH",
"1284 854 OFFCURVE",
"1120 744 OFFCURVE",
"860 744 CURVE SMOOTH",
"360 744 LINE",
"360 704 LINE",
"826 704 LINE",
"849 704 LINE",
"872 704 LINE SMOOTH",
"1144 704 OFFCURVE",
"1332 828 OFFCURVE",
"1332 1072 CURVE SMOOTH",
"1332 1316 OFFCURVE",
"1144 1440 OFFCURVE",
"872 1440 CURVE SMOOTH",
"360 1440 LINE"
);
},
{
closed = 1;
nodes = (
"360 704 LINE",
"790 704 LINE SMOOTH",
"952 704 OFFCURVE",
"1042 608 OFFCURVE",
"1042 436 CURVE SMOOTH",
"1042 172 LINE SMOOTH",
"1042 55 OFFCURVE",
"1095 -20 OFFCURVE",
"1210 -20 CURVE SMOOTH",
"1325 -20 OFFCURVE",
"1378 55 OFFCURVE",
"1378 172 CURVE SMOOTH",
"1378 280 LINE",
"1334 280 LINE",
"1334 172 LINE SMOOTH",
"1334 87 OFFCURVE",
"1300 20 OFFCURVE",
"1212 20 CURVE SMOOTH",
"1124 20 OFFCURVE",
"1090 87 OFFCURVE",
"1090 172 CURVE SMOOTH",
"1090 428 LINE SMOOTH",
"1090 622 OFFCURVE",
"1000 730 OFFCURVE",
"808 730 CURVE SMOOTH",
"360 730 LINE"
);
},
{
closed = 1;
nodes = (
"312 0 LINE",
"360 0 LINE",
"360 1440 LINE",
"312 1440 LINE"
);
}
);
width = 1464;
},
{
hints = (
{
origin = "{2, 0}";
type = Corner;
name = _corner.Serif;
options = 1;
},
{
origin = "{2, 1}";
scale = "{-1.4, 1}";
type = Corner;
name = _corner.Serif;
},
{
origin = "{2, 3}";
scale = "{-0.96, 1}";
type = Corner;
name = _corner.Serif;
}
);
layerId = "1E61A082-F045-49A7-AB52-DD1B03FD9B54";
paths = (
{
closed = 1;
nodes = (
"318 1400 LINE",
"818 1400 LINE SMOOTH",
"1078 1400 OFFCURVE",
"1242 1290 OFFCURVE",
"1242 1072 CURVE SMOOTH",
"1242 854 OFFCURVE",
"1078 744 OFFCURVE",
"818 744 CURVE SMOOTH",
"318 744 LINE",
"318 704 LINE",
"784 704 LINE",
"806 704 LINE",
"830 704 LINE SMOOTH",
"1102 704 OFFCURVE",
"1290 828 OFFCURVE",
"1290 1072 CURVE SMOOTH",
"1290 1316 OFFCURVE",
"1102 1440 OFFCURVE",
"830 1440 CURVE SMOOTH",
"318 1440 LINE"
);
},
{
closed = 1;
nodes = (
"318 704 LINE",
"694 704 LINE SMOOTH",
"856 704 OFFCURVE",
"946 608 OFFCURVE",
"946 436 CURVE SMOOTH",
"946 180 LINE SMOOTH",
"946 58 OFFCURVE",
"1002 -20 OFFCURVE",
"1122 -20 CURVE SMOOTH",
"1242 -20 OFFCURVE",
"1298 58 OFFCURVE",
"1298 180 CURVE SMOOTH",
"1298 560 LINE",
"1254 560 LINE",
"1254 180 LINE SMOOTH",
"1254 90 OFFCURVE",
"1218 20 OFFCURVE",
"1124 20 CURVE SMOOTH",
"1030 20 OFFCURVE",
"994 90 OFFCURVE",
"994 180 CURVE SMOOTH",
"994 428 LINE SMOOTH",
"994 622 OFFCURVE",
"904 730 OFFCURVE",
"712 730 CURVE SMOOTH",
"318 730 LINE"
);
},
{
closed = 1;
nodes = (
"270 0 LINE",
"318 0 LINE",
"318 1440 LINE",
"270 1440 LINE"
);
}
);
width = 1396;
},
{
hints = (
{
origin = "{2, 0}";
type = Corner;
name = _corner.Serif;
options = 1;
},
{
origin = "{2, 1}";
scale = "{-1.4, 1}";
type = Corner;
name = _corner.Serif;
},
{
origin = "{2, 3}";
scale = "{-0.96, 0.98}";
type = Corner;
name = _corner.Serif;
}
);
layerId = "642E5713-E15A-4A7E-A28E-9A6B75A6585C";
paths = (
{
closed = 1;
nodes = (
"530 1284 LINE",
"862 1284 LINE SMOOTH",
"1030 1284 OFFCURVE",
"1134 1202 OFFCURVE",
"1134 1042 CURVE SMOOTH",
"1134 882 OFFCURVE",
"1030 800 OFFCURVE",
"862 800 CURVE SMOOTH",
"530 800 LINE",
"530 644 LINE",
"787 644 LINE",
"787 660 LINE",
"928 660 LINE SMOOTH",
"1231 660 OFFCURVE",
"1432 792 OFFCURVE",
"1432 1050 CURVE SMOOTH",
"1432 1308 OFFCURVE",
"1235 1440 OFFCURVE",
"938 1440 CURVE SMOOTH",
"530 1440 LINE"
);
},
{
closed = 1;
nodes = (
"530 644 LINE",
"626 644 LINE SMOOTH",
"749 644 OFFCURVE",
"818 576 OFFCURVE",
"818 456 CURVE SMOOTH",
"818 282 LINE SMOOTH",
"818 99 OFFCURVE",
"916 -20 OFFCURVE",
"1128 -20 CURVE SMOOTH",
"1327 -20 OFFCURVE",
"1418 91 OFFCURVE",
"1418 262 CURVE SMOOTH",
"1418 580 LINE",
"1244 580 LINE",
"1244 242 LINE SMOOTH",
"1244 191 OFFCURVE",
"1226 156 OFFCURVE",
"1176 156 CURVE SMOOTH",
"1126 156 OFFCURVE",
"1108 191 OFFCURVE",
"1108 242 CURVE SMOOTH",
"1108 380 LINE SMOOTH",
"1108 565 OFFCURVE",
"1015 668 OFFCURVE",
"796 668 CURVE SMOOTH",
"530 668 LINE"
);
},
{
closed = 1;
nodes = (
"240 0 LINE",
"530 0 LINE",
"530 1440 LINE",
"240 1440 LINE"
);
}
);
width = 1506;
},
{
hints = (
{
origin = "{2, 0}";
type = Corner;
name = _corner.Serif;
options = 1;
},
{
origin = "{2, 1}";
scale = "{-1.2, 1}";
type = Corner;
name = _corner.Serif;
},
{
origin = "{2, 3}";
scale = "{-0.96, 0.98}";
type = Corner;
name = _corner.Serif;
}
);
layerId = "AF891779-7DE6-4679-9CA2-17B922C1DF84";
paths = (
{
closed = 1;
nodes = (
"554 1260 LINE",
"900 1260 LINE SMOOTH",
"1059 1260 OFFCURVE",
"1158 1184 OFFCURVE",
"1158 1038 CURVE SMOOTH",
"1158 892 OFFCURVE",
"1059 816 OFFCURVE",
"900 816 CURVE SMOOTH",
"554 816 LINE",
"554 636 LINE",
"810 636 LINE",
"850 654 LINE",
"956 654 LINE SMOOTH",
"1256 654 OFFCURVE",
"1456 788 OFFCURVE",
"1456 1048 CURVE SMOOTH",
"1456 1307 OFFCURVE",
"1256 1440 OFFCURVE",
"956 1440 CURVE SMOOTH",
"554 1440 LINE"
);
},
{
closed = 1;
nodes = (
"554 636 LINE",
"702 636 LINE SMOOTH",
"817 636 OFFCURVE",
"882 572 OFFCURVE",
"882 460 CURVE SMOOTH",
"882 280 LINE SMOOTH",
"882 97 OFFCURVE",
"986 -20 OFFCURVE",
"1200 -20 CURVE SMOOTH",
"1400 -20 OFFCURVE",
"1494 89 OFFCURVE",
"1494 260 CURVE SMOOTH",
"1494 324 LINE",
"1302 324 LINE",
"1302 236 LINE SMOOTH",
"1302 191 OFFCURVE",
"1284 160 OFFCURVE",
"1237 160 CURVE SMOOTH",
"1190 160 OFFCURVE",
"1172 191 OFFCURVE",
"1172 236 CURVE SMOOTH",
"1172 386 LINE SMOOTH",
"1172 580 OFFCURVE",
"1073 688 OFFCURVE",
"840 688 CURVE SMOOTH",
"554 688 LINE"
);
},
{
closed = 1;
nodes = (
"264 0 LINE",
"554 0 LINE",
"554 1440 LINE",
"264 1440 LINE"
);
}
);
width = 1556;
}
);
leftKerningGroup = I;
leftMetricsKey = I;
rightKerningGroup = R;
unicode = 0052;
},
{
glyphname = S;
lastChange = "2020-06-16 14:27:55 +0000";
layers = (
{
layerId = "CA54B7DC-FBBB-40FE-ACF3-AABDD76D6A7B";
paths = (
{
closed = 1;
nodes = (
"196 839 OFFCURVE",
"397 765 OFFCURVE",
"624 732 CURVE SMOOTH",
"832 702 LINE SMOOTH",
"1057 669 OFFCURVE",
"1240 598 OFFCURVE",
"1240 366 CURVE SMOOTH",
"1240 150 OFFCURVE",
"1076 24 OFFCURVE",
"812 24 CURVE SMOOTH",
"548 24 OFFCURVE",
"332 148 OFFCURVE",
"228 420 CURVE",
"188 420 LINE",
"282 114 OFFCURVE",
"528 -16 OFFCURVE",
"812 -16 CURVE SMOOTH",
"1096 -16 OFFCURVE",
"1288 114 OFFCURVE",
"1288 366 CURVE SMOOTH",
"1288 625 OFFCURVE",
"1093 709 OFFCURVE",
"840 746 CURVE SMOOTH",
"632 776 LINE SMOOTH",
"419 807 OFFCURVE",
"244 875 OFFCURVE",
"244 1094 CURVE SMOOTH",
"244 1302 OFFCURVE",
"406 1416 OFFCURVE",
"662 1416 CURVE SMOOTH",
"918 1416 OFFCURVE",
"1118 1304 OFFCURVE",
"1212 1040 CURVE",
"1252 1040 LINE",
"1172 1340 OFFCURVE",
"934 1456 OFFCURVE",
"662 1456 CURVE SMOOTH",
"390 1456 OFFCURVE",
"196 1338 OFFCURVE",
"196 1094 CURVE SMOOTH"
);
},
{
closed = 1;
nodes = (
"1212 1440 LINE",
"1212 1114 LINE",
"1252 1040 LINE",
"1256 1040 LINE",
"1256 1440 LINE"
);
},
{
closed = 1;
nodes = (
"228 0 LINE",
"228 342 LINE",
"188 420 LINE",
"184 420 LINE",
"184 0 LINE"
);
}
);
width = 1460;
},
{
layerId = "1E61A082-F045-49A7-AB52-DD1B03FD9B54";
paths = (
{
closed = 1;
nodes = (
"168 854 OFFCURVE",
"354 780 OFFCURVE",
"596 736 CURVE SMOOTH",
"804 698 LINE SMOOTH",
"1029 657 OFFCURVE",
"1212 590 OFFCURVE",
"1212 360 CURVE SMOOTH",
"1212 144 OFFCURVE",
"1058 24 OFFCURVE",
"794 24 CURVE SMOOTH",
"530 24 OFFCURVE",
"304 180 OFFCURVE",
"200 520 CURVE",
"160 520 LINE",
"254 144 OFFCURVE",
"510 -16 OFFCURVE",
"794 -16 CURVE SMOOTH",
"1078 -16 OFFCURVE",
"1260 108 OFFCURVE",
"1260 360 CURVE SMOOTH",
"1260 614 OFFCURVE",
"1070 695 OFFCURVE",
"812 742 CURVE SMOOTH",
"604 780 LINE SMOOTH",
"381 821 OFFCURVE",
"216 886 OFFCURVE",
"216 1100 CURVE SMOOTH",
"216 1308 OFFCURVE",
"368 1416 OFFCURVE",
"624 1416 CURVE SMOOTH",
"880 1416 OFFCURVE",
"1090 1273 OFFCURVE",
"1184 940 CURVE",
"1224 940 LINE",
"1144 1311 OFFCURVE",
"896 1456 OFFCURVE",
"624 1456 CURVE SMOOTH",
"352 1456 OFFCURVE",
"168 1344 OFFCURVE",
"168 1100 CURVE SMOOTH"
);
},
{
closed = 1;
nodes = (
"1184 1440 LINE",
"1184 1014 LINE",
"1224 940 LINE",
"1228 940 LINE",
"1228 1440 LINE"
);
},
{
closed = 1;
nodes = (
"200 0 LINE",
"200 442 LINE",
"160 520 LINE",
"156 520 LINE",
"156 0 LINE"
);
}
);
width = 1404;
},
{
layerId = "642E5713-E15A-4A7E-A28E-9A6B75A6585C";
paths = (
{
closed = 1;
nodes = (
"118 764 OFFCURVE",
"337 653 OFFCURVE",
"637 605 CURVE SMOOTH",
"801 579 LINE SMOOTH",
"956 554 OFFCURVE",
"1082 502 OFFCURVE",
"1082 360 CURVE SMOOTH",
"1082 218 OFFCURVE",
"980 140 OFFCURVE",
"803 140 CURVE SMOOTH",
"571 140 OFFCURVE",
"376 274 OFFCURVE",
"290 530 CURVE",
"161 530 LINE",
"250 135 OFFCURVE",
"503 -20 OFFCURVE",
"813 -20 CURVE SMOOTH",
"1123 -20 OFFCURVE",
"1330 130 OFFCURVE",
"1330 424 CURVE SMOOTH",
"1330 710 OFFCURVE",
"1099 815 OFFCURVE",
"789 864 CURVE SMOOTH",
"625 890 LINE SMOOTH",
"476 914 OFFCURVE",
"364 970 OFFCURVE",
"364 1100 CURVE SMOOTH",
"364 1231 OFFCURVE",
"464 1300 OFFCURVE",
"637 1300 CURVE SMOOTH",
"848 1300 OFFCURVE",
"1033 1178 OFFCURVE",
"1113 940 CURVE",
"1242 940 LINE",
"1154 1314 OFFCURVE",
"915 1460 OFFCURVE",
"627 1460 CURVE SMOOTH",
"339 1460 OFFCURVE",
"118 1331 OFFCURVE",
"118 1050 CURVE SMOOTH"
);
},
{
closed = 1;
nodes = (
"1124 1440 LINE",
"1124 1014 LINE",
"1242 940 LINE",
"1286 940 LINE",
"1286 1440 LINE"
);
},
{
closed = 1;
nodes = (
"278 0 LINE",
"278 442 LINE",
"161 530 LINE",
"116 530 LINE",
"116 0 LINE"
);
}
);
width = 1424;
},
{
layerId = "AF891779-7DE6-4679-9CA2-17B922C1DF84";
paths = (
{
closed = 1;
nodes = (
"138 764 OFFCURVE",
"356 646 OFFCURVE",
"657 604 CURVE SMOOTH",
"821 581 LINE SMOOTH",
"968 560 OFFCURVE",
"1086 510 OFFCURVE",
"1086 378 CURVE SMOOTH",
"1086 247 OFFCURVE",
"984 162 OFFCURVE",
"803 162 CURVE SMOOTH",
"599 162 OFFCURVE",
"418 277 OFFCURVE",
"334 440 CURVE",
"167 440 LINE",
"276 107 OFFCURVE",
"531 -20 OFFCURVE",
"839 -20 CURVE SMOOTH",
"1147 -20 OFFCURVE",
"1350 134 OFFCURVE",
"1350 428 CURVE SMOOTH",
"1350 714 OFFCURVE",
"1120 821 OFFCURVE",
"809 865 CURVE SMOOTH",
"645 888 LINE SMOOTH",
"504 908 OFFCURVE",
"400 966 OFFCURVE",
"400 1086 CURVE SMOOTH",
"400 1206 OFFCURVE",
"506 1278 OFFCURVE",
"673 1278 CURVE SMOOTH",
"863 1278 OFFCURVE",
"1023 1189 OFFCURVE",
"1109 1030 CURVE",
"1286 1030 LINE",
"1173 1324 OFFCURVE",
"937 1460 OFFCURVE",
"649 1460 CURVE SMOOTH",
"361 1460 OFFCURVE",
"138 1329 OFFCURVE",
"138 1048 CURVE SMOOTH"
);
},
{
closed = 1;
nodes = (
"1116 1440 LINE",
"1116 1194 LINE",
"1286 1030 LINE",
"1302 1030 LINE",
"1302 1440 LINE"
);
},
{
closed = 1;
nodes = (
"326 0 LINE",
"326 262 LINE",
"167 440 LINE",
"140 440 LINE",
"140 0 LINE"
);
}
);
width = 1464;
}
);
leftKerningGroup = S;
rightKerningGroup = S;
unicode = 0053;
},
{
glyphname = T;
lastChange = "2020-08-19 10:35:43 +0000";
layers = (
{
hints = (
{
origin = "{0, 2}";
scale = "{1.2, 1}";
type = Corner;
name = _corner.Serif;
},
{
origin = "{0, 3}";
scale = "{-1.2, 1}";
type = Corner;
name = _corner.Serif;
options = 1;
}
);
layerId = "CA54B7DC-FBBB-40FE-ACF3-AABDD76D6A7B";
paths = (
{
closed = 1;
nodes = (
"758 1440 LINE",
"710 1440 LINE",
"710 0 LINE",
"758 0 LINE"
);
},
{
closed = 1;
nodes = (
"1378 1440 LINE",
"90 1440 LINE",
"90 1400 LINE",
"1378 1400 LINE"
);
},
{
closed = 1;
nodes = (
"1326 1400 OFFCURVE",
"1334 1372 OFFCURVE",
"1334 1260 CURVE SMOOTH",
"1334 1000 LINE",
"1378 1000 LINE",
"1378 1400 LINE",
"1214 1400 LINE"
);
},
{
closed = 1;
nodes = (
"90 1400 LINE",
"90 1000 LINE",
"134 1000 LINE",
"134 1260 LINE SMOOTH",
"134 1372 OFFCURVE",
"142 1400 OFFCURVE",
"254 1400 CURVE"
);
}
);
width = 1468;
},
{
hints = (
{
origin = "{0, 2}";
scale = "{1.4, 1}";
type = Corner;
name = _corner.Serif;
},
{
origin = "{0, 3}";
scale = "{-1.4, 1}";
type = Corner;
name = _corner.Serif;
options = 1;
}
);
layerId = "1E61A082-F045-49A7-AB52-DD1B03FD9B54";
paths = (
{
closed = 1;
nodes = (
"740 1440 LINE",
"692 1440 LINE",
"692 0 LINE",
"740 0 LINE"
);
},
{
closed = 1;
nodes = (
"1360 1440 LINE",
"72 1440 LINE",
"72 1400 LINE",
"1360 1400 LINE"
);
},
{
closed = 1;
nodes = (
"1308 1400 OFFCURVE",
"1316 1372 OFFCURVE",
"1316 1260 CURVE SMOOTH",
"1316 900 LINE",
"1360 900 LINE",
"1360 1400 LINE",
"1196 1400 LINE"
);
},
{
closed = 1;
nodes = (
"72 1400 LINE",
"72 900 LINE",
"116 900 LINE",
"116 1260 LINE SMOOTH",
"116 1372 OFFCURVE",
"124 1400 OFFCURVE",
"236 1400 CURVE"
);
}
);
width = 1432;
},
{
hints = (
{
origin = "{0, 2}";
scale = "{1.4, 1}";
type = Corner;
name = _corner.Serif;
},
{
origin = "{0, 3}";
scale = "{-1.4, 1}";
type = Corner;
name = _corner.Serif;
options = 1;
}
);
layerId = "642E5713-E15A-4A7E-A28E-9A6B75A6585C";
paths = (
{
closed = 1;
nodes = (
"880 1440 LINE",
"590 1440 LINE",
"590 0 LINE",
"880 0 LINE"
);
},
{
closed = 1;
nodes = (
"1426 1440 LINE",
"44 1440 LINE",
"44 1286 LINE",
"1426 1286 LINE"
);
},
{
closed = 1;
nodes = (
"1228 1286 OFFCURVE",
"1256 1238 OFFCURVE",
"1256 1106 CURVE SMOOTH",
"1256 902 LINE",
"1426 902 LINE",
"1426 1286 LINE",
"1096 1286 LINE"
);
},
{
closed = 1;
nodes = (
"44 1286 LINE",
"44 902 LINE",
"216 902 LINE",
"216 1106 LINE SMOOTH",
"216 1238 OFFCURVE",
"244 1286 OFFCURVE",
"376 1286 CURVE"
);
}
);
width = 1470;
},
{
hints = (
{
origin = "{0, 2}";
scale = "{1.2, 1}";
type = Corner;
name = _corner.Serif;
},
{
origin = "{0, 3}";
scale = "{-1.2, 1}";
type = Corner;
name = _corner.Serif;
options = 1;
}
);
layerId = "AF891779-7DE6-4679-9CA2-17B922C1DF84";
paths = (
{
closed = 1;
nodes = (
"904 1440 LINE",
"614 1440 LINE",
"614 0 LINE",
"904 0 LINE"
);
},
{
closed = 1;
nodes = (
"1450 1440 LINE",
"68 1440 LINE",
"68 1260 LINE",
"1450 1260 LINE"
);
},
{
closed = 1;
nodes = (
"1232 1260 OFFCURVE",
"1260 1212 OFFCURVE",
"1260 1080 CURVE SMOOTH",
"1260 982 LINE",
"1450 982 LINE",
"1450 1260 LINE",
"1100 1260 LINE"
);
},
{
closed = 1;
nodes = (
"68 1260 LINE",
"68 982 LINE",
"258 982 LINE",
"258 1080 LINE SMOOTH",
"258 1212 OFFCURVE",
"286 1260 OFFCURVE",
"418 1260 CURVE"
);
}
);
width = 1518;
}
);
leftKerningGroup = T;
rightKerningGroup = T;
unicode = 0054;
},
{
glyphname = U;
lastChange = "2020-08-19 09:25:18 +0000";
layers = (
{
hints = (
{
origin = "{0, 6}";
scale = "{0.96, 1}";
type = Corner;
name = _corner.Serif;
},
{
origin = "{0, 7}";
scale = "{-1.06, 1}";
type = Corner;
name = _corner.Serif;
options = 1;
},
{
origin = "{0, 15}";
scale = "{1.06, 1}";
type = Corner;
name = _corner.Serif;
options = 1;
},
{
origin = "{0, 16}";
scale = "{-0.96, 1}";
type = Corner;
name = _corner.Serif;
}
);
layerId = "CA54B7DC-FBBB-40FE-ACF3-AABDD76D6A7B";
paths = (
{
closed = 1;
nodes = (
"262 178 OFFCURVE",
"436 -20 OFFCURVE",
"778 -20 CURVE SMOOTH",
"1120 -20 OFFCURVE",
"1294 178 OFFCURVE",
"1294 528 CURVE SMOOTH",
"1294 1440 LINE",
"1248 1440 LINE",
"1248 528 LINE SMOOTH",
"1248 216 OFFCURVE",
"1099 20 OFFCURVE",
"779 20 CURVE SMOOTH",
"459 20 OFFCURVE",
"310 216 OFFCURVE",
"310 528 CURVE SMOOTH",
"310 1440 LINE",
"262 1440 LINE",
"262 528 LINE SMOOTH"
);
}
);
width = 1556;
},
{
hints = (
{
origin = "{0, 6}";
scale = "{0.96, 1}";
type = Corner;
name = _corner.Serif;
},
{
origin = "{0, 7}";
scale = "{-1.16, 1}";
type = Corner;
name = _corner.Serif;
options = 1;
},
{
origin = "{0, 15}";
scale = "{1.16, 1}";
type = Corner;
name = _corner.Serif;
options = 1;
},
{
origin = "{0, 16}";
scale = "{-0.96, 1}";
type = Corner;
name = _corner.Serif;
}
);
layerId = "1E61A082-F045-49A7-AB52-DD1B03FD9B54";
paths = (
{
closed = 1;
nodes = (
"238 178 OFFCURVE",
"412 -20 OFFCURVE",
"754 -20 CURVE SMOOTH",
"1096 -20 OFFCURVE",
"1270 178 OFFCURVE",
"1270 528 CURVE SMOOTH",
"1270 1440 LINE",
"1226 1440 LINE",
"1226 528 LINE SMOOTH",
"1226 216 OFFCURVE",
"1076 20 OFFCURVE",
"756 20 CURVE SMOOTH",
"436 20 OFFCURVE",
"286 216 OFFCURVE",
"286 528 CURVE SMOOTH",
"286 1440 LINE",
"238 1440 LINE",
"238 528 LINE SMOOTH"
);
}
);
width = 1508;
},
{
hints = (
{
origin = "{0, 6}";
scale = "{0.96, 0.98}";
type = Corner;
name = _corner.Serif;
},
{
origin = "{0, 7}";
scale = "{-1.16, 0.98}";
type = Corner;
name = _corner.Serif;
options = 1;
},
{
origin = "{0, 15}";
scale = "{1.16, 0.98}";
type = Corner;
name = _corner.Serif;
options = 1;
},
{
origin = "{0, 16}";
scale = "{-0.96, 0.98}";
type = Corner;
name = _corner.Serif;
}
);
layerId = "642E5713-E15A-4A7E-A28E-9A6B75A6585C";
paths = (
{
closed = 1;
nodes = (
"210 190 OFFCURVE",
"414 -20 OFFCURVE",
"804 -20 CURVE SMOOTH",
"1193 -20 OFFCURVE",
"1396 190 OFFCURVE",
"1396 562 CURVE SMOOTH",
"1396 1440 LINE",
"1224 1440 LINE",
"1224 546 LINE SMOOTH",
"1224 307 OFFCURVE",
"1109 156 OFFCURVE",
"862 156 CURVE SMOOTH",
"615 156 OFFCURVE",
"500 307 OFFCURVE",
"500 546 CURVE SMOOTH",
"500 1440 LINE",
"210 1440 LINE",
"210 562 LINE SMOOTH"
);
}
);
width = 1612;
},
{
hints = (
{
origin = "{0, 6}";
scale = "{0.96, 0.98}";
type = Corner;
name = _corner.Serif;
},
{
origin = "{0, 7}";
scale = "{-1.06, 0.98}";
type = Corner;
name = _corner.Serif;
options = 1;
},
{
origin = "{0, 15}";
scale = "{1.06, 0.98}";
type = Corner;
name = _corner.Serif;
options = 1;
},
{
origin = "{0, 16}";
scale = "{-0.96, 0.98}";
type = Corner;
name = _corner.Serif;
}
);
layerId = "AF891779-7DE6-4679-9CA2-17B922C1DF84";
paths = (
{
closed = 1;
nodes = (
"216 192 OFFCURVE",
"422 -20 OFFCURVE",
"816 -20 CURVE SMOOTH",
"1210 -20 OFFCURVE",
"1416 192 OFFCURVE",
"1416 568 CURVE SMOOTH",
"1416 1440 LINE",
"1202 1440 LINE",
"1202 548 LINE SMOOTH",
"1202 316 OFFCURVE",
"1096 170 OFFCURVE",
"854 170 CURVE SMOOTH",
"612 170 OFFCURVE",
"506 316 OFFCURVE",
"506 548 CURVE SMOOTH",
"506 1440 LINE",
"216 1440 LINE",
"216 568 LINE SMOOTH"
);
}
);
width = 1632;
}
);
leftKerningGroup = U;
rightKerningGroup = U;
unicode = 0055;
},
{
glyphname = V;
lastChange = "2020-08-19 09:40:24 +0000";
layers = (
{
hints = (
{
origin = "{0, 0}";
scale = "{-1.06, 1}";
type = Corner;
name = _corner.Serif;
options = 1;
},
{
origin = "{0, 3}";
scale = "{1.06, 1}";
type = Corner;
name = _corner.Serif;
},
{
origin = "{0, 4}";
scale = "{-0.6, 1}";
type = Corner;
name = _corner.Serif;
options = 1;
},
{
origin = "{0, 7}";
scale = "{0.6, 1}";
type = Corner;
name = _corner.Serif;
}
);
layerId = "CA54B7DC-FBBB-40FE-ACF3-AABDD76D6A7B";
paths = (
{
closed = 1;
nodes = (
"1293 1440 LINE",
"744 47 LINE",
"757 47 LINE",
"208 1440 LINE",
"156 1440 LINE",
"726 0 LINE",
"770 0 LINE",
"1340 1440 LINE"
);
}
);
width = 1496;
},
{
hints = (
{
origin = "{0, 0}";
scale = "{-1.16, 1}";
type = Corner;
name = _corner.Serif;
options = 1;
},
{
origin = "{0, 3}";
scale = "{1.16, 1}";
type = Corner;
name = _corner.Serif;
},
{
origin = "{0, 4}";
scale = "{-0.6, 1}";
type = Corner;
name = _corner.Serif;
options = 1;
},
{
origin = "{0, 7}";
scale = "{0.6, 1}";
type = Corner;
name = _corner.Serif;
}
);
layerId = "1E61A082-F045-49A7-AB52-DD1B03FD9B54";
paths = (
{
closed = 1;
nodes = (
"1278 1440 LINE",
"729 47 LINE",
"742 47 LINE",
"193 1440 LINE",
"141 1440 LINE",
"711 0 LINE",
"753 0 LINE",
"1323 1440 LINE"
);
}
);
width = 1464;
},
{
hints = (
{
origin = "{0, 0}";
scale = "{-1.46, 0.98}";
type = Corner;
name = _corner.Serif;
options = 1;
},
{
origin = "{0, 3}";
scale = "{1.46, 0.98}";
type = Corner;
name = _corner.Serif;
},
{
origin = "{0, 4}";
scale = "{-0.46, 0.98}";
type = Corner;
name = _corner.Serif;
options = 1;
},
{
origin = "{0, 7}";
scale = "{0.46, 0.98}";
type = Corner;
name = _corner.Serif;
}
);
layerId = "642E5713-E15A-4A7E-A28E-9A6B75A6585C";
paths = (
{
closed = 1;
nodes = (
"1317 1440 LINE",
"816 167 LINE",
"917 166 LINE",
"430 1440 LINE",
"118 1440 LINE",
"688 0 LINE",
"930 0 LINE",
"1500 1440 LINE"
);
}
);
width = 1618;
},
{
hints = (
{
origin = "{0, 0}";
scale = "{-1.36, 0.98}";
type = Corner;
name = _corner.Serif;
options = 1;
},
{
origin = "{0, 3}";
scale = "{1.36, 0.98}";
type = Corner;
name = _corner.Serif;
},
{
origin = "{0, 4}";
scale = "{-0.46, 0.98}";
type = Corner;
name = _corner.Serif;
options = 1;
},
{
origin = "{0, 7}";
scale = "{0.46, 0.98}";
type = Corner;
name = _corner.Serif;
}
);
layerId = "AF891779-7DE6-4679-9CA2-17B922C1DF84";
paths = (
{
closed = 1;
nodes = (
"1293 1440 LINE",
"792 167 LINE",
"904 166 LINE",
"417 1440 LINE",
"105 1440 LINE",
"675 0 LINE",
"930 0 LINE",
"1500 1440 LINE"
);
}
);
width = 1606;
}
);
leftKerningGroup = V;
rightKerningGroup = V;
unicode = 0056;
},
{
glyphname = W;
lastChange = "2020-08-19 11:00:02 +0000";
layers = (
{
hints = (
{
origin = "{0, 0}";
scale = "{-1.06, 1}";
type = Corner;
name = _corner.Serif;
options = 1;
},
{
origin = "{0, 3}";
scale = "{1.06, 1}";
type = Corner;
name = _corner.Serif;
},
{
origin = "{0, 4}";
scale = "{-0.6, 1}";
type = Corner;
name = _corner.Serif;
options = 1;
},
{
origin = "{0, 7}";
scale = "{0.6, 1}";
type = Corner;
name = _corner.Serif;
},
{
origin = "{1, 3}";
scale = "{1.06, 1}";
type = Corner;
name = _corner.Serif;
},
{
origin = "{1, 4}";
scale = "{-0.6, 1}";
type = Corner;
name = _corner.Serif;
options = 1;
}
);
layerId = "CA54B7DC-FBBB-40FE-ACF3-AABDD76D6A7B";
paths = (
{
closed = 1;
nodes = (
"1834 1440 LINE",
"1372 47 LINE",
"1389 47 LINE",
"927 1440 LINE",
"876 1440 LINE",
"1356 0 LINE",
"1400 0 LINE",
"1880 1440 LINE"
);
},
{
closed = 1;
nodes = (
"1010 1129 LINE",
"652 47 LINE",
"669 47 LINE",
"207 1440 LINE",
"156 1440 LINE",
"636 0 LINE",
"680 0 LINE",
"1031 1054 LINE"
);
}
);
width = 2036;
},
{
hints = (
{
origin = "{0, 0}";
scale = "{-1.06, 1}";
type = Corner;
name = _corner.Serif;
options = 1;
},
{
origin = "{0, 3}";
scale = "{1.06, 1}";
type = Corner;
name = _corner.Serif;
},
{
origin = "{0, 4}";
scale = "{-0.6, 1}";
type = Corner;
name = _corner.Serif;
options = 1;
},
{
origin = "{0, 7}";
scale = "{0.6, 1}";
type = Corner;
name = _corner.Serif;
},
{
origin = "{1, 3}";
scale = "{1.06, 1}";
type = Corner;
name = _corner.Serif;
},
{
origin = "{1, 4}";
scale = "{-0.6, 1}";
type = Corner;
name = _corner.Serif;
options = 1;
}
);
layerId = "1E61A082-F045-49A7-AB52-DD1B03FD9B54";
paths = (
{
closed = 1;
nodes = (
"1821 1440 LINE",
"1359 47 LINE",
"1374 47 LINE",
"912 1440 LINE",
"861 1440 LINE",
"1341 0 LINE",
"1385 0 LINE",
"1865 1440 LINE"
);
},
{
closed = 1;
nodes = (
"998 1130 LINE",
"639 47 LINE",
"654 47 LINE",
"192 1440 LINE",
"141 1440 LINE",
"621 0 LINE",
"665 0 LINE",
"1016 1054 LINE"
);
}
);
width = 2006;
},
{
hints = (
{
origin = "{0, 0}";
scale = "{-1.46, 0.98}";
type = Corner;
name = _corner.Serif;
options = 1;
},
{
origin = "{0, 3}";
scale = "{1.46, 0.98}";
type = Corner;
name = _corner.Serif;
},
{
origin = "{0, 4}";
scale = "{-0.46, 0.98}";
type = Corner;
name = _corner.Serif;
options = 1;
},
{
origin = "{0, 7}";
scale = "{0.46, 0.98}";
type = Corner;
name = _corner.Serif;
},
{
origin = "{1, 3}";
scale = "{1.46, 0.98}";
type = Corner;
name = _corner.Serif;
},
{
origin = "{1, 4}";
scale = "{-0.46, 0.98}";
type = Corner;
name = _corner.Serif;
options = 1;
}
);
layerId = "642E5713-E15A-4A7E-A28E-9A6B75A6585C";
paths = (
{
closed = 1;
nodes = (
"1762 1440 LINE",
"1385 167 LINE",
"1500 166 LINE",
"1139 1440 LINE",
"836 1440 LINE",
"1266 0 LINE",
"1508 0 LINE",
"1938 1440 LINE"
);
},
{
closed = 1;
nodes = (
"997 1282 LINE",
"667 167 LINE",
"782 166 LINE",
"421 1440 LINE",
"118 1440 LINE",
"548 0 LINE",
"790 0 LINE",
"1112 1077 LINE"
);
}
);
width = 2056;
},
{
hints = (
{
origin = "{0, 0}";
scale = "{-1.36, 0.98}";
type = Corner;
name = _corner.Serif;
options = 1;
},
{
origin = "{0, 3}";
scale = "{1.36, 0.98}";
type = Corner;
name = _corner.Serif;
},
{
origin = "{0, 4}";
scale = "{-0.42, 0.98}";
type = Corner;
name = _corner.Serif;
options = 1;
},
{
origin = "{0, 7}";
scale = "{0.46, 0.98}";
type = Corner;
name = _corner.Serif;
},
{
origin = "{1, 3}";
scale = "{1.36, 0.98}";
type = Corner;
name = _corner.Serif;
},
{
origin = "{1, 4}";
scale = "{-0.42, 0.98}";
type = Corner;
name = _corner.Serif;
options = 1;
}
);
layerId = "AF891779-7DE6-4679-9CA2-17B922C1DF84";
paths = (
{
closed = 1;
nodes = (
"1737 1440 LINE",
"1359 167 LINE",
"1474 166 LINE",
"1113 1440 LINE",
"810 1440 LINE",
"1240 0 LINE",
"1505 0 LINE",
"1935 1440 LINE"
);
},
{
closed = 1;
nodes = (
"988 1317 LINE",
"647 167 LINE",
"762 166 LINE",
"401 1440 LINE",
"98 1440 LINE",
"528 0 LINE",
"793 0 LINE",
"1112 1070 LINE"
);
}
);
width = 2041;
}
);
leftKerningGroup = W;
leftMetricsKey = V;
rightKerningGroup = W;
rightMetricsKey = V;
unicode = 0057;
},
{
glyphname = X;
lastChange = "2020-08-19 11:50:47 +0000";
layers = (
{
hints = (
{
origin = "{0, 6}";
scale = "{1.06, 1}";
type = Corner;
name = _corner.Serif;
},
{
origin = "{0, 7}";
scale = "{-0.56, 1}";
type = Corner;
name = _corner.Serif;
options = 1;
},
{
origin = "{0, 2}";
scale = "{0.56, 1}";
type = Corner;
name = _corner.Serif;
},
{
origin = "{0, 3}";
scale = "{-1.06, 1}";
type = Corner;
name = _corner.Serif;
options = 1;
},
{
origin = "{1, 2}";
scale = "{0.6, 1}";
type = Corner;
name = _corner.Serif;
},
{
origin = "{1, 3}";
scale = "{-1.1, 1}";
type = Corner;
name = _corner.Serif;
options = 1;
},
{
origin = "{1, 6}";
scale = "{1.1, 1}";
type = Corner;
name = _corner.Serif;
},
{
origin = "{1, 7}";
scale = "{-0.6, 1}";
type = Corner;
name = _corner.Serif;
options = 1;
}
);
layerId = "CA54B7DC-FBBB-40FE-ACF3-AABDD76D6A7B";
paths = (
{
closed = 1;
nodes = (
"732 708 LINE",
"752 708 LINE",
"1310 1440 LINE",
"1255 1440 LINE",
"727 747 LINE",
"762 747 LINE",
"234 1440 LINE",
"174 1440 LINE"
);
},
{
closed = 1;
nodes = (
"752 764 LINE",
"732 764 LINE",
"150 0 LINE",
"205 0 LINE",
"757 725 LINE",
"722 725 LINE",
"1274 0 LINE",
"1334 0 LINE"
);
}
);
width = 1508;
},
{
hints = (
{
origin = "{0, 2}";
scale = "{0.56, 1}";
type = Corner;
name = _corner.Serif;
},
{
origin = "{0, 3}";
scale = "{-1.06, 1}";
type = Corner;
name = _corner.Serif;
options = 1;
},
{
origin = "{0, 6}";
scale = "{1.06, 1}";
type = Corner;
name = _corner.Serif;
},
{
origin = "{0, 7}";
scale = "{-0.56, 1}";
type = Corner;
name = _corner.Serif;
options = 1;
},
{
origin = "{1, 3}";
scale = "{-1.1, 1}";
type = Corner;
name = _corner.Serif;
options = 1;
},
{
origin = "{1, 6}";
scale = "{1.1, 1}";
type = Corner;
name = _corner.Serif;
},
{
origin = "{1, 7}";
scale = "{-0.6, 1}";
type = Corner;
name = _corner.Serif;
options = 1;
},
{
origin = "{1, 2}";
scale = "{0.6, 1}";
type = Corner;
name = _corner.Serif;
}
);
layerId = "1E61A082-F045-49A7-AB52-DD1B03FD9B54";
paths = (
{
closed = 1;
nodes = (
"732 708 LINE",
"753 708 LINE",
"1311 1440 LINE",
"1253 1440 LINE",
"725 747 LINE",
"762 747 LINE",
"234 1440 LINE",
"174 1440 LINE"
);
},
{
closed = 1;
nodes = (
"752 764 LINE",
"731 764 LINE",
"149 0 LINE",
"207 0 LINE",
"759 725 LINE",
"722 725 LINE",
"1274 0 LINE",
"1334 0 LINE"
);
}
);
width = 1484;
},
{
hints = (
{
origin = "{0, 2}";
scale = "{0.02, 0.98}";
type = Corner;
name = _corner.Serif;
},
{
origin = "{0, 3}";
scale = "{-1.68, 0.98}";
type = Corner;
name = _corner.Serif;
options = 1;
},
{
origin = "{0, 6}";
scale = "{1.66, 0.98}";
type = Corner;
name = _corner.Serif;
},
{
origin = "{0, 7}";
scale = "{-0.02, 0.98}";
type = Corner;
name = _corner.Serif;
options = 1;
},
{
origin = "{1, 2}";
scale = "{0.06, 1}";
type = Corner;
name = _corner.Serif;
},
{
origin = "{1, 3}";
scale = "{-1.72, 1}";
type = Corner;
name = _corner.Serif;
options = 1;
},
{
origin = "{1, 6}";
scale = "{1.7, 1}";
type = Corner;
name = _corner.Serif;
},
{
origin = "{1, 7}";
scale = "{-0.06, 1}";
type = Corner;
name = _corner.Serif;
options = 1;
}
);
layerId = "642E5713-E15A-4A7E-A28E-9A6B75A6585C";
paths = (
{
closed = 1;
nodes = (
"672 668 LINE",
"873 668 LINE",
"1493 1440 LINE",
"1275 1440 LINE",
"785 827 LINE",
"897 827 LINE",
"447 1440 LINE",
"82 1440 LINE"
);
},
{
closed = 1;
nodes = (
"937 802 LINE",
"736 802 LINE",
"92 0 LINE",
"310 0 LINE",
"824 643 LINE",
"712 643 LINE",
"1184 0 LINE",
"1550 0 LINE"
);
}
);
width = 1632;
},
{
hints = (
{
origin = "{0, 2}";
scale = "{0.02, 0.98}";
type = Corner;
name = _corner.Serif;
},
{
origin = "{0, 3}";
scale = "{-1.6, 0.98}";
type = Corner;
name = _corner.Serif;
options = 1;
},
{
origin = "{0, 6}";
scale = "{1.56, 0.98}";
type = Corner;
name = _corner.Serif;
},
{
origin = "{0, 7}";
scale = "{-0.02, 0.98}";
type = Corner;
name = _corner.Serif;
options = 1;
},
{
origin = "{1, 2}";
scale = "{0.06, 1}";
type = Corner;
name = _corner.Serif;
},
{
origin = "{1, 3}";
scale = "{-1.64, 1}";
type = Corner;
name = _corner.Serif;
options = 1;
},
{
origin = "{1, 6}";
scale = "{1.6, 1}";
type = Corner;
name = _corner.Serif;
},
{
origin = "{1, 7}";
scale = "{-0.06, 1}";
type = Corner;
name = _corner.Serif;
options = 1;
}
);
layerId = "AF891779-7DE6-4679-9CA2-17B922C1DF84";
paths = (
{
closed = 1;
nodes = (
"671 668 LINE",
"882 668 LINE",
"1502 1440 LINE",
"1259 1440 LINE",
"769 827 LINE",
"896 827 LINE",
"446 1440 LINE",
"81 1440 LINE"
);
},
{
closed = 1;
nodes = (
"936 802 LINE",
"725 802 LINE",
"81 0 LINE",
"325 0 LINE",
"838 643 LINE",
"711 643 LINE",
"1183 0 LINE",
"1549 0 LINE"
);
}
);
width = 1630;
}
);
leftKerningGroup = X;
rightKerningGroup = X;
unicode = 0058;
},
{
glyphname = Y;
lastChange = "2020-08-19 11:28:18 +0000";
layers = (
{
hints = (
{
origin = "{0, 2}";
scale = "{1.2, 1}";
type = Corner;
name = _corner.Serif;
},
{
origin = "{0, 3}";
scale = "{-1.2, 1}";
type = Corner;
name = _corner.Serif;
options = 1;
},
{
origin = "{1, 0}";
scale = "{-1.06, 1}";
type = Corner;
name = _corner.Serif;
options = 1;
},
{
origin = "{1, 3}";
scale = "{1.06, 1}";
type = Corner;
name = _corner.Serif;
},
{
origin = "{1, 4}";
scale = "{-0.5, 1}";
type = Corner;
name = _corner.Serif;
options = 1;
},
{
origin = "{1, 7}";
scale = "{0.5, 1}";
type = Corner;
name = _corner.Serif;
}
);
layerId = "CA54B7DC-FBBB-40FE-ACF3-AABDD76D6A7B";
paths = (
{
closed = 1;
nodes = (
"776 618 LINE",
"728 618 LINE",
"728 0 LINE",
"776 0 LINE"
);
},
{
closed = 1;
nodes = (
"1290 1440 LINE",
"744 613 LINE",
"764 613 LINE",
"218 1440 LINE",
"161 1440 LINE",
"731 577 LINE",
"773 577 LINE",
"1343 1440 LINE"
);
}
);
width = 1504;
},
{
hints = (
{
origin = "{0, 2}";
scale = "{1.4, 1}";
type = Corner;
name = _corner.Serif;
},
{
origin = "{0, 3}";
scale = "{-1.4, 1}";
type = Corner;
name = _corner.Serif;
options = 1;
},
{
origin = "{1, 0}";
scale = "{-1.16, 1}";
type = Corner;
name = _corner.Serif;
options = 1;
},
{
origin = "{1, 3}";
scale = "{1.16, 1}";
type = Corner;
name = _corner.Serif;
},
{
origin = "{1, 4}";
scale = "{-0.5, 1}";
type = Corner;
name = _corner.Serif;
options = 1;
},
{
origin = "{1, 7}";
scale = "{0.5, 1}";
type = Corner;
name = _corner.Serif;
}
);
layerId = "1E61A082-F045-49A7-AB52-DD1B03FD9B54";
paths = (
{
closed = 1;
nodes = (
"762 610 LINE",
"714 610 LINE",
"714 0 LINE",
"762 0 LINE"
);
},
{
closed = 1;
nodes = (
"1279 1440 LINE",
"733 613 LINE",
"750 613 LINE",
"204 1440 LINE",
"147 1440 LINE",
"717 577 LINE",
"759 577 LINE",
"1329 1440 LINE"
);
}
);
width = 1476;
},
{
hints = (
{
origin = "{0, 2}";
scale = "{1.4, 1}";
type = Corner;
name = _corner.Serif;
},
{
origin = "{0, 3}";
scale = "{-1.4, 1}";
type = Corner;
name = _corner.Serif;
options = 1;
},
{
origin = "{1, 0}";
scale = "{-1.52, 0.98}";
type = Corner;
name = _corner.Serif;
options = 1;
},
{
origin = "{1, 3}";
scale = "{1.52, 0.98}";
type = Corner;
name = _corner.Serif;
},
{
origin = "{1, 4}";
scale = "{-0.2, 0.98}";
type = Corner;
name = _corner.Serif;
options = 1;
},
{
origin = "{1, 7}";
scale = "{0.2, 0.98}";
type = Corner;
name = _corner.Serif;
}
);
layerId = "642E5713-E15A-4A7E-A28E-9A6B75A6585C";
paths = (
{
closed = 1;
nodes = (
"902 719 LINE",
"612 719 LINE",
"612 0 LINE",
"902 0 LINE"
);
},
{
closed = 1;
nodes = (
"1236 1440 LINE",
"791 714 LINE",
"854 714 LINE",
"421 1440 LINE",
"80 1440 LINE",
"630 548 LINE",
"886 548 LINE",
"1436 1440 LINE"
);
}
);
width = 1516;
},
{
hints = (
{
origin = "{0, 2}";
scale = "{1.2, 1}";
type = Corner;
name = _corner.Serif;
},
{
origin = "{0, 3}";
scale = "{-1.2, 1}";
type = Corner;
name = _corner.Serif;
options = 1;
},
{
origin = "{1, 0}";
scale = "{-1.46, 0.98}";
type = Corner;
name = _corner.Serif;
options = 1;
},
{
origin = "{1, 3}";
scale = "{1.46, 0.98}";
type = Corner;
name = _corner.Serif;
},
{
origin = "{1, 4}";
scale = "{-0.2, 0.98}";
type = Corner;
name = _corner.Serif;
options = 1;
},
{
origin = "{1, 7}";
scale = "{0.2, 0.98}";
type = Corner;
name = _corner.Serif;
}
);
layerId = "AF891779-7DE6-4679-9CA2-17B922C1DF84";
paths = (
{
closed = 1;
nodes = (
"945 719 LINE",
"655 719 LINE",
"655 0 LINE",
"945 0 LINE"
);
},
{
closed = 1;
nodes = (
"1253 1440 LINE",
"808 714 LINE",
"897 714 LINE",
"464 1440 LINE",
"123 1440 LINE",
"673 548 LINE",
"929 548 LINE",
"1479 1440 LINE"
);
}
);
width = 1602;
}
);
leftKerningGroup = Y;
rightKerningGroup = Y;
unicode = 0059;
},
{
glyphname = Z;
lastChange = "2020-08-19 10:48:44 +0000";
layers = (
{
layerId = "CA54B7DC-FBBB-40FE-ACF3-AABDD76D6A7B";
paths = (
{
closed = 1;
nodes = (
"178 1400 LINE",
"1168 1400 LINE",
"1226 1404 LINE",
"1226 1440 LINE",
"178 1440 LINE"
);
},
{
closed = 1;
nodes = (
"146 0 LINE",
"1226 0 LINE",
"1226 40 LINE",
"204 40 LINE",
"146 36 LINE"
);
},
{
closed = 1;
nodes = (
"204 40 LINE",
"1226 1404 LINE",
"1168 1400 LINE",
"146 36 LINE"
);
},
{
closed = 1;
nodes = (
"178 1400 LINE",
"178 1000 LINE",
"222 1000 LINE",
"222 1260 LINE SMOOTH",
"222 1372 OFFCURVE",
"230 1400 OFFCURVE",
"342 1400 CURVE"
);
},
{
closed = 1;
nodes = (
"1226 40 LINE",
"1226 460 LINE",
"1182 460 LINE",
"1182 180 LINE SMOOTH",
"1182 68 OFFCURVE",
"1174 40 OFFCURVE",
"1062 40 CURVE"
);
}
);
width = 1368;
},
{
layerId = "1E61A082-F045-49A7-AB52-DD1B03FD9B54";
paths = (
{
closed = 1;
nodes = (
"152 1400 LINE",
"1142 1400 LINE",
"1200 1404 LINE",
"1200 1440 LINE",
"152 1440 LINE"
);
},
{
closed = 1;
nodes = (
"120 0 LINE",
"1200 0 LINE",
"1200 40 LINE",
"178 40 LINE",
"120 36 LINE"
);
},
{
closed = 1;
nodes = (
"178 40 LINE",
"1200 1404 LINE",
"1142 1400 LINE",
"120 36 LINE"
);
},
{
closed = 1;
nodes = (
"152 1400 LINE",
"152 900 LINE",
"196 900 LINE",
"196 1260 LINE SMOOTH",
"196 1372 OFFCURVE",
"204 1400 OFFCURVE",
"316 1400 CURVE"
);
},
{
closed = 1;
nodes = (
"1200 40 LINE",
"1200 560 LINE",
"1156 560 LINE",
"1156 180 LINE SMOOTH",
"1156 68 OFFCURVE",
"1148 40 OFFCURVE",
"1036 40 CURVE"
);
}
);
width = 1300;
},
{
layerId = "642E5713-E15A-4A7E-A28E-9A6B75A6585C";
paths = (
{
closed = 1;
nodes = (
"140 1284 LINE",
"915 1284 LINE",
"1286 1308 LINE",
"1286 1440 LINE",
"140 1440 LINE"
);
},
{
closed = 1;
nodes = (
"96 0 LINE",
"1280 0 LINE",
"1280 158 LINE",
"467 158 LINE",
"96 134 LINE"
);
},
{
closed = 1;
nodes = (
"467 158 LINE",
"1286 1308 LINE",
"915 1284 LINE",
"96 134 LINE"
);
},
{
closed = 1;
nodes = (
"140 1284 LINE",
"140 902 LINE",
"312 902 LINE",
"312 1104 LINE SMOOTH",
"312 1236 OFFCURVE",
"340 1284 OFFCURVE",
"472 1284 CURVE"
);
},
{
closed = 1;
nodes = (
"1280 158 LINE",
"1280 558 LINE",
"1108 558 LINE",
"1108 338 LINE SMOOTH",
"1108 206 OFFCURVE",
"1080 158 OFFCURVE",
"948 158 CURVE"
);
}
);
width = 1300;
},
{
layerId = "AF891779-7DE6-4679-9CA2-17B922C1DF84";
paths = (
{
closed = 1;
nodes = (
"134 1260 LINE",
"910 1260 LINE",
"1286 1284 LINE",
"1286 1440 LINE",
"134 1440 LINE"
);
},
{
closed = 1;
nodes = (
"96 0 LINE",
"1286 0 LINE",
"1286 184 LINE",
"472 184 LINE",
"96 160 LINE"
);
},
{
closed = 1;
nodes = (
"472 184 LINE",
"1286 1284 LINE",
"910 1260 LINE",
"96 160 LINE"
);
},
{
closed = 1;
nodes = (
"134 1260 LINE",
"134 982 LINE",
"324 982 LINE",
"324 1080 LINE SMOOTH",
"324 1212 OFFCURVE",
"352 1260 OFFCURVE",
"484 1260 CURVE"
);
},
{
closed = 1;
nodes = (
"1286 184 LINE",
"1286 480 LINE",
"1096 480 LINE",
"1096 364 LINE SMOOTH",
"1096 232 OFFCURVE",
"1068 184 OFFCURVE",
"936 184 CURVE"
);
}
);
width = 1368;
}
);
leftKerningGroup = Z;
rightKerningGroup = Z;
unicode = 005A;
},
{
glyphname = a;
lastChange = "2020-08-19 12:55:56 +0000";
layers = (
{
layerId = "CA54B7DC-FBBB-40FE-ACF3-AABDD76D6A7B";
paths = (
{
closed = 1;
nodes = (
"194 784 OFFCURVE",
"206 742 OFFCURVE",
"240 742 CURVE SMOOTH",
"261 742 OFFCURVE",
"271 756 OFFCURVE",
"271 777 CURVE SMOOTH",
"271 812 OFFCURVE",
"253 822 OFFCURVE",
"253 882 CURVE SMOOTH",
"253 996 OFFCURVE",
"387 1076 OFFCURVE",
"584 1076 CURVE SMOOTH",
"781 1076 OFFCURVE",
"878 996 OFFCURVE",
"878 848 CURVE",
"926 830 LINE",
"926 1026 OFFCURVE",
"797 1116 OFFCURVE",
"586 1116 CURVE SMOOTH",
"370 1116 OFFCURVE",
"194 1026 OFFCURVE",
"194 844 CURVE SMOOTH"
);
},
{
closed = 1;
nodes = (
"618 568 LINE SMOOTH",
"773 606 OFFCURVE",
"843 632 OFFCURVE",
"878 706 CURVE",
"878 840 LINE",
"878 683 OFFCURVE",
"768 647 OFFCURVE",
"610 608 CURVE SMOOTH",
"456 570 LINE SMOOTH",
"247 519 OFFCURVE",
"134 436 OFFCURVE",
"134 257 CURVE SMOOTH",
"134 85 OFFCURVE",
"266 -16 OFFCURVE",
"460 -16 CURVE SMOOTH",
"720 -16 OFFCURVE",
"918 143 OFFCURVE",
"916 546 CURVE",
"878 546 LINE",
"878 166 OFFCURVE",
"690 24 OFFCURVE",
"466 24 CURVE SMOOTH",
"300 24 OFFCURVE",
"182 107 OFFCURVE",
"182 257 CURVE SMOOTH",
"182 424 OFFCURVE",
"291 487 OFFCURVE",
"472 532 CURVE SMOOTH"
);
},
{
closed = 1;
nodes = (
"878 330 LINE",
"882 330 LINE",
"882 168 LINE SMOOTH",
"882 51 OFFCURVE",
"945 -16 OFFCURVE",
"1048 -16 CURVE SMOOTH",
"1151 -16 OFFCURVE",
"1214 51 OFFCURVE",
"1214 168 CURVE SMOOTH",
"1214 260 LINE",
"1170 260 LINE",
"1170 168 LINE SMOOTH",
"1170 83 OFFCURVE",
"1129 24 OFFCURVE",
"1048 24 CURVE SMOOTH",
"967 24 OFFCURVE",
"926 83 OFFCURVE",
"926 168 CURVE SMOOTH",
"926 830 LINE",
"878 848 LINE"
);
}
);
width = 1288;
},
{
layerId = "1E61A082-F045-49A7-AB52-DD1B03FD9B54";
paths = (
{
closed = 1;
nodes = (
"174 726 OFFCURVE",
"190 674 OFFCURVE",
"225 674 CURVE SMOOTH",
"244 674 OFFCURVE",
"255 686 OFFCURVE",
"255 706 CURVE SMOOTH",
"255 740 OFFCURVE",
"229 752 OFFCURVE",
"229 818 CURVE SMOOTH",
"229 972 OFFCURVE",
"391 1056 OFFCURVE",
"570 1056 CURVE SMOOTH",
"768 1056 OFFCURVE",
"854 970 OFFCURVE",
"854 838 CURVE",
"902 820 LINE",
"902 1007 OFFCURVE",
"782 1096 OFFCURVE",
"572 1096 CURVE SMOOTH",
"364 1096 OFFCURVE",
"174 999 OFFCURVE",
"174 790 CURVE SMOOTH"
);
},
{
closed = 1;
nodes = (
"594 557 LINE SMOOTH",
"749 593 OFFCURVE",
"819 622 OFFCURVE",
"854 696 CURVE",
"854 830 LINE",
"854 672 OFFCURVE",
"744 634 OFFCURVE",
"586 597 CURVE SMOOTH",
"432 561 LINE SMOOTH",
"242 517 OFFCURVE",
"110 441 OFFCURVE",
"110 253 CURVE SMOOTH",
"110 84 OFFCURVE",
"242 -16 OFFCURVE",
"436 -16 CURVE SMOOTH",
"696 -16 OFFCURVE",
"894 140 OFFCURVE",
"892 536 CURVE",
"854 536 LINE",
"854 163 OFFCURVE",
"666 24 OFFCURVE",
"442 24 CURVE SMOOTH",
"276 24 OFFCURVE",
"158 106 OFFCURVE",
"158 253 CURVE SMOOTH",
"158 413 OFFCURVE",
"262 480 OFFCURVE",
"448 523 CURVE SMOOTH"
);
},
{
closed = 1;
nodes = (
"854 320 LINE",
"858 320 LINE",
"858 176 LINE SMOOTH",
"858 54 OFFCURVE",
"924 -16 OFFCURVE",
"1032 -16 CURVE SMOOTH",
"1140 -16 OFFCURVE",
"1206 54 OFFCURVE",
"1206 176 CURVE SMOOTH",
"1206 550 LINE",
"1162 550 LINE",
"1162 176 LINE SMOOTH",
"1162 86 OFFCURVE",
"1118 24 OFFCURVE",
"1032 24 CURVE SMOOTH",
"946 24 OFFCURVE",
"902 86 OFFCURVE",
"902 176 CURVE SMOOTH",
"902 820 LINE",
"854 838 LINE"
);
}
);
width = 1264;
},
{
layerId = "642E5713-E15A-4A7E-A28E-9A6B75A6585C";
paths = (
{
closed = 1;
nodes = (
"118 750 OFFCURVE",
"178 671 OFFCURVE",
"275 671 CURVE SMOOTH",
"360 671 OFFCURVE",
"401 714 OFFCURVE",
"401 773 CURVE SMOOTH",
"401 824 OFFCURVE",
"375 839 OFFCURVE",
"375 884 CURVE SMOOTH",
"375 960 OFFCURVE",
"454 996 OFFCURVE",
"544 996 CURVE SMOOTH",
"650 996 OFFCURVE",
"708 930 OFFCURVE",
"708 842 CURVE",
"974 817 LINE",
"976 1034 OFFCURVE",
"841 1140 OFFCURVE",
"582 1140 CURVE SMOOTH",
"336 1140 OFFCURVE",
"118 1032 OFFCURVE",
"118 834 CURVE SMOOTH"
);
},
{
closed = 1;
nodes = (
"591 538 LINE SMOOTH",
"641 556 OFFCURVE",
"682 580 OFFCURVE",
"708 611 CURVE",
"708 840 LINE",
"708 754 OFFCURVE",
"668 705 OFFCURVE",
"561 674 CURVE SMOOTH",
"436 638 LINE SMOOTH",
"280 593 OFFCURVE",
"62 531 OFFCURVE",
"62 298 CURVE SMOOTH",
"62 83 OFFCURVE",
"229 -20 OFFCURVE",
"422 -20 CURVE SMOOTH",
"660 -20 OFFCURVE",
"800 113 OFFCURVE",
"798 450 CURVE",
"708 450 LINE",
"708 248 OFFCURVE",
"618 174 OFFCURVE",
"498 174 CURVE SMOOTH",
"407 174 OFFCURVE",
"344 230 OFFCURVE",
"344 321 CURVE SMOOTH",
"344 431 OFFCURVE",
"423 478 OFFCURVE",
"543 521 CURVE SMOOTH"
);
},
{
closed = 1;
nodes = (
"708 320 LINE",
"754 320 LINE",
"754 240 LINE SMOOTH",
"754 80 OFFCURVE",
"851 -23 OFFCURVE",
"1019 -23 CURVE SMOOTH",
"1187 -23 OFFCURVE",
"1282 77 OFFCURVE",
"1282 237 CURVE SMOOTH",
"1282 557 LINE",
"1114 557 LINE",
"1114 233 LINE SMOOTH",
"1114 185 OFFCURVE",
"1091 153 OFFCURVE",
"1044 153 CURVE SMOOTH",
"997 153 OFFCURVE",
"974 185 OFFCURVE",
"974 233 CURVE SMOOTH",
"974 817 LINE",
"708 842 LINE"
);
}
);
width = 1298;
},
{
layerId = "AF891779-7DE6-4679-9CA2-17B922C1DF84";
paths = (
{
closed = 1;
nodes = (
"164 807 OFFCURVE",
"218 741 OFFCURVE",
"317 741 CURVE SMOOTH",
"397 741 OFFCURVE",
"439 782 OFFCURVE",
"439 837 CURVE SMOOTH",
"439 865 OFFCURVE",
"433 877 OFFCURVE",
"433 904 CURVE SMOOTH",
"433 975 OFFCURVE",
"517 1008 OFFCURVE",
"608 1008 CURVE SMOOTH",
"713 1008 OFFCURVE",
"774 949 OFFCURVE",
"774 858 CURVE",
"1040 840 LINE",
"1040 1071 OFFCURVE",
"898 1180 OFFCURVE",
"620 1180 CURVE SMOOTH",
"379 1180 OFFCURVE",
"164 1073 OFFCURVE",
"164 896 CURVE SMOOTH"
);
},
{
closed = 1;
nodes = (
"652 547 LINE SMOOTH",
"709 565 OFFCURVE",
"749 590 OFFCURVE",
"774 616 CURVE",
"774 856 LINE",
"774 777 OFFCURVE",
"734 732 OFFCURVE",
"620 700 CURVE SMOOTH",
"538 677 LINE SMOOTH",
"341 622 OFFCURVE",
"104 560 OFFCURVE",
"104 316 CURVE SMOOTH",
"104 72 OFFCURVE",
"293 -20 OFFCURVE",
"500 -20 CURVE SMOOTH",
"741 -20 OFFCURVE",
"888 127 OFFCURVE",
"888 480 CURVE",
"774 480 LINE",
"774 275 OFFCURVE",
"676 194 OFFCURVE",
"548 194 CURVE SMOOTH",
"456 194 OFFCURVE",
"388 243 OFFCURVE",
"388 337 CURVE SMOOTH",
"388 439 OFFCURVE",
"464 487 OFFCURVE",
"599 530 CURVE SMOOTH"
);
},
{
closed = 1;
nodes = (
"774 340 LINE",
"818 340 LINE",
"818 264 LINE SMOOTH",
"818 84 OFFCURVE",
"920 -20 OFFCURVE",
"1090 -20 CURVE SMOOTH",
"1265 -20 OFFCURVE",
"1352 80 OFFCURVE",
"1352 244 CURVE SMOOTH",
"1352 320 LINE",
"1172 320 LINE",
"1172 260 LINE SMOOTH",
"1172 214 OFFCURVE",
"1150 184 OFFCURVE",
"1106 184 CURVE SMOOTH",
"1062 184 OFFCURVE",
"1040 214 OFFCURVE",
"1040 260 CURVE SMOOTH",
"1040 840 LINE",
"774 858 LINE"
);
}
);
width = 1356;
},
{
associatedMasterId = "AF891779-7DE6-4679-9CA2-17B922C1DF84";
layerId = "A1BB4121-D717-4863-A9C2-9992EB89649D";
name = "{700, 20}";
paths = (
{
closed = 1;
nodes = (
"148 796 OFFCURVE",
"203 727 OFFCURVE",
"302 727 CURVE SMOOTH",
"383 727 OFFCURVE",
"425 768 OFFCURVE",
"425 824 CURVE SMOOTH",
"425 857 OFFCURVE",
"415 869 OFFCURVE",
"415 900 CURVE SMOOTH",
"415 972 OFFCURVE",
"498 1007 OFFCURVE",
"588 1007 CURVE SMOOTH",
"694 1007 OFFCURVE",
"754 945 OFFCURVE",
"754 855 CURVE",
"1020 835 LINE",
"1020 1064 OFFCURVE",
"880 1172 OFFCURVE",
"606 1172 CURVE SMOOTH",
"364 1172 OFFCURVE",
"148 1065 OFFCURVE",
"148 884 CURVE SMOOTH"
);
},
{
closed = 1;
nodes = (
"633 539 LINE SMOOTH",
"684 557 OFFCURVE",
"729 583 OFFCURVE",
"754 610 CURVE",
"754 853 LINE",
"754 774 OFFCURVE",
"714 730 OFFCURVE",
"601 700 CURVE SMOOTH",
"511 677 LINE SMOOTH",
"319 627 OFFCURVE",
"89 554 OFFCURVE",
"89 312 CURVE SMOOTH",
"89 74 OFFCURVE",
"274 -20 OFFCURVE",
"473 -20 CURVE SMOOTH",
"731 -20 OFFCURVE",
"868 131 OFFCURVE",
"867 474 CURVE",
"754 474 LINE",
"754 271 OFFCURVE",
"659 186 OFFCURVE",
"533 186 CURVE SMOOTH",
"441 186 OFFCURVE",
"371 234 OFFCURVE",
"371 328 CURVE SMOOTH",
"371 427 OFFCURVE",
"450 475 OFFCURVE",
"581 522 CURVE SMOOTH"
);
},
{
closed = 1;
nodes = (
"754 336 LINE",
"802 336 LINE",
"802 259 LINE SMOOTH",
"802 83 OFFCURVE",
"905 -21 OFFCURVE",
"1076 -21 CURVE SMOOTH",
"1247 -21 OFFCURVE",
"1336 83 OFFCURVE",
"1336 251 CURVE SMOOTH",
"1336 415 LINE",
"1154 415 LINE",
"1154 243 LINE SMOOTH",
"1154 196 OFFCURVE",
"1131 166 OFFCURVE",
"1087 166 CURVE SMOOTH",
"1042 166 OFFCURVE",
"1020 196 OFFCURVE",
"1020 243 CURVE SMOOTH",
"1020 835 LINE",
"754 855 LINE"
);
}
);
width = 1368;
}
);
leftKerningGroup = a;
rightKerningGroup = a;
unicode = 0061;
},
{
glyphname = b;
lastChange = "2020-08-19 13:37:19 +0000";
layers = (
{
hints = (
{
origin = "{0, 5}";
scale = "{-0.9, 1}";
type = Corner;
name = _corner.Serif;
}
);
layerId = "CA54B7DC-FBBB-40FE-ACF3-AABDD76D6A7B";
paths = (
{
closed = 1;
nodes = (
"314 0 LINE",
"314 334 LINE",
"288 550 LINE",
"318 746 LINE",
"318 1520 LINE",
"270 1520 LINE",
"270 0 LINE"
);
},
{
closed = 1;
nodes = (
"1020 -16 OFFCURVE",
"1218 198 OFFCURVE",
"1218 550 CURVE SMOOTH",
"1218 902 OFFCURVE",
"1020 1116 OFFCURVE",
"746 1116 CURVE SMOOTH",
"452 1116 OFFCURVE",
"274 902 OFFCURVE",
"274 550 CURVE SMOOTH",
"274 198 OFFCURVE",
"452 -16 OFFCURVE",
"746 -16 CURVE SMOOTH"
);
},
{
closed = 1;
nodes = (
"494 24 OFFCURVE",
"314 220 OFFCURVE",
"314 550 CURVE SMOOTH",
"314 880 OFFCURVE",
"494 1076 OFFCURVE",
"746 1076 CURVE SMOOTH",
"994 1076 OFFCURVE",
"1170 880 OFFCURVE",
"1170 550 CURVE SMOOTH",
"1170 220 OFFCURVE",
"994 24 OFFCURVE",
"746 24 CURVE SMOOTH"
);
}
);
width = 1364;
},
{
hints = (
{
origin = "{0, 5}";
scale = "{-0.9, 1}";
type = Corner;
name = _corner.Serif;
}
);
layerId = "1E61A082-F045-49A7-AB52-DD1B03FD9B54";
paths = (
{
closed = 1;
nodes = (
"258 0 LINE",
"258 324 LINE",
"232 540 LINE",
"262 736 LINE",
"262 1480 LINE",
"214 1480 LINE",
"214 0 LINE"
);
},
{
closed = 1;
nodes = (
"964 -16 OFFCURVE",
"1162 194 OFFCURVE",
"1162 540 CURVE SMOOTH",
"1162 886 OFFCURVE",
"964 1096 OFFCURVE",
"690 1096 CURVE SMOOTH",
"396 1096 OFFCURVE",
"218 886 OFFCURVE",
"218 540 CURVE SMOOTH",
"218 194 OFFCURVE",
"396 -16 OFFCURVE",
"690 -16 CURVE SMOOTH"
);
},
{
closed = 1;
nodes = (
"438 24 OFFCURVE",
"258 216 OFFCURVE",
"258 540 CURVE SMOOTH",
"258 864 OFFCURVE",
"438 1056 OFFCURVE",
"690 1056 CURVE SMOOTH",
"938 1056 OFFCURVE",
"1114 864 OFFCURVE",
"1114 540 CURVE SMOOTH",
"1114 216 OFFCURVE",
"938 24 OFFCURVE",
"690 24 CURVE SMOOTH"
);
}
);
width = 1274;
},
{
hints = (
{
origin = "{0, 5}";
scale = "{-0.9, 0.98}";
type = Corner;
name = _corner.Serif;
}
);
layerId = "642E5713-E15A-4A7E-A28E-9A6B75A6585C";
paths = (
{
closed = 1;
nodes = (
"396 0 LINE",
"396 270 LINE",
"358 560 LINE",
"432 776 LINE",
"432 1480 LINE",
"152 1480 LINE",
"152 0 LINE"
);
},
{
closed = 1;
nodes = (
"1098 -16 OFFCURVE",
"1322 201 OFFCURVE",
"1322 560 CURVE SMOOTH",
"1322 919 OFFCURVE",
"1098 1136 OFFCURVE",
"780 1136 CURVE SMOOTH",
"464 1136 OFFCURVE",
"307 919 OFFCURVE",
"307 560 CURVE SMOOTH",
"307 201 OFFCURVE",
"464 -16 OFFCURVE",
"780 -16 CURVE SMOOTH"
);
},
{
closed = 1;
nodes = (
"539 152 OFFCURVE",
"418 300 OFFCURVE",
"418 560 CURVE SMOOTH",
"418 820 OFFCURVE",
"539 970 OFFCURVE",
"722 970 CURVE SMOOTH",
"901 970 OFFCURVE",
"1022 820 OFFCURVE",
"1022 560 CURVE SMOOTH",
"1022 300 OFFCURVE",
"901 152 OFFCURVE",
"722 152 CURVE SMOOTH"
);
}
);
width = 1404;
},
{
hints = (
{
origin = "{0, 5}";
scale = "{-0.9, 0.98}";
type = Corner;
name = _corner.Serif;
}
);
layerId = "AF891779-7DE6-4679-9CA2-17B922C1DF84";
paths = (
{
closed = 1;
nodes = (
"464 0 LINE",
"464 297 LINE",
"424 580 LINE",
"498 816 LINE",
"498 1530 LINE",
"218 1530 LINE",
"218 0 LINE"
);
},
{
closed = 1;
nodes = (
"1164 -16 OFFCURVE",
"1396 209 OFFCURVE",
"1396 580 CURVE SMOOTH",
"1396 951 OFFCURVE",
"1164 1176 OFFCURVE",
"844 1176 CURVE SMOOTH",
"521 1176 OFFCURVE",
"366 951 OFFCURVE",
"366 580 CURVE SMOOTH",
"366 209 OFFCURVE",
"521 -16 OFFCURVE",
"844 -16 CURVE SMOOTH"
);
},
{
closed = 1;
nodes = (
"603 176 OFFCURVE",
"484 319 OFFCURVE",
"484 580 CURVE SMOOTH",
"484 841 OFFCURVE",
"603 988 OFFCURVE",
"792 988 CURVE SMOOTH",
"977 988 OFFCURVE",
"1096 841 OFFCURVE",
"1096 580 CURVE SMOOTH",
"1096 319 OFFCURVE",
"977 176 OFFCURVE",
"792 176 CURVE SMOOTH"
);
}
);
width = 1494;
}
);
leftKerningGroup = b;
rightKerningGroup = o;
rightMetricsKey = o;
unicode = 0062;
},
{
glyphname = c;
lastChange = "2020-08-19 16:42:33 +0000";
layers = (
{
layerId = "CA54B7DC-FBBB-40FE-ACF3-AABDD76D6A7B";
paths = (
{
closed = 1;
nodes = (
"654 1076 LINE",
"897 1076 OFFCURVE",
"1003 932 OFFCURVE",
"1003 811 CURVE SMOOTH",
"1003 759 OFFCURVE",
"989 738 OFFCURVE",
"989 713 CURVE SMOOTH",
"989 692 OFFCURVE",
"1002 679 OFFCURVE",
"1020 679 CURVE SMOOTH",
"1053 679 OFFCURVE",
"1061 725 OFFCURVE",
"1061 771 CURVE SMOOTH",
"1061 955 OFFCURVE",
"922 1116 OFFCURVE",
"654 1116 CURVE"
);
},
{
closed = 1;
nodes = (
"1026 333 LINE",
"1002 212 OFFCURVE",
"901 24 OFFCURVE",
"650 24 CURVE SMOOTH",
"377 24 OFFCURVE",
"196 222 OFFCURVE",
"196 550 CURVE SMOOTH",
"196 878 OFFCURVE",
"378 1076 OFFCURVE",
"654 1076 CURVE",
"654 1116 LINE",
"352 1116 OFFCURVE",
"146 910 OFFCURVE",
"146 550 CURVE SMOOTH",
"146 190 OFFCURVE",
"352 -16 OFFCURVE",
"650 -16 CURVE SMOOTH",
"923 -16 OFFCURVE",
"1040 177 OFFCURVE",
"1068 323 CURVE"
);
}
);
width = 1204;
},
{
layerId = "1E61A082-F045-49A7-AB52-DD1B03FD9B54";
paths = (
{
closed = 1;
nodes = (
"612 1056 LINE",
"872 1056 OFFCURVE",
"967 897 OFFCURVE",
"967 778 CURVE SMOOTH",
"967 707 OFFCURVE",
"937 681 OFFCURVE",
"937 648 CURVE SMOOTH",
"937 630 OFFCURVE",
"947 618 OFFCURVE",
"967 618 CURVE SMOOTH",
"1002 618 OFFCURVE",
"1020 687 OFFCURVE",
"1020 750 CURVE SMOOTH",
"1020 929 OFFCURVE",
"894 1096 OFFCURVE",
"612 1096 CURVE"
);
},
{
closed = 1;
nodes = (
"993 366 LINE",
"963 217 OFFCURVE",
"854 24 OFFCURVE",
"608 24 CURVE SMOOTH",
"336 24 OFFCURVE",
"162 218 OFFCURVE",
"162 540 CURVE SMOOTH",
"162 862 OFFCURVE",
"338 1056 OFFCURVE",
"612 1056 CURVE",
"612 1096 LINE",
"312 1096 OFFCURVE",
"112 894 OFFCURVE",
"112 540 CURVE SMOOTH",
"112 186 OFFCURVE",
"311 -16 OFFCURVE",
"608 -16 CURVE SMOOTH",
"878 -16 OFFCURVE",
"999 182 OFFCURVE",
"1034 356 CURVE"
);
}
);
width = 1138;
},
{
layerId = "642E5713-E15A-4A7E-A28E-9A6B75A6585C";
paths = (
{
closed = 1;
nodes = (
"642 988 LINE",
"767 990 OFFCURVE",
"817 923 OFFCURVE",
"817 845 CURVE SMOOTH",
"817 812 OFFCURVE",
"814 793 OFFCURVE",
"814 763 CURVE SMOOTH",
"814 673 OFFCURVE",
"862 613 OFFCURVE",
"955 613 CURVE SMOOTH",
"1056 613 OFFCURVE",
"1108 685 OFFCURVE",
"1108 789 CURVE SMOOTH",
"1108 977 OFFCURVE",
"932 1140 OFFCURVE",
"636 1140 CURVE"
);
},
{
closed = 1;
nodes = (
"965 466 LINE",
"935 337 OFFCURVE",
"854 218 OFFCURVE",
"664 218 CURVE SMOOTH",
"461 218 OFFCURVE",
"332 374 OFFCURVE",
"332 616 CURVE SMOOTH",
"332 838 OFFCURVE",
"448 990 OFFCURVE",
"642 988 CURVE",
"636 1140 LINE",
"313 1140 OFFCURVE",
"82 936 OFFCURVE",
"82 560 CURVE SMOOTH",
"82 184 OFFCURVE",
"312 -20 OFFCURVE",
"624 -20 CURVE SMOOTH",
"942 -20 OFFCURVE",
"1087 198 OFFCURVE",
"1118 432 CURVE"
);
}
);
width = 1202;
},
{
layerId = "AF891779-7DE6-4679-9CA2-17B922C1DF84";
rightMetricsKey = "=o-6";
paths = (
{
closed = 1;
nodes = (
"664 1004 LINE",
"786 1004 OFFCURVE",
"851 945 OFFCURVE",
"851 851 CURVE SMOOTH",
"851 826 OFFCURVE",
"849 815 OFFCURVE",
"849 791 CURVE SMOOTH",
"849 717 OFFCURVE",
"895 649 OFFCURVE",
"995 649 CURVE SMOOTH",
"1094 649 OFFCURVE",
"1148 713 OFFCURVE",
"1148 821 CURVE SMOOTH",
"1148 1026 OFFCURVE",
"959 1180 OFFCURVE",
"656 1180 CURVE"
);
},
{
closed = 1;
nodes = (
"975 422 LINE",
"952 338 OFFCURVE",
"866 234 OFFCURVE",
"686 234 CURVE SMOOTH",
"490 234 OFFCURVE",
"358 393 OFFCURVE",
"358 624 CURVE SMOOTH",
"358 852 OFFCURVE",
"476 1004 OFFCURVE",
"664 1004 CURVE",
"656 1180 LINE",
"328 1180 OFFCURVE",
"98 970 OFFCURVE",
"98 580 CURVE SMOOTH",
"98 190 OFFCURVE",
"328 -20 OFFCURVE",
"650 -20 CURVE SMOOTH",
"973 -20 OFFCURVE",
"1118 173 OFFCURVE",
"1154 374 CURVE"
);
}
);
width = 1246;
}
);
leftKerningGroup = o;
leftMetricsKey = o;
rightKerningGroup = o;
unicode = 0063;
},
{
glyphname = d;
lastChange = "2020-08-19 13:37:19 +0000";
layers = (
{
hints = (
{
origin = "{0, 1}";
scale = "{-0.9, 1}";
type = Corner;
name = _corner.Serif;
},
{
origin = "{0, 6}";
scale = "{-0.9, 1}";
type = Corner;
name = _corner.Serif;
}
);
layerId = "CA54B7DC-FBBB-40FE-ACF3-AABDD76D6A7B";
paths = (
{
closed = 1;
nodes = (
"1094 1520 LINE",
"1046 1520 LINE",
"1046 746 LINE",
"1076 550 LINE",
"1050 334 LINE",
"1050 0 LINE",
"1094 0 LINE"
);
},
{
closed = 1;
nodes = (
"912 -16 OFFCURVE",
"1090 198 OFFCURVE",
"1090 550 CURVE SMOOTH",
"1090 902 OFFCURVE",
"912 1116 OFFCURVE",
"618 1116 CURVE SMOOTH",
"344 1116 OFFCURVE",
"146 902 OFFCURVE",
"146 550 CURVE SMOOTH",
"146 198 OFFCURVE",
"344 -16 OFFCURVE",
"618 -16 CURVE SMOOTH"
);
},
{
closed = 1;
nodes = (
"370 24 OFFCURVE",
"194 220 OFFCURVE",
"194 550 CURVE SMOOTH",
"194 880 OFFCURVE",
"370 1076 OFFCURVE",
"618 1076 CURVE SMOOTH",
"870 1076 OFFCURVE",
"1050 880 OFFCURVE",
"1050 550 CURVE SMOOTH",
"1050 220 OFFCURVE",
"870 24 OFFCURVE",
"618 24 CURVE SMOOTH"
);
}
);
width = 1386;
},
{
hints = (
{
origin = "{0, 6}";
scale = "{-0.9, 1}";
type = Corner;
name = _corner.Serif;
},
{
origin = "{0, 1}";
scale = "{-0.9, 1}";
type = Corner;
name = _corner.Serif;
}
);
layerId = "1E61A082-F045-49A7-AB52-DD1B03FD9B54";
paths = (
{
closed = 1;
nodes = (
"1060 1480 LINE",
"1012 1480 LINE",
"1012 736 LINE",
"1042 540 LINE",
"1016 324 LINE",
"1016 0 LINE",
"1060 0 LINE"
);
},
{
closed = 1;
nodes = (
"878 -16 OFFCURVE",
"1056 194 OFFCURVE",
"1056 540 CURVE SMOOTH",
"1056 886 OFFCURVE",
"878 1096 OFFCURVE",
"584 1096 CURVE SMOOTH",
"310 1096 OFFCURVE",
"112 886 OFFCURVE",
"112 540 CURVE SMOOTH",
"112 194 OFFCURVE",
"310 -16 OFFCURVE",
"584 -16 CURVE SMOOTH"
);
},
{
closed = 1;
nodes = (
"336 24 OFFCURVE",
"160 216 OFFCURVE",
"160 540 CURVE SMOOTH",
"160 864 OFFCURVE",
"336 1056 OFFCURVE",
"584 1056 CURVE SMOOTH",
"836 1056 OFFCURVE",
"1016 864 OFFCURVE",
"1016 540 CURVE SMOOTH",
"1016 216 OFFCURVE",
"836 24 OFFCURVE",
"584 24 CURVE SMOOTH"
);
}
);
width = 1306;
},
{
hints = (
{
origin = "{0, 6}";
scale = "{-0.9, 1}";
type = Corner;
name = _corner.Serif;
},
{
origin = "{0, 1}";
scale = "{-0.9, 0.98}";
type = Corner;
name = _corner.Serif;
}
);
layerId = "642E5713-E15A-4A7E-A28E-9A6B75A6585C";
paths = (
{
closed = 1;
nodes = (
"1252 1480 LINE",
"972 1480 LINE",
"972 776 LINE",
"1046 560 LINE",
"1014 319 LINE",
"1014 0 LINE",
"1252 0 LINE"
);
},
{
closed = 1;
nodes = (
"940 -16 OFFCURVE",
"1097 201 OFFCURVE",
"1097 560 CURVE SMOOTH",
"1097 919 OFFCURVE",
"940 1136 OFFCURVE",
"624 1136 CURVE SMOOTH",
"306 1136 OFFCURVE",
"82 919 OFFCURVE",
"82 560 CURVE SMOOTH",
"82 201 OFFCURVE",
"306 -16 OFFCURVE",
"624 -16 CURVE SMOOTH"
);
},
{
closed = 1;
nodes = (
"503 152 OFFCURVE",
"382 300 OFFCURVE",
"382 560 CURVE SMOOTH",
"382 820 OFFCURVE",
"503 970 OFFCURVE",
"682 970 CURVE SMOOTH",
"865 970 OFFCURVE",
"986 820 OFFCURVE",
"986 560 CURVE SMOOTH",
"986 300 OFFCURVE",
"865 152 OFFCURVE",
"682 152 CURVE SMOOTH"
);
}
);
width = 1476;
},
{
hints = (
{
origin = "{0, 1}";
scale = "{-0.9, 0.98}";
type = Corner;
name = _corner.Serif;
},
{
origin = "{0, 6}";
scale = "{-0.9, 1}";
type = Corner;
name = _corner.Serif;
}
);
layerId = "AF891779-7DE6-4679-9CA2-17B922C1DF84";
paths = (
{
closed = 1;
nodes = (
"1276 1530 LINE",
"996 1530 LINE",
"996 816 LINE",
"1070 580 LINE",
"1038 309 LINE",
"1038 0 LINE",
"1276 0 LINE"
);
},
{
closed = 1;
nodes = (
"973 -16 OFFCURVE",
"1128 209 OFFCURVE",
"1128 580 CURVE SMOOTH",
"1128 951 OFFCURVE",
"973 1176 OFFCURVE",
"650 1176 CURVE SMOOTH",
"330 1176 OFFCURVE",
"98 951 OFFCURVE",
"98 580 CURVE SMOOTH",
"98 209 OFFCURVE",
"330 -16 OFFCURVE",
"650 -16 CURVE SMOOTH"
);
},
{
closed = 1;
nodes = (
"517 176 OFFCURVE",
"398 319 OFFCURVE",
"398 580 CURVE SMOOTH",
"398 841 OFFCURVE",
"517 988 OFFCURVE",
"702 988 CURVE SMOOTH",
"891 988 OFFCURVE",
"1010 841 OFFCURVE",
"1010 580 CURVE SMOOTH",
"1010 319 OFFCURVE",
"891 176 OFFCURVE",
"702 176 CURVE SMOOTH"
);
}
);
width = 1516;
}
);
leftKerningGroup = o;
leftMetricsKey = o;
rightKerningGroup = l;
rightMetricsKey = l;
unicode = 0064;
},
{
glyphname = e;
lastChange = "2020-08-19 16:30:10 +0000";
layers = (
{
layerId = "CA54B7DC-FBBB-40FE-ACF3-AABDD76D6A7B";
paths = (
{
closed = 1;
nodes = (
"1036 324 LINE",
"1005 205 OFFCURVE",
"897 26 OFFCURVE",
"640 26 CURVE SMOOTH",
"374 26 OFFCURVE",
"196 222 OFFCURVE",
"196 550 CURVE SMOOTH",
"196 878 OFFCURVE",
"376 1076 OFFCURVE",
"642 1076 CURVE",
"642 1116 LINE",
"352 1116 OFFCURVE",
"146 910 OFFCURVE",
"146 550 CURVE SMOOTH",
"146 190 OFFCURVE",
"350 -16 OFFCURVE",
"640 -16 CURVE SMOOTH",
"922 -16 OFFCURVE",
"1047 177 OFFCURVE",
"1078 314 CURVE"
);
},
{
closed = 1;
nodes = (
"1096 612 LINE",
"1096 908 OFFCURVE",
"930 1116 OFFCURVE",
"642 1116 CURVE",
"642 1076 LINE",
"906 1076 OFFCURVE",
"1040 880 OFFCURVE",
"1052 636 CURVE"
);
},
{
closed = 1;
nodes = (
"180 596 LINE",
"1096 596 LINE",
"1096 612 LINE",
"1052 636 LINE",
"180 636 LINE"
);
}
);
width = 1242;
},
{
layerId = "1E61A082-F045-49A7-AB52-DD1B03FD9B54";
paths = (
{
closed = 1;
nodes = (
"1008 380 LINE",
"976 238 OFFCURVE",
"873 26 OFFCURVE",
"606 26 CURVE SMOOTH",
"342 26 OFFCURVE",
"162 218 OFFCURVE",
"162 540 CURVE SMOOTH",
"162 862 OFFCURVE",
"342 1056 OFFCURVE",
"606 1056 CURVE",
"606 1096 LINE",
"318 1096 OFFCURVE",
"112 894 OFFCURVE",
"112 540 CURVE SMOOTH",
"112 186 OFFCURVE",
"318 -16 OFFCURVE",
"606 -16 CURVE SMOOTH",
"897 -16 OFFCURVE",
"1018 210 OFFCURVE",
"1050 370 CURVE"
);
},
{
closed = 1;
nodes = (
"1056 600 LINE",
"1056 892 OFFCURVE",
"892 1096 OFFCURVE",
"606 1096 CURVE",
"606 1056 LINE",
"868 1056 OFFCURVE",
"1000 863 OFFCURVE",
"1012 624 CURVE"
);
},
{
closed = 1;
nodes = (
"146 584 LINE",
"1056 584 LINE",
"1056 600 LINE",
"1012 624 LINE",
"146 624 LINE"
);
}
);
width = 1168;
},
{
layerId = "642E5713-E15A-4A7E-A28E-9A6B75A6585C";
paths = (
{
closed = 1;
nodes = (
"973 433 LINE",
"948 336 OFFCURVE",
"872 220 OFFCURVE",
"672 220 CURVE SMOOTH",
"464 220 OFFCURVE",
"338 382 OFFCURVE",
"338 626 CURVE SMOOTH",
"338 853 OFFCURVE",
"431 988 OFFCURVE",
"618 988 CURVE",
"626 1140 LINE",
"309 1140 OFFCURVE",
"82 930 OFFCURVE",
"82 560 CURVE SMOOTH",
"82 190 OFFCURVE",
"309 -20 OFFCURVE",
"626 -20 CURVE SMOOTH",
"952 -20 OFFCURVE",
"1101 201 OFFCURVE",
"1129 399 CURVE"
);
},
{
closed = 1;
nodes = (
"1146 626 LINE",
"1146 930 OFFCURVE",
"955 1140 OFFCURVE",
"626 1140 CURVE",
"618 988 LINE",
"787 987 OFFCURVE",
"862 862 OFFCURVE",
"864 714 CURVE"
);
},
{
closed = 1;
nodes = (
"182 556 LINE",
"1146 556 LINE",
"1146 626 LINE",
"864 714 LINE",
"182 714 LINE"
);
}
);
width = 1228;
},
{
layerId = "AF891779-7DE6-4679-9CA2-17B922C1DF84";
paths = (
{
closed = 1;
nodes = (
"991 395 LINE",
"963 323 OFFCURVE",
"889 226 OFFCURVE",
"704 226 CURVE SMOOTH",
"488 226 OFFCURVE",
"358 385 OFFCURVE",
"358 626 CURVE SMOOTH",
"358 860 OFFCURVE",
"458 1004 OFFCURVE",
"654 1004 CURVE",
"654 1180 LINE",
"326 1180 OFFCURVE",
"98 963 OFFCURVE",
"98 580 CURVE SMOOTH",
"98 197 OFFCURVE",
"326 -20 OFFCURVE",
"654 -20 CURVE SMOOTH",
"989 -20 OFFCURVE",
"1119 172 OFFCURVE",
"1164 325 CURVE"
);
},
{
closed = 1;
nodes = (
"1184 636 LINE",
"1184 960 OFFCURVE",
"992 1180 OFFCURVE",
"654 1180 CURVE",
"654 1004 LINE",
"823 1003 OFFCURVE",
"904 880 OFFCURVE",
"904 742 CURVE"
);
},
{
closed = 1;
nodes = (
"214 562 LINE",
"1184 562 LINE",
"1184 636 LINE",
"904 742 LINE",
"214 742 LINE"
);
}
);
width = 1282;
}
);
leftKerningGroup = o;
leftMetricsKey = o;
rightKerningGroup = o;
rightMetricsKey = o;
unicode = 0065;
},
{
glyphname = f;
lastChange = "2020-08-19 17:07:05 +0000";
layers = (
{
hints = (
{
origin = "{1, 0}";
type = Corner;
name = _corner.Serif;
},
{
origin = "{1, 1}";
scale = "{-1.2, 1}";
type = Corner;
name = _corner.Serif;
options = 1;
}
);
layerId = "CA54B7DC-FBBB-40FE-ACF3-AABDD76D6A7B";
paths = (
{
closed = 1;
nodes = (
"32 1060 LINE",
"760 1060 LINE",
"760 1100 LINE",
"32 1100 LINE"
);
},
{
closed = 1;
nodes = (
"332 0 LINE",
"380 0 LINE",
"380 1170 LINE",
"332 1166 LINE"
);
},
{
closed = 1;
nodes = (
"459 1580 OFFCURVE",
"332 1439 OFFCURVE",
"332 1166 CURVE",
"380 1170 LINE",
"380 1419 OFFCURVE",
"489 1540 OFFCURVE",
"686 1540 CURVE SMOOTH",
"817 1540 OFFCURVE",
"885 1482 OFFCURVE",
"879 1369 CURVE SMOOTH",
"877 1332 OFFCURVE",
"883 1310 OFFCURVE",
"908 1310 CURVE SMOOTH",
"938 1310 OFFCURVE",
"942 1333 OFFCURVE",
"942 1378 CURVE SMOOTH",
"942 1511 OFFCURVE",
"832 1580 OFFCURVE",
"686 1580 CURVE SMOOTH"
);
}
);
width = 828;
},
{
hints = (
{
origin = "{1, 0}";
type = Corner;
name = _corner.Serif;
},
{
origin = "{1, 1}";
scale = "{-1.4, 1}";
type = Corner;
name = _corner.Serif;
options = 1;
}
);
layerId = "1E61A082-F045-49A7-AB52-DD1B03FD9B54";
paths = (
{
closed = 1;
nodes = (
"2 1040 LINE",
"730 1040 LINE",
"730 1080 LINE",
"2 1080 LINE"
);
},
{
closed = 1;
nodes = (
"302 0 LINE",
"350 0 LINE",
"350 1140 LINE",
"302 1136 LINE"
);
},
{
closed = 1;
nodes = (
"423 1540 OFFCURVE",
"302 1402 OFFCURVE",
"302 1136 CURVE",
"350 1140 LINE",
"350 1382 OFFCURVE",
"453 1500 OFFCURVE",
"640 1500 CURVE SMOOTH",
"753 1500 OFFCURVE",
"821 1442 OFFCURVE",
"811 1339 CURVE SMOOTH",
"807 1297 OFFCURVE",
"816 1274 OFFCURVE",
"842 1274 CURVE SMOOTH",
"867 1274 OFFCURVE",
"876 1298 OFFCURVE",
"876 1346 CURVE SMOOTH",
"876 1478 OFFCURVE",
"778 1540 OFFCURVE",
"640 1540 CURVE SMOOTH"
);
}
);
width = 768;
},
{
hints = (
{
origin = "{1, 0}";
type = Corner;
name = _corner.Serif;
},
{
origin = "{1, 1}";
scale = "{-1.4, 1}";
type = Corner;
name = _corner.Serif;
}
);
layerId = "642E5713-E15A-4A7E-A28E-9A6B75A6585C";
paths = (
{
closed = 1;
nodes = (
"34 962 LINE",
"912 962 LINE",
"912 1120 LINE",
"34 1120 LINE"
);
},
{
closed = 1;
nodes = (
"284 0 LINE",
"564 0 LINE",
"564 1240 LINE",
"284 1130 LINE"
);
},
{
closed = 1;
nodes = (
"444 1580 OFFCURVE",
"284 1427 OFFCURVE",
"284 1130 CURVE",
"564 1240 LINE",
"564 1381 OFFCURVE",
"620 1440 OFFCURVE",
"688 1440 CURVE SMOOTH",
"747 1440 OFFCURVE",
"768 1407 OFFCURVE",
"790 1346 CURVE SMOOTH",
"814 1280 OFFCURVE",
"854 1253 OFFCURVE",
"922 1253 CURVE SMOOTH",
"994 1253 OFFCURVE",
"1044 1302 OFFCURVE",
"1044 1378 CURVE SMOOTH",
"1044 1502 OFFCURVE",
"916 1580 OFFCURVE",
"728 1580 CURVE SMOOTH"
);
}
);
width = 946;
},
{
hints = (
{
origin = "{1, 0}";
type = Corner;
name = _corner.Serif;
},
{
origin = "{1, 1}";
scale = "{-1.2, 1}";
type = Corner;
name = _corner.Serif;
}
);
layerId = "AF891779-7DE6-4679-9CA2-17B922C1DF84";
paths = (
{
closed = 1;
nodes = (
"70 980 LINE",
"928 980 LINE",
"928 1160 LINE",
"70 1160 LINE"
);
},
{
closed = 1;
nodes = (
"320 0 LINE",
"600 0 LINE",
"600 1270 LINE",
"320 1170 LINE"
);
},
{
closed = 1;
nodes = (
"483 1630 OFFCURVE",
"320 1474 OFFCURVE",
"320 1170 CURVE",
"600 1270 LINE",
"600 1411 OFFCURVE",
"659 1470 OFFCURVE",
"734 1470 CURVE SMOOTH",
"788 1470 OFFCURVE",
"815 1446 OFFCURVE",
"848 1404 CURVE SMOOTH",
"895 1345 OFFCURVE",
"926 1309 OFFCURVE",
"998 1309 CURVE SMOOTH",
"1075 1309 OFFCURVE",
"1120 1352 OFFCURVE",
"1120 1432 CURVE SMOOTH",
"1120 1556 OFFCURVE",
"969 1630 OFFCURVE",
"774 1630 CURVE SMOOTH"
);
}
);
width = 986;
}
);
leftKerningGroup = f;
rightKerningGroup = f;
unicode = 0066;
},
{
glyphname = g;
lastChange = "2020-08-19 14:30:45 +0000";
layers = (
{
layerId = "CA54B7DC-FBBB-40FE-ACF3-AABDD76D6A7B";
paths = (
{
closed = 1;
nodes = (
"852 368 OFFCURVE",
"1016 514 OFFCURVE",
"1016 738 CURVE SMOOTH",
"1016 918 OFFCURVE",
"914 1026 OFFCURVE",
"790 1068 CURVE",
"632 1108 LINE",
"388 1108 OFFCURVE",
"224 962 OFFCURVE",
"224 738 CURVE SMOOTH",
"224 514 OFFCURVE",
"388 368 OFFCURVE",
"620 368 CURVE SMOOTH"
);
},
{
closed = 1;
nodes = (
"418 408 OFFCURVE",
"272 538 OFFCURVE",
"272 738 CURVE SMOOTH",
"272 938 OFFCURVE",
"418 1068 OFFCURVE",
"620 1068 CURVE SMOOTH",
"822 1068 OFFCURVE",
"968 938 OFFCURVE",
"968 738 CURVE SMOOTH",
"968 538 OFFCURVE",
"822 408 OFFCURVE",
"620 408 CURVE SMOOTH"
);
},
{
closed = 1;
nodes = (
"790 1068 LINE",
"1184 1068 LINE",
"1184 1108 LINE",
"632 1108 LINE"
);
},
{
closed = 1;
nodes = (
"214 514 OFFCURVE",
"104 442 OFFCURVE",
"104 306 CURVE SMOOTH",
"104 182 OFFCURVE",
"202 100 OFFCURVE",
"350 100 CURVE SMOOTH",
"920 100 LINE SMOOTH",
"1062 100 OFFCURVE",
"1122 32 OFFCURVE",
"1122 -90 CURVE SMOOTH",
"1122 -213 OFFCURVE",
"1039 -340 OFFCURVE",
"806 -340 CURVE SMOOTH",
"512 -340 LINE SMOOTH",
"307 -340 OFFCURVE",
"218 -252 OFFCURVE",
"218 -114 CURVE SMOOTH",
"218 7 OFFCURVE",
"306 75 OFFCURVE",
"356 100 CURVE",
"336 131 LINE",
"262 94 OFFCURVE",
"170 17 OFFCURVE",
"170 -114 CURVE SMOOTH",
"170 -280 OFFCURVE",
"280 -380 OFFCURVE",
"512 -380 CURVE SMOOTH",
"806 -380 LINE SMOOTH",
"1069 -380 OFFCURVE",
"1168 -232 OFFCURVE",
"1168 -88 CURVE SMOOTH",
"1168 55 OFFCURVE",
"1090 140 OFFCURVE",
"922 140 CURVE SMOOTH",
"354 140 LINE SMOOTH",
"232 140 OFFCURVE",
"152 210 OFFCURVE",
"152 306 CURVE SMOOTH",
"152 414 OFFCURVE",
"226 468 OFFCURVE",
"326 478 CURVE",
"322 518 LINE"
);
}
);
width = 1296;
},
{
layerId = "1E61A082-F045-49A7-AB52-DD1B03FD9B54";
paths = (
{
closed = 1;
nodes = (
"840 360 OFFCURVE",
"1004 503 OFFCURVE",
"1004 724 CURVE SMOOTH",
"1004 901 OFFCURVE",
"905 1007 OFFCURVE",
"784 1048 CURVE",
"620 1088 LINE",
"376 1088 OFFCURVE",
"212 945 OFFCURVE",
"212 724 CURVE SMOOTH",
"212 503 OFFCURVE",
"376 360 OFFCURVE",
"608 360 CURVE SMOOTH"
);
},
{
closed = 1;
nodes = (
"406 400 OFFCURVE",
"260 527 OFFCURVE",
"260 724 CURVE SMOOTH",
"260 921 OFFCURVE",
"406 1048 OFFCURVE",
"608 1048 CURVE SMOOTH",
"810 1048 OFFCURVE",
"956 921 OFFCURVE",
"956 724 CURVE SMOOTH",
"956 527 OFFCURVE",
"810 400 OFFCURVE",
"608 400 CURVE SMOOTH"
);
},
{
closed = 1;
nodes = (
"784 1048 LINE",
"1172 1048 LINE",
"1172 1088 LINE",
"620 1088 LINE"
);
},
{
closed = 1;
nodes = (
"207 510 OFFCURVE",
"92 438 OFFCURVE",
"92 303 CURVE SMOOTH",
"92 181 OFFCURVE",
"190 100 OFFCURVE",
"338 100 CURVE SMOOTH",
"908 100 LINE SMOOTH",
"1050 100 OFFCURVE",
"1110 32 OFFCURVE",
"1110 -90 CURVE SMOOTH",
"1110 -213 OFFCURVE",
"1027 -340 OFFCURVE",
"794 -340 CURVE SMOOTH",
"500 -340 LINE SMOOTH",
"295 -340 OFFCURVE",
"206 -252 OFFCURVE",
"206 -114 CURVE SMOOTH",
"206 7 OFFCURVE",
"294 75 OFFCURVE",
"344 100 CURVE",
"324 131 LINE",
"250 94 OFFCURVE",
"158 17 OFFCURVE",
"158 -114 CURVE SMOOTH",
"158 -280 OFFCURVE",
"268 -380 OFFCURVE",
"500 -380 CURVE SMOOTH",
"794 -380 LINE SMOOTH",
"1057 -380 OFFCURVE",
"1156 -232 OFFCURVE",
"1156 -88 CURVE SMOOTH",
"1156 55 OFFCURVE",
"1078 140 OFFCURVE",
"910 140 CURVE SMOOTH",
"342 140 LINE SMOOTH",
"220 140 OFFCURVE",
"140 209 OFFCURVE",
"140 303 CURVE SMOOTH",
"140 410 OFFCURVE",
"218 464 OFFCURVE",
"324 474 CURVE",
"320 514 LINE"
);
}
);
width = 1264;
},
{
layerId = "642E5713-E15A-4A7E-A28E-9A6B75A6585C";
paths = (
{
closed = 1;
nodes = (
"934 394 OFFCURVE",
"1129 528 OFFCURVE",
"1129 742 CURVE SMOOTH",
"1129 867 OFFCURVE",
"1053 943 OFFCURVE",
"956 977 CURVE",
"634 1130 LINE",
"330 1130 OFFCURVE",
"132 986 OFFCURVE",
"132 762 CURVE SMOOTH",
"132 538 OFFCURVE",
"330 394 OFFCURVE",
"632 394 CURVE SMOOTH"
);
},
{
closed = 1;
nodes = (
"509 540 OFFCURVE",
"428 630 OFFCURVE",
"428 764 CURVE SMOOTH",
"428 898 OFFCURVE",
"509 988 OFFCURVE",
"632 988 CURVE SMOOTH",
"755 988 OFFCURVE",
"836 898 OFFCURVE",
"836 764 CURVE SMOOTH",
"836 630 OFFCURVE",
"755 540 OFFCURVE",
"632 540 CURVE SMOOTH"
);
},
{
closed = 1;
nodes = (
"956 977 LINE",
"1276 977 LINE",
"1276 1130 LINE",
"634 1130 LINE"
);
},
{
closed = 1;
nodes = (
"158 592 OFFCURVE",
"-2 512 OFFCURVE",
"-2 317 CURVE SMOOTH",
"-2 139 OFFCURVE",
"148 26 OFFCURVE",
"344 26 CURVE SMOOTH",
"918 26 LINE SMOOTH",
"997 26 OFFCURVE",
"1030 -11 OFFCURVE",
"1030 -70 CURVE SMOOTH",
"1030 -152 OFFCURVE",
"957 -222 OFFCURVE",
"795 -222 CURVE SMOOTH",
"533 -222 LINE SMOOTH",
"383 -222 OFFCURVE",
"337 -155 OFFCURVE",
"337 -63 CURVE SMOOTH",
"337 -9 OFFCURVE",
"354 24 OFFCURVE",
"387 68 CURVE",
"371 92 LINE",
"253 56 OFFCURVE",
"125 7 OFFCURVE",
"125 -148 CURVE SMOOTH",
"125 -295 OFFCURVE",
"264 -380 OFFCURVE",
"505 -380 CURVE SMOOTH",
"787 -380 LINE SMOOTH",
"1102 -380 OFFCURVE",
"1284 -247 OFFCURVE",
"1284 -18 CURVE SMOOTH",
"1284 156 OFFCURVE",
"1173 270 OFFCURVE",
"938 270 CURVE SMOOTH",
"338 270 LINE SMOOTH",
"260 270 OFFCURVE",
"206 309 OFFCURVE",
"206 382 CURVE SMOOTH",
"206 455 OFFCURVE",
"260 494 OFFCURVE",
"338 494 CURVE",
"344 592 LINE"
);
}
);
width = 1316;
},
{
layerId = "AF891779-7DE6-4679-9CA2-17B922C1DF84";
paths = (
{
closed = 1;
nodes = (
"992 410 OFFCURVE",
"1185 550 OFFCURVE",
"1185 770 CURVE SMOOTH",
"1185 890 OFFCURVE",
"1118 961 OFFCURVE",
"1040 997 CURVE",
"696 1170 LINE",
"396 1170 OFFCURVE",
"200 1020 OFFCURVE",
"200 790 CURVE SMOOTH",
"200 560 OFFCURVE",
"396 410 OFFCURVE",
"694 410 CURVE SMOOTH"
);
},
{
closed = 1;
nodes = (
"575 578 OFFCURVE",
"496 664 OFFCURVE",
"496 792 CURVE SMOOTH",
"496 920 OFFCURVE",
"575 1006 OFFCURVE",
"694 1006 CURVE SMOOTH",
"813 1006 OFFCURVE",
"892 920 OFFCURVE",
"892 792 CURVE SMOOTH",
"892 664 OFFCURVE",
"813 578 OFFCURVE",
"694 578 CURVE SMOOTH"
);
},
{
closed = 1;
nodes = (
"1040 997 LINE",
"1288 997 LINE",
"1288 1170 LINE",
"696 1170 LINE"
);
},
{
closed = 1;
nodes = (
"220 602 OFFCURVE",
"60 516 OFFCURVE",
"60 318 CURVE SMOOTH",
"60 153 OFFCURVE",
"190 36 OFFCURVE",
"386 36 CURVE SMOOTH",
"980 36 LINE SMOOTH",
"1059 36 OFFCURVE",
"1092 -1 OFFCURVE",
"1092 -60 CURVE SMOOTH",
"1092 -137 OFFCURVE",
"1019 -202 OFFCURVE",
"857 -202 CURVE SMOOTH",
"595 -202 LINE SMOOTH",
"445 -202 OFFCURVE",
"399 -139 OFFCURVE",
"399 -53 CURVE SMOOTH",
"399 -3 OFFCURVE",
"416 27 OFFCURVE",
"449 68 CURVE",
"413 112 LINE",
"321 77 OFFCURVE",
"187 28 OFFCURVE",
"187 -124 CURVE SMOOTH",
"187 -286 OFFCURVE",
"326 -380 OFFCURVE",
"567 -380 CURVE SMOOTH",
"849 -380 LINE SMOOTH",
"1164 -380 OFFCURVE",
"1346 -250 OFFCURVE",
"1346 -26 CURVE SMOOTH",
"1346 155 OFFCURVE",
"1235 274 OFFCURVE",
"1000 274 CURVE SMOOTH",
"400 274 LINE SMOOTH",
"322 274 OFFCURVE",
"268 312 OFFCURVE",
"268 382 CURVE SMOOTH",
"268 452 OFFCURVE",
"322 490 OFFCURVE",
"400 490 CURVE",
"406 602 LINE"
);
}
);
width = 1404;
}
);
leftKerningGroup = g;
rightKerningGroup = g;
unicode = 0067;
},
{
glyphname = h;
lastChange = "2020-08-19 12:49:21 +0000";
layers = (
{
hints = (
{
origin = "{0, 3}";
scale = "{-0.9, 1}";
type = Corner;
name = _corner.Serif;
},
{
origin = "{0, 0}";
type = Corner;
name = _corner.Serif;
options = 1;
},
{
origin = "{0, 1}";
scale = "{-1, 1}";
type = Corner;
name = _corner.Serif;
},
{
origin = "{1, 7}";
type = Corner;
name = _corner.Serif;
},
{
origin = "{1, 8}";
scale = "{-0.86, 1}";
type = Corner;
name = _corner.Serif;
options = 1;
}
);
layerId = "CA54B7DC-FBBB-40FE-ACF3-AABDD76D6A7B";
paths = (
{
closed = 1;
nodes = (
"292 0 LINE",
"340 0 LINE",
"340 1520 LINE",
"292 1520 LINE"
);
},
{
closed = 1;
nodes = (
"340 552 LINE",
"340 914 OFFCURVE",
"544 1076 OFFCURVE",
"762 1076 CURVE SMOOTH",
"924 1076 OFFCURVE",
"1024 1002 OFFCURVE",
"1024 824 CURVE SMOOTH",
"1024 0 LINE",
"1072 0 LINE",
"1072 824 LINE SMOOTH",
"1072 1034 OFFCURVE",
"944 1116 OFFCURVE",
"764 1116 CURVE SMOOTH",
"526 1116 OFFCURVE",
"302 954 OFFCURVE",
"302 552 CURVE"
);
}
);
width = 1334;
},
{
hints = (
{
origin = "{0, 3}";
scale = "{-0.9, 1}";
type = Corner;
name = _corner.Serif;
},
{
origin = "{0, 0}";
type = Corner;
name = _corner.Serif;
options = 1;
},
{
origin = "{0, 1}";
scale = "{-1, 1}";
type = Corner;
name = _corner.Serif;
},
{
origin = "{1, 7}";
type = Corner;
name = _corner.Serif;
},
{
origin = "{1, 8}";
scale = "{-0.86, 1}";
type = Corner;
name = _corner.Serif;
options = 1;
}
);
layerId = "1E61A082-F045-49A7-AB52-DD1B03FD9B54";
paths = (
{
closed = 1;
nodes = (
"264 0 LINE",
"312 0 LINE",
"312 1480 LINE",
"264 1480 LINE"
);
},
{
closed = 1;
nodes = (
"312 552 LINE",
"312 900 OFFCURVE",
"516 1056 OFFCURVE",
"734 1056 CURVE SMOOTH",
"896 1056 OFFCURVE",
"996 985 OFFCURVE",
"996 814 CURVE SMOOTH",
"996 0 LINE",
"1044 0 LINE",
"1044 814 LINE SMOOTH",
"1044 1017 OFFCURVE",
"916 1096 OFFCURVE",
"736 1096 CURVE SMOOTH",
"498 1096 OFFCURVE",
"274 940 OFFCURVE",
"274 552 CURVE"
);
}
);
width = 1278;
},
{
hints = (
{
origin = "{0, 0}";
type = Corner;
name = _corner.Serif;
},
{
origin = "{0, 1}";
scale = "{-0.76, 1}";
type = Corner;
name = _corner.Serif;
options = 1;
},
{
origin = "{1, 7}";
scale = "{0.76, 1}";
type = Corner;
name = _corner.Serif;
options = 1;
},
{
origin = "{1, 8}";
scale = "{-0.8, 1}";
type = Corner;
name = _corner.Serif;
},
{
origin = "{0, 3}";
scale = "{-0.9, 0.98}";
type = Corner;
name = _corner.Serif;
}
);
layerId = "642E5713-E15A-4A7E-A28E-9A6B75A6585C";
paths = (
{
closed = 1;
nodes = (
"244 0 LINE",
"522 0 LINE",
"522 1480 LINE",
"244 1480 LINE"
);
},
{
closed = 1;
nodes = (
"522 652 LINE",
"522 879 OFFCURVE",
"643 942 OFFCURVE",
"752 942 CURVE SMOOTH",
"848 942 OFFCURVE",
"902 893 OFFCURVE",
"902 800 CURVE SMOOTH",
"902 0 LINE",
"1180 0 LINE",
"1180 810 LINE SMOOTH",
"1180 1041 OFFCURVE",
"1038 1140 OFFCURVE",
"836 1140 CURVE SMOOTH",
"598 1140 OFFCURVE",
"460 1007 OFFCURVE",
"460 652 CURVE"
);
}
);
width = 1384;
},
{
hints = (
{
origin = "{0, 0}";
type = Corner;
name = _corner.Serif;
},
{
origin = "{0, 1}";
scale = "{-0.7, 1}";
type = Corner;
name = _corner.Serif;
options = 1;
},
{
origin = "{1, 7}";
scale = "{0.7, 1}";
type = Corner;
name = _corner.Serif;
options = 1;
},
{
origin = "{1, 8}";
scale = "{-0.8, 1}";
type = Corner;
name = _corner.Serif;
},
{
origin = "{0, 3}";
scale = "{-0.9, 0.98}";
type = Corner;
name = _corner.Serif;
}
);
layerId = "AF891779-7DE6-4679-9CA2-17B922C1DF84";
paths = (
{
closed = 1;
nodes = (
"252 0 LINE",
"530 0 LINE",
"530 1530 LINE",
"252 1530 LINE"
);
},
{
closed = 1;
nodes = (
"530 694 LINE",
"530 904 OFFCURVE",
"643 974 OFFCURVE",
"768 974 CURVE SMOOTH",
"865 974 OFFCURVE",
"922 926 OFFCURVE",
"922 832 CURVE SMOOTH",
"922 0 LINE",
"1200 0 LINE",
"1200 854 LINE SMOOTH",
"1200 1083 OFFCURVE",
"1057 1180 OFFCURVE",
"852 1180 CURVE SMOOTH",
"576 1180 OFFCURVE",
"448 1010 OFFCURVE",
"448 694 CURVE"
);
}
);
width = 1416;
}
);
leftKerningGroup = l;
leftMetricsKey = l;
rightKerningGroup = n;
rightMetricsKey = n;
unicode = 0068;
},
{
glyphname = idotless;
lastChange = "2020-08-19 12:36:29 +0000";
layers = (
{
anchors = (
{
name = top;
position = "{312, 1100}";
}
);
hints = (
{
origin = "{0, 3}";
scale = "{-0.9, 1}";
type = Corner;
name = _corner.Serif;
},
{
origin = "{0, 0}";
type = Corner;
name = _corner.Serif;
options = 1;
},
{
origin = "{0, 1}";
scale = "{-0.9, 1}";
type = Corner;
name = _corner.Serif;
}
);
layerId = "CA54B7DC-FBBB-40FE-ACF3-AABDD76D6A7B";
paths = (
{
closed = 1;
nodes = (
"292 0 LINE",
"340 0 LINE",
"340 1100 LINE",
"292 1100 LINE"
);
}
);
width = 632;
},
{
anchors = (
{
name = top;
position = "{284, 1080}";
}
);
hints = (
{
origin = "{0, 3}";
scale = "{-0.9, 1}";
type = Corner;
name = _corner.Serif;
},
{
origin = "{0, 0}";
type = Corner;
name = _corner.Serif;
options = 1;
},
{
origin = "{0, 1}";
scale = "{-0.9, 1}";
type = Corner;
name = _corner.Serif;
}
);
layerId = "1E61A082-F045-49A7-AB52-DD1B03FD9B54";
paths = (
{
closed = 1;
nodes = (
"264 0 LINE",
"312 0 LINE",
"312 1080 LINE",
"264 1080 LINE"
);
}
);
width = 558;
},
{
anchors = (
{
name = top;
position = "{378, 1120}";
}
);
hints = (
{
origin = "{0, 3}";
scale = "{-0.9, 0.98}";
type = Corner;
name = _corner.Serif;
},
{
origin = "{0, 0}";
type = Corner;
name = _corner.Serif;
options = 1;
},
{
origin = "{0, 1}";
scale = "{-0.9, 1}";
type = Corner;
name = _corner.Serif;
}
);
layerId = "642E5713-E15A-4A7E-A28E-9A6B75A6585C";
paths = (
{
closed = 1;
nodes = (
"244 0 LINE",
"522 0 LINE",
"522 1120 LINE",
"244 1120 LINE"
);
}
);
width = 746;
},
{
anchors = (
{
name = top;
position = "{386, 1160}";
}
);
hints = (
{
origin = "{0, 3}";
scale = "{-0.9, 0.98}";
type = Corner;
name = _corner.Serif;
},
{
origin = "{0, 0}";
type = Corner;
name = _corner.Serif;
options = 1;
},
{
origin = "{0, 1}";
scale = "{-0.9, 1}";
type = Corner;
name = _corner.Serif;
}
);
layerId = "AF891779-7DE6-4679-9CA2-17B922C1DF84";
paths = (
{
closed = 1;
nodes = (
"252 0 LINE",
"530 0 LINE",
"530 1160 LINE",
"252 1160 LINE"
);
}
);
width = 770;
}
);
leftKerningGroup = n;
leftMetricsKey = l;
rightKerningGroup = l;
rightMetricsKey = l;
unicode = 0131;
},
{
glyphname = jdotless;
lastChange = "2020-08-19 17:00:02 +0000";
layers = (
{
anchors = (
{
name = top;
position = "{312, 1100}";
}
);
hints = (
{
origin = "{0, 3}";
scale = "{-0.9, 1}";
type = Corner;
name = _corner.Serif;
}
);
layerId = "CA54B7DC-FBBB-40FE-ACF3-AABDD76D6A7B";
paths = (
{
closed = 1;
nodes = (
"292 -110 LINE",
"340 -106 LINE",
"340 1100 LINE",
"292 1100 LINE"
);
},
{
closed = 1;
nodes = (
"254 -400 OFFCURVE",
"340 -300 OFFCURVE",
"340 -106 CURVE",
"292 -110 LINE",
"292 -278 OFFCURVE",
"224 -360 OFFCURVE",
"102 -360 CURVE SMOOTH",
"-6 -360 OFFCURVE",
"-60 -306 OFFCURVE",
"-58 -203 CURVE SMOOTH",
"-57 -164 OFFCURVE",
"-63 -144 OFFCURVE",
"-87 -144 CURVE SMOOTH",
"-112 -144 OFFCURVE",
"-122 -164 OFFCURVE",
"-122 -204 CURVE SMOOTH",
"-122 -334 OFFCURVE",
"-22 -400 OFFCURVE",
"101 -400 CURVE SMOOTH"
);
}
);
width = 504;
},
{
anchors = (
{
name = top;
position = "{312, 1080}";
}
);
hints = (
{
origin = "{0, 3}";
scale = "{-0.9, 1}";
type = Corner;
name = _corner.Serif;
}
);
layerId = "1E61A082-F045-49A7-AB52-DD1B03FD9B54";
paths = (
{
closed = 1;
nodes = (
"292 -110 LINE",
"340 -106 LINE",
"340 1080 LINE",
"292 1080 LINE"
);
},
{
closed = 1;
nodes = (
"254 -400 OFFCURVE",
"340 -300 OFFCURVE",
"340 -106 CURVE",
"292 -110 LINE",
"292 -278 OFFCURVE",
"224 -360 OFFCURVE",
"102 -360 CURVE SMOOTH",
"-6 -360 OFFCURVE",
"-65 -306 OFFCURVE",
"-58 -203 CURVE SMOOTH",
"-55 -164 OFFCURVE",
"-61 -144 OFFCURVE",
"-85 -144 CURVE SMOOTH",
"-110 -144 OFFCURVE",
"-122 -166 OFFCURVE",
"-122 -210 CURVE SMOOTH",
"-122 -336 OFFCURVE",
"-22 -400 OFFCURVE",
"101 -400 CURVE SMOOTH"
);
}
);
width = 504;
},
{
anchors = (
{
name = top;
position = "{344, 1120}";
}
);
hints = (
{
origin = "{0, 3}";
scale = "{-0.9, 0.98}";
type = Corner;
name = _corner.Serif;
}
);
layerId = "642E5713-E15A-4A7E-A28E-9A6B75A6585C";
paths = (
{
closed = 1;
nodes = (
"208 -125 LINE",
"488 -18 LINE",
"488 1120 LINE",
"208 1120 LINE"
);
},
{
closed = 1;
nodes = (
"353 -400 OFFCURVE",
"488 -270 OFFCURVE",
"488 -18 CURVE",
"208 -125 LINE",
"208 -220 OFFCURVE",
"174 -254 OFFCURVE",
"125 -254 CURVE SMOOTH",
"78 -254 OFFCURVE",
"61 -235 OFFCURVE",
"33 -188 CURVE SMOOTH",
"-2 -130 OFFCURVE",
"-33 -100 OFFCURVE",
"-96 -100 CURVE SMOOTH",
"-157 -100 OFFCURVE",
"-206 -137 OFFCURVE",
"-206 -208 CURVE SMOOTH",
"-206 -327 OFFCURVE",
"-92 -400 OFFCURVE",
"114 -400 CURVE SMOOTH"
);
}
);
width = 658;
},
{
anchors = (
{
name = top;
position = "{396, 1160}";
}
);
hints = (
{
origin = "{0, 3}";
scale = "{-0.9, 0.98}";
type = Corner;
name = _corner.Serif;
}
);
layerId = "AF891779-7DE6-4679-9CA2-17B922C1DF84";
paths = (
{
closed = 1;
nodes = (
"260 -105 LINE",
"540 -18 LINE",
"540 1160 LINE",
"260 1160 LINE"
);
},
{
closed = 1;
nodes = (
"405 -400 OFFCURVE",
"540 -270 OFFCURVE",
"540 -18 CURVE",
"260 -105 LINE",
"260 -200 OFFCURVE",
"226 -234 OFFCURVE",
"177 -234 CURVE SMOOTH",
"132 -234 OFFCURVE",
"110 -218 OFFCURVE",
"77 -183 CURVE SMOOTH",
"33 -136 OFFCURVE",
"4 -100 OFFCURVE",
"-56 -100 CURVE SMOOTH",
"-115 -100 OFFCURVE",
"-162 -139 OFFCURVE",
"-162 -208 CURVE SMOOTH",
"-162 -327 OFFCURVE",
"-32 -400 OFFCURVE",
"166 -400 CURVE SMOOTH"
);
}
);
width = 726;
}
);
leftKerningGroup = p;
rightKerningGroup = q;
unicode = 0237;
},
{
glyphname = k;
lastChange = "2020-08-19 13:35:50 +0000";
layers = (
{
hints = (
{
origin = "{0, 0}";
type = Corner;
name = _corner.Serif;
options = 1;
},
{
origin = "{0, 1}";
scale = "{-0.9, 1}";
type = Corner;
name = _corner.Serif;
},
{
origin = "{0, 3}";
scale = "{-0.9, 1}";
type = Corner;
name = _corner.Serif;
},
{
origin = "{1, 0}";
scale = "{-1.16, 1}";
type = Corner;
name = _corner.Serif;
options = 1;
},
{
origin = "{1, 3}";
scale = "{0.46, 1}";
type = Corner;
name = _corner.Serif;
},
{
origin = "{2, 2}";
scale = "{1.2, 1}";
type = Corner;
name = _corner.Serif;
},
{
origin = "{2, 3}";
scale = "{-0.5, 1}";
type = Corner;
name = _corner.Serif;
options = 1;
}
);
layerId = "CA54B7DC-FBBB-40FE-ACF3-AABDD76D6A7B";
paths = (
{
closed = 1;
nodes = (
"292 0 LINE",
"340 0 LINE",
"340 1520 LINE",
"292 1520 LINE"
);
},
{
closed = 1;
nodes = (
"1029 1100 LINE",
"306 436 LINE",
"331 402 LINE",
"1094 1100 LINE"
);
},
{
closed = 1;
nodes = (
"579 646 LINE",
"546 614 LINE",
"1068 0 LINE",
"1131 0 LINE"
);
}
);
width = 1290;
},
{
hints = (
{
origin = "{0, 0}";
type = Corner;
name = _corner.Serif;
options = 1;
},
{
origin = "{0, 1}";
scale = "{-0.9, 1}";
type = Corner;
name = _corner.Serif;
},
{
origin = "{0, 3}";
scale = "{-0.9, 1}";
type = Corner;
name = _corner.Serif;
},
{
origin = "{1, 0}";
scale = "{-1.16, 1}";
type = Corner;
name = _corner.Serif;
options = 1;
},
{
origin = "{1, 3}";
scale = "{0.46, 1}";
type = Corner;
name = _corner.Serif;
},
{
origin = "{2, 2}";
scale = "{1.2, 1}";
type = Corner;
name = _corner.Serif;
},
{
origin = "{2, 3}";
scale = "{-0.5, 1}";
type = Corner;
name = _corner.Serif;
options = 1;
}
);
layerId = "1E61A082-F045-49A7-AB52-DD1B03FD9B54";
paths = (
{
closed = 1;
nodes = (
"264 0 LINE",
"312 0 LINE",
"312 1520 LINE",
"264 1520 LINE"
);
},
{
closed = 1;
nodes = (
"1003 1080 LINE",
"278 426 LINE",
"300 392 LINE",
"1066 1080 LINE"
);
},
{
closed = 1;
nodes = (
"551 646 LINE",
"518 614 LINE",
"1040 0 LINE",
"1103 0 LINE"
);
}
);
width = 1266;
},
{
hints = (
{
origin = "{0, 0}";
type = Corner;
name = _corner.Serif;
options = 1;
},
{
origin = "{0, 1}";
scale = "{-0.76, 1}";
type = Corner;
name = _corner.Serif;
},
{
origin = "{0, 3}";
scale = "{-0.9, 0.98}";
type = Corner;
name = _corner.Serif;
},
{
origin = "{1, 0}";
scale = "{-1.93, 0.98}";
type = Corner;
name = _corner.Serif;
options = 1;
},
{
origin = "{1, 3}";
scale = "{0.02, 0.98}";
type = Corner;
name = _corner.Serif;
},
{
origin = "{2, 2}";
scale = "{1.36, 1}";
type = Corner;
name = _corner.Serif;
},
{
origin = "{2, 3}";
scale = "{-0.02, 1}";
type = Corner;
name = _corner.Serif;
options = 1;
}
);
layerId = "642E5713-E15A-4A7E-A28E-9A6B75A6585C";
paths = (
{
closed = 1;
nodes = (
"244 0 LINE",
"524 0 LINE",
"524 1480 LINE",
"244 1480 LINE"
);
},
{
closed = 1;
nodes = (
"1082 1120 LINE",
"386 413 LINE",
"505 298 LINE",
"1321 1120 LINE"
);
},
{
closed = 1;
nodes = (
"814 742 LINE",
"628 564 LINE",
"1028 0 LINE",
"1351 0 LINE"
);
}
);
width = 1387;
},
{
hints = (
{
origin = "{0, 0}";
type = Corner;
name = _corner.Serif;
options = 1;
},
{
origin = "{0, 1}";
scale = "{-0.7, 1}";
type = Corner;
name = _corner.Serif;
},
{
origin = "{0, 3}";
scale = "{-0.9, 0.98}";
type = Corner;
name = _corner.Serif;
},
{
origin = "{1, 0}";
scale = "{-2.1, 0.98}";
type = Corner;
name = _corner.Serif;
options = 1;
},
{
origin = "{1, 3}";
scale = "{0.02, 0.98}";
type = Corner;
name = _corner.Serif;
},
{
origin = "{2, 2}";
scale = "{1.56, 1}";
type = Corner;
name = _corner.Serif;
},
{
origin = "{2, 3}";
scale = "{-0.02, 1}";
type = Corner;
name = _corner.Serif;
options = 1;
}
);
layerId = "AF891779-7DE6-4679-9CA2-17B922C1DF84";
paths = (
{
closed = 1;
nodes = (
"252 0 LINE",
"532 0 LINE",
"532 1530 LINE",
"252 1530 LINE"
);
},
{
closed = 1;
nodes = (
"1078 1160 LINE",
"393 442 LINE",
"517 308 LINE",
"1343 1160 LINE"
);
},
{
closed = 1;
nodes = (
"826 762 LINE",
"640 584 LINE",
"1056 0 LINE",
"1379 0 LINE"
);
}
);
width = 1449;
}
);
leftKerningGroup = l;
leftMetricsKey = l;
rightKerningGroup = k;
rightMetricsKey = x;
unicode = 006B;
},
{
glyphname = l;
lastChange = "2020-08-19 16:23:07 +0000";
layers = (
{
hints = (
{
origin = "{0, 3}";
scale = "{-0.9, 1}";
type = Corner;
name = _corner.Serif;
},
{
origin = "{0, 0}";
type = Corner;
name = _corner.Serif;
options = 1;
},
{
origin = "{0, 1}";
scale = "{-0.9, 1}";
type = Corner;
name = _corner.Serif;
}
);
layerId = "CA54B7DC-FBBB-40FE-ACF3-AABDD76D6A7B";
paths = (
{
closed = 1;
nodes = (
"292 0 LINE",
"340 0 LINE",
"340 1520 LINE",
"292 1520 LINE"
);
}
);
width = 632;
},
{
hints = (
{
origin = "{0, 0}";
type = Corner;
name = _corner.Serif;
},
{
origin = "{0, 1}";
scale = "{-0.9, 1}";
type = Corner;
name = _corner.Serif;
options = 1;
},
{
origin = "{0, 3}";
scale = "{-0.9, 1}";
type = Corner;
name = _corner.Serif;
}
);
layerId = "1E61A082-F045-49A7-AB52-DD1B03FD9B54";
paths = (
{
closed = 1;
nodes = (
"264 0 LINE",
"312 0 LINE",
"312 1480 LINE",
"264 1480 LINE"
);
}
);
width = 558;
},
{
hints = (
{
origin = "{0, 3}";
scale = "{-0.9, 0.98}";
type = Corner;
name = _corner.Serif;
},
{
origin = "{0, 0}";
type = Corner;
name = _corner.Serif;
options = 1;
},
{
origin = "{0, 1}";
scale = "{-0.9, 1}";
type = Corner;
name = _corner.Serif;
}
);
layerId = "642E5713-E15A-4A7E-A28E-9A6B75A6585C";
paths = (
{
closed = 1;
nodes = (
"244 0 LINE",
"524 0 LINE",
"524 1480 LINE",
"244 1480 LINE"
);
}
);
width = 748;
},
{
hints = (
{
origin = "{0, 3}";
scale = "{-0.9, 0.98}";
type = Corner;
name = _corner.Serif;
},
{
origin = "{0, 0}";
type = Corner;
name = _corner.Serif;
options = 1;
},
{
origin = "{0, 1}";
scale = "{-0.9, 1}";
type = Corner;
name = _corner.Serif;
}
);
layerId = "AF891779-7DE6-4679-9CA2-17B922C1DF84";
paths = (
{
closed = 1;
nodes = (
"252 0 LINE",
"532 0 LINE",
"532 1530 LINE",
"252 1530 LINE"
);
}
);
width = 772;
}
);
leftKerningGroup = l;
rightKerningGroup = l;
unicode = 006C;
},
{
glyphname = m;
lastChange = "2020-08-19 12:49:02 +0000";
layers = (
{
hints = (
{
origin = "{0, 5}";
scale = "{-0.9, 1}";
type = Corner;
name = _corner.Serif;
},
{
origin = "{0, 0}";
type = Corner;
name = _corner.Serif;
options = 1;
},
{
origin = "{0, 1}";
scale = "{-0.86, 1}";
type = Corner;
name = _corner.Serif;
},
{
origin = "{1, 7}";
scale = "{0.86, 1}";
type = Corner;
name = _corner.Serif;
},
{
origin = "{1, 8}";
scale = "{-0.86, 1}";
type = Corner;
name = _corner.Serif;
options = 1;
},
{
origin = "{2, 7}";
scale = "{0.86, 1}";
type = Corner;
name = _corner.Serif;
options = 1;
},
{
origin = "{2, 8}";
scale = "{-0.86, 1}";
type = Corner;
name = _corner.Serif;
}
);
layerId = "CA54B7DC-FBBB-40FE-ACF3-AABDD76D6A7B";
paths = (
{
closed = 1;
nodes = (
"332 0 LINE",
"380 0 LINE",
"380 734 LINE",
"376 734 LINE",
"376 1100 LINE",
"332 1100 LINE"
);
},
{
closed = 1;
nodes = (
"380 674 LINE",
"380 952 OFFCURVE",
"534 1076 OFFCURVE",
"696 1076 CURVE SMOOTH",
"812 1076 OFFCURVE",
"882 1022 OFFCURVE",
"882 892 CURVE SMOOTH",
"882 0 LINE",
"930 0 LINE",
"930 892 LINE SMOOTH",
"930 1054 OFFCURVE",
"832 1116 OFFCURVE",
"698 1116 CURVE SMOOTH",
"510 1116 OFFCURVE",
"344 982 OFFCURVE",
"344 674 CURVE"
);
},
{
closed = 1;
nodes = (
"930 674 LINE",
"930 952 OFFCURVE",
"1084 1076 OFFCURVE",
"1246 1076 CURVE SMOOTH",
"1362 1076 OFFCURVE",
"1432 1022 OFFCURVE",
"1432 892 CURVE SMOOTH",
"1432 0 LINE",
"1480 0 LINE",
"1480 892 LINE SMOOTH",
"1480 1054 OFFCURVE",
"1384 1116 OFFCURVE",
"1248 1116 CURVE SMOOTH",
"1060 1116 OFFCURVE",
"894 982 OFFCURVE",
"894 674 CURVE"
);
}
);
width = 1742;
},
{
hints = (
{
origin = "{0, 5}";
scale = "{-0.9, 1}";
type = Corner;
name = _corner.Serif;
},
{
origin = "{0, 0}";
type = Corner;
name = _corner.Serif;
options = 1;
},
{
origin = "{0, 1}";
scale = "{-0.86, 1}";
type = Corner;
name = _corner.Serif;
},
{
origin = "{1, 7}";
scale = "{0.86, 1}";
type = Corner;
name = _corner.Serif;
},
{
origin = "{1, 8}";
scale = "{-0.86, 1}";
type = Corner;
name = _corner.Serif;
options = 1;
},
{
origin = "{2, 7}";
scale = "{0.86, 1}";
type = Corner;
name = _corner.Serif;
options = 1;
},
{
origin = "{2, 8}";
scale = "{-0.86, 1}";
type = Corner;
name = _corner.Serif;
}
);
layerId = "1E61A082-F045-49A7-AB52-DD1B03FD9B54";
paths = (
{
closed = 1;
nodes = (
"278 0 LINE",
"326 0 LINE",
"326 724 LINE",
"322 724 LINE",
"322 1080 LINE",
"278 1080 LINE"
);
},
{
closed = 1;
nodes = (
"326 664 LINE",
"326 935 OFFCURVE",
"480 1056 OFFCURVE",
"642 1056 CURVE SMOOTH",
"758 1056 OFFCURVE",
"828 1005 OFFCURVE",
"828 882 CURVE SMOOTH",
"828 0 LINE",
"876 0 LINE",
"876 882 LINE SMOOTH",
"876 1037 OFFCURVE",
"778 1096 OFFCURVE",
"644 1096 CURVE SMOOTH",
"456 1096 OFFCURVE",
"290 965 OFFCURVE",
"290 664 CURVE"
);
},
{
closed = 1;
nodes = (
"876 664 LINE",
"876 935 OFFCURVE",
"1030 1056 OFFCURVE",
"1192 1056 CURVE SMOOTH",
"1308 1056 OFFCURVE",
"1378 1005 OFFCURVE",
"1378 882 CURVE SMOOTH",
"1378 0 LINE",
"1426 0 LINE",
"1426 882 LINE SMOOTH",
"1426 1037 OFFCURVE",
"1330 1096 OFFCURVE",
"1194 1096 CURVE SMOOTH",
"1006 1096 OFFCURVE",
"840 965 OFFCURVE",
"840 664 CURVE"
);
}
);
width = 1660;
},
{
hints = (
{
origin = "{0, 5}";
scale = "{-0.9, 0.98}";
type = Corner;
name = _corner.Serif;
},
{
origin = "{0, 0}";
type = Corner;
name = _corner.Serif;
options = 1;
},
{
origin = "{0, 1}";
scale = "{-0.58, 1}";
type = Corner;
name = _corner.Serif;
},
{
origin = "{1, 7}";
scale = "{0.58, 1}";
type = Corner;
name = _corner.Serif;
},
{
origin = "{1, 8}";
scale = "{-0.58, 1}";
type = Corner;
name = _corner.Serif;
options = 1;
},
{
origin = "{2, 7}";
scale = "{0.58, 1}";
type = Corner;
name = _corner.Serif;
options = 1;
},
{
origin = "{2, 8}";
scale = "{-0.8, 1}";
type = Corner;
name = _corner.Serif;
}
);
layerId = "642E5713-E15A-4A7E-A28E-9A6B75A6585C";
paths = (
{
closed = 1;
nodes = (
"254 0 LINE",
"526 0 LINE",
"526 740 LINE",
"476 740 LINE",
"476 1120 LINE",
"254 1120 LINE"
);
},
{
closed = 1;
nodes = (
"526 716 LINE",
"526 886 OFFCURVE",
"624 946 OFFCURVE",
"714 946 CURVE SMOOTH",
"793 946 OFFCURVE",
"836 904 OFFCURVE",
"836 832 CURVE SMOOTH",
"836 0 LINE",
"1108 0 LINE",
"1108 828 LINE SMOOTH",
"1108 1033 OFFCURVE",
"985 1140 OFFCURVE",
"796 1140 CURVE SMOOTH",
"555 1140 OFFCURVE",
"444 989 OFFCURVE",
"444 716 CURVE"
);
},
{
closed = 1;
nodes = (
"1108 716 LINE",
"1108 886 OFFCURVE",
"1206 946 OFFCURVE",
"1296 946 CURVE SMOOTH",
"1375 946 OFFCURVE",
"1418 904 OFFCURVE",
"1418 832 CURVE SMOOTH",
"1418 0 LINE",
"1690 0 LINE",
"1690 840 LINE SMOOTH",
"1690 1037 OFFCURVE",
"1567 1140 OFFCURVE",
"1378 1140 CURVE SMOOTH",
"1144 1140 OFFCURVE",
"1038 989 OFFCURVE",
"1038 716 CURVE"
);
}
);
width = 1894;
},
{
hints = (
{
origin = "{0, 5}";
scale = "{-0.9, 0.98}";
type = Corner;
name = _corner.Serif;
},
{
origin = "{0, 0}";
type = Corner;
name = _corner.Serif;
options = 1;
},
{
origin = "{0, 1}";
scale = "{-0.54, 1}";
type = Corner;
name = _corner.Serif;
},
{
origin = "{1, 7}";
scale = "{0.54, 1}";
type = Corner;
name = _corner.Serif;
},
{
origin = "{1, 8}";
scale = "{-0.54, 1}";
type = Corner;
name = _corner.Serif;
options = 1;
},
{
origin = "{2, 7}";
scale = "{0.54, 1}";
type = Corner;
name = _corner.Serif;
options = 1;
},
{
origin = "{2, 8}";
scale = "{-0.8, 1}";
type = Corner;
name = _corner.Serif;
}
);
layerId = "AF891779-7DE6-4679-9CA2-17B922C1DF84";
paths = (
{
closed = 1;
nodes = (
"274 0 LINE",
"546 0 LINE",
"546 810 LINE",
"498 810 LINE",
"498 1160 LINE",
"274 1160 LINE"
);
},
{
closed = 1;
nodes = (
"546 742 LINE",
"546 909 OFFCURVE",
"644 976 OFFCURVE",
"742 976 CURVE SMOOTH",
"820 976 OFFCURVE",
"866 938 OFFCURVE",
"866 864 CURVE SMOOTH",
"866 0 LINE",
"1138 0 LINE",
"1138 872 LINE SMOOTH",
"1138 1084 OFFCURVE",
"1021 1180 OFFCURVE",
"826 1180 CURVE SMOOTH",
"577 1180 OFFCURVE",
"454 1026 OFFCURVE",
"454 742 CURVE"
);
},
{
closed = 1;
nodes = (
"1138 742 LINE",
"1138 909 OFFCURVE",
"1236 976 OFFCURVE",
"1334 976 CURVE SMOOTH",
"1412 976 OFFCURVE",
"1458 938 OFFCURVE",
"1458 864 CURVE SMOOTH",
"1458 0 LINE",
"1730 0 LINE",
"1730 872 LINE SMOOTH",
"1730 1084 OFFCURVE",
"1613 1180 OFFCURVE",
"1418 1180 CURVE SMOOTH",
"1175 1180 OFFCURVE",
"1058 1026 OFFCURVE",
"1056 742 CURVE"
);
}
);
width = 1946;
}
);
leftKerningGroup = n;
leftMetricsKey = n;
rightKerningGroup = n;
rightMetricsKey = n;
unicode = 006D;
},
{
glyphname = n;
lastChange = "2020-08-19 14:12:44 +0000";
layers = (
{
hints = (
{
origin = "{0, 0}";
type = Corner;
name = _corner.Serif;
},
{
origin = "{0, 1}";
scale = "{-1, 1}";
type = Corner;
name = _corner.Serif;
options = 1;
},
{
origin = "{1, 7}";
type = Corner;
name = _corner.Serif;
options = 1;
},
{
origin = "{1, 8}";
scale = "{-0.86, 1}";
type = Corner;
name = _corner.Serif;
},
{
origin = "{0, 5}";
scale = "{-0.9, 1}";
type = Corner;
name = _corner.Serif;
}
);
layerId = "CA54B7DC-FBBB-40FE-ACF3-AABDD76D6A7B";
paths = (
{
closed = 1;
nodes = (
"332 0 LINE",
"380 0 LINE",
"380 710 LINE",
"376 710 LINE",
"376 1100 LINE",
"332 1100 LINE"
);
},
{
closed = 1;
nodes = (
"380 552 LINE",
"380 914 OFFCURVE",
"584 1076 OFFCURVE",
"802 1076 CURVE SMOOTH",
"964 1076 OFFCURVE",
"1064 1002 OFFCURVE",
"1064 824 CURVE SMOOTH",
"1064 0 LINE",
"1112 0 LINE",
"1112 824 LINE SMOOTH",
"1112 1034 OFFCURVE",
"984 1116 OFFCURVE",
"804 1116 CURVE SMOOTH",
"564 1116 OFFCURVE",
"342 954 OFFCURVE",
"342 552 CURVE"
);
}
);
width = 1374;
},
{
hints = (
{
origin = "{0, 0}";
type = Corner;
name = _corner.Serif;
},
{
origin = "{0, 1}";
scale = "{-1, 1}";
type = Corner;
name = _corner.Serif;
},
{
origin = "{1, 7}";
type = Corner;
name = _corner.Serif;
},
{
origin = "{1, 8}";
scale = "{-0.86, 1}";
type = Corner;
name = _corner.Serif;
},
{
origin = "{0, 5}";
scale = "{-0.9, 1}";
type = Corner;
name = _corner.Serif;
}
);
layerId = "1E61A082-F045-49A7-AB52-DD1B03FD9B54";
paths = (
{
closed = 1;
nodes = (
"278 0 LINE",
"326 0 LINE",
"326 700 LINE",
"322 700 LINE",
"322 1080 LINE",
"278 1080 LINE"
);
},
{
closed = 1;
nodes = (
"326 542 LINE",
"326 897 OFFCURVE",
"530 1056 OFFCURVE",
"748 1056 CURVE SMOOTH",
"910 1056 OFFCURVE",
"1010 985 OFFCURVE",
"1010 814 CURVE SMOOTH",
"1010 0 LINE",
"1058 0 LINE",
"1058 814 LINE SMOOTH",
"1058 1017 OFFCURVE",
"930 1096 OFFCURVE",
"750 1096 CURVE SMOOTH",
"510 1096 OFFCURVE",
"288 937 OFFCURVE",
"288 542 CURVE"
);
}
);
width = 1292;
},
{
hints = (
{
origin = "{0, 0}";
type = Corner;
name = _corner.Serif;
},
{
origin = "{0, 1}";
scale = "{-0.76, 1}";
type = Corner;
name = _corner.Serif;
options = 1;
},
{
origin = "{1, 7}";
scale = "{0.76, 1}";
type = Corner;
name = _corner.Serif;
options = 1;
},
{
origin = "{1, 8}";
scale = "{-0.8, 1}";
type = Corner;
name = _corner.Serif;
},
{
origin = "{0, 5}";
scale = "{-0.9, 0.98}";
type = Corner;
name = _corner.Serif;
}
);
layerId = "642E5713-E15A-4A7E-A28E-9A6B75A6585C";
paths = (
{
closed = 1;
nodes = (
"254 0 LINE",
"532 0 LINE",
"532 740 LINE",
"482 740 LINE",
"482 1120 LINE",
"254 1119 LINE"
);
},
{
closed = 1;
nodes = (
"532 652 LINE",
"532 861 OFFCURVE",
"653 942 OFFCURVE",
"762 942 CURVE SMOOTH",
"858 942 OFFCURVE",
"912 893 OFFCURVE",
"912 800 CURVE SMOOTH",
"912 0 LINE",
"1190 0 LINE",
"1190 810 LINE SMOOTH",
"1190 1041 OFFCURVE",
"1042 1140 OFFCURVE",
"834 1140 CURVE SMOOTH",
"595 1140 OFFCURVE",
"454 1015 OFFCURVE",
"454 652 CURVE"
);
}
);
width = 1394;
},
{
hints = (
{
origin = "{0, 0}";
type = Corner;
name = _corner.Serif;
},
{
origin = "{0, 1}";
scale = "{-0.7, 1}";
type = Corner;
name = _corner.Serif;
options = 1;
},
{
origin = "{1, 7}";
scale = "{0.7, 1}";
type = Corner;
name = _corner.Serif;
options = 1;
},
{
origin = "{1, 8}";
scale = "{-0.8, 1}";
type = Corner;
name = _corner.Serif;
},
{
origin = "{0, 5}";
scale = "{-0.9, 0.98}";
type = Corner;
name = _corner.Serif;
}
);
layerId = "AF891779-7DE6-4679-9CA2-17B922C1DF84";
paths = (
{
closed = 1;
nodes = (
"274 0 LINE",
"552 0 LINE",
"552 780 LINE",
"504 780 LINE",
"504 1160 LINE",
"274 1159 LINE"
);
},
{
closed = 1;
nodes = (
"552 694 LINE",
"552 904 OFFCURVE",
"665 974 OFFCURVE",
"790 974 CURVE SMOOTH",
"887 974 OFFCURVE",
"944 926 OFFCURVE",
"944 832 CURVE SMOOTH",
"944 0 LINE",
"1222 0 LINE",
"1222 854 LINE SMOOTH",
"1222 1083 OFFCURVE",
"1074 1180 OFFCURVE",
"868 1180 CURVE SMOOTH",
"581 1180 OFFCURVE",
"446 1010 OFFCURVE",
"446 694 CURVE"
);
}
);
width = 1438;
}
);
leftKerningGroup = n;
rightKerningGroup = n;
unicode = 006E;
},
{
glyphname = o;
lastChange = "2020-08-19 13:37:16 +0000";
layers = (
{
layerId = "CA54B7DC-FBBB-40FE-ACF3-AABDD76D6A7B";
paths = (
{
closed = 1;
nodes = (
"954 -16 OFFCURVE",
"1166 190 OFFCURVE",
"1166 550 CURVE SMOOTH",
"1166 910 OFFCURVE",
"954 1116 OFFCURVE",
"656 1116 CURVE SMOOTH",
"358 1116 OFFCURVE",
"146 910 OFFCURVE",
"146 550 CURVE SMOOTH",
"146 190 OFFCURVE",
"358 -16 OFFCURVE",
"656 -16 CURVE SMOOTH"
);
},
{
closed = 1;
nodes = (
"384 24 OFFCURVE",
"196 222 OFFCURVE",
"196 550 CURVE SMOOTH",
"196 878 OFFCURVE",
"384 1076 OFFCURVE",
"656 1076 CURVE SMOOTH",
"928 1076 OFFCURVE",
"1116 878 OFFCURVE",
"1116 550 CURVE SMOOTH",
"1116 222 OFFCURVE",
"928 24 OFFCURVE",
"656 24 CURVE SMOOTH"
);
}
);
width = 1312;
},
{
layerId = "1E61A082-F045-49A7-AB52-DD1B03FD9B54";
paths = (
{
closed = 1;
nodes = (
"920 -16 OFFCURVE",
"1132 186 OFFCURVE",
"1132 540 CURVE SMOOTH",
"1132 894 OFFCURVE",
"920 1096 OFFCURVE",
"622 1096 CURVE SMOOTH",
"324 1096 OFFCURVE",
"112 894 OFFCURVE",
"112 540 CURVE SMOOTH",
"112 186 OFFCURVE",
"324 -16 OFFCURVE",
"622 -16 CURVE SMOOTH"
);
},
{
closed = 1;
nodes = (
"350 24 OFFCURVE",
"162 218 OFFCURVE",
"162 540 CURVE SMOOTH",
"162 862 OFFCURVE",
"350 1056 OFFCURVE",
"622 1056 CURVE SMOOTH",
"894 1056 OFFCURVE",
"1082 862 OFFCURVE",
"1082 540 CURVE SMOOTH",
"1082 218 OFFCURVE",
"894 24 OFFCURVE",
"622 24 CURVE SMOOTH"
);
}
);
width = 1244;
},
{
layerId = "642E5713-E15A-4A7E-A28E-9A6B75A6585C";
paths = (
{
closed = 1;
nodes = (
"1060 -20 OFFCURVE",
"1310 190 OFFCURVE",
"1310 560 CURVE SMOOTH",
"1310 930 OFFCURVE",
"1060 1140 OFFCURVE",
"696 1140 CURVE SMOOTH",
"332 1140 OFFCURVE",
"82 930 OFFCURVE",
"82 560 CURVE SMOOTH",
"82 190 OFFCURVE",
"332 -20 OFFCURVE",
"696 -20 CURVE SMOOTH"
);
},
{
closed = 1;
nodes = (
"503 138 OFFCURVE",
"382 287 OFFCURVE",
"382 550 CURVE SMOOTH",
"382 825 OFFCURVE",
"503 986 OFFCURVE",
"696 986 CURVE SMOOTH",
"889 986 OFFCURVE",
"1010 829 OFFCURVE",
"1010 560 CURVE SMOOTH",
"1010 291 OFFCURVE",
"889 138 OFFCURVE",
"696 138 CURVE SMOOTH"
);
}
);
width = 1392;
},
{
layerId = "AF891779-7DE6-4679-9CA2-17B922C1DF84";
paths = (
{
closed = 1;
nodes = (
"1080 -20 OFFCURVE",
"1338 197 OFFCURVE",
"1338 580 CURVE SMOOTH",
"1338 963 OFFCURVE",
"1080 1180 OFFCURVE",
"718 1180 CURVE SMOOTH",
"356 1180 OFFCURVE",
"98 963 OFFCURVE",
"98 580 CURVE SMOOTH",
"98 197 OFFCURVE",
"356 -20 OFFCURVE",
"718 -20 CURVE SMOOTH"
);
},
{
closed = 1;
nodes = (
"523 164 OFFCURVE",
"398 315 OFFCURVE",
"398 570 CURVE SMOOTH",
"398 837 OFFCURVE",
"523 1000 OFFCURVE",
"718 1000 CURVE SMOOTH",
"913 1000 OFFCURVE",
"1038 841 OFFCURVE",
"1038 580 CURVE SMOOTH",
"1038 319 OFFCURVE",
"913 164 OFFCURVE",
"718 164 CURVE SMOOTH"
);
}
);
width = 1436;
}
);
leftKerningGroup = o;
rightKerningGroup = o;
unicode = 006F;
},
{
glyphname = p;
lastChange = "2020-08-19 13:37:19 +0000";
layers = (
{
hints = (
{
origin = "{0, 4}";
scale = "{-0.9, 1}";
type = Corner;
name = _corner.Serif;
},
{
origin = "{0, 5}";
type = Corner;
name = _corner.Serif;
options = 1;
},
{
origin = "{0, 6}";
scale = "{-1.2, 1}";
type = Corner;
name = _corner.Serif;
}
);
layerId = "CA54B7DC-FBBB-40FE-ACF3-AABDD76D6A7B";
paths = (
{
closed = 1;
nodes = (
"340 334 LINE",
"310 550 LINE",
"336 746 LINE",
"336 1100 LINE",
"292 1100 LINE",
"292 -380 LINE",
"340 -380 LINE"
);
},
{
closed = 1;
nodes = (
"1042 -16 OFFCURVE",
"1240 198 OFFCURVE",
"1240 550 CURVE SMOOTH",
"1240 902 OFFCURVE",
"1042 1116 OFFCURVE",
"768 1116 CURVE SMOOTH",
"474 1116 OFFCURVE",
"296 902 OFFCURVE",
"296 550 CURVE SMOOTH",
"296 198 OFFCURVE",
"474 -16 OFFCURVE",
"768 -16 CURVE SMOOTH"
);
},
{
closed = 1;
nodes = (
"516 24 OFFCURVE",
"336 220 OFFCURVE",
"336 550 CURVE SMOOTH",
"336 880 OFFCURVE",
"516 1076 OFFCURVE",
"768 1076 CURVE SMOOTH",
"1016 1076 OFFCURVE",
"1192 880 OFFCURVE",
"1192 550 CURVE SMOOTH",
"1192 220 OFFCURVE",
"1016 24 OFFCURVE",
"768 24 CURVE SMOOTH"
);
}
);
width = 1386;
},
{
hints = (
{
origin = "{0, 4}";
scale = "{-0.9, 1}";
type = Corner;
name = _corner.Serif;
options = 1;
},
{
origin = "{0, 5}";
type = Corner;
name = _corner.Serif;
},
{
origin = "{0, 6}";
scale = "{-1.4, 1}";
type = Corner;
name = _corner.Serif;
options = 1;
}
);
layerId = "1E61A082-F045-49A7-AB52-DD1B03FD9B54";
paths = (
{
closed = 1;
nodes = (
"312 324 LINE",
"282 540 LINE",
"308 736 LINE",
"308 1080 LINE",
"264 1080 LINE",
"264 -380 LINE",
"312 -380 LINE"
);
},
{
closed = 1;
nodes = (
"1014 -16 OFFCURVE",
"1212 194 OFFCURVE",
"1212 540 CURVE SMOOTH",
"1212 886 OFFCURVE",
"1014 1096 OFFCURVE",
"740 1096 CURVE SMOOTH",
"446 1096 OFFCURVE",
"268 886 OFFCURVE",
"268 540 CURVE SMOOTH",
"268 194 OFFCURVE",
"446 -16 OFFCURVE",
"740 -16 CURVE SMOOTH"
);
},
{
closed = 1;
nodes = (
"488 24 OFFCURVE",
"308 216 OFFCURVE",
"308 540 CURVE SMOOTH",
"308 864 OFFCURVE",
"488 1056 OFFCURVE",
"740 1056 CURVE SMOOTH",
"988 1056 OFFCURVE",
"1164 864 OFFCURVE",
"1164 540 CURVE SMOOTH",
"1164 216 OFFCURVE",
"988 24 OFFCURVE",
"740 24 CURVE SMOOTH"
);
}
);
width = 1324;
},
{
hints = (
{
origin = "{0, 4}";
scale = "{-0.9, 0.98}";
type = Corner;
name = _corner.Serif;
},
{
origin = "{0, 5}";
type = Corner;
name = _corner.Serif;
options = 1;
},
{
origin = "{0, 6}";
scale = "{-1.4, 1}";
type = Corner;
name = _corner.Serif;
}
);
layerId = "642E5713-E15A-4A7E-A28E-9A6B75A6585C";
paths = (
{
closed = 1;
nodes = (
"524 344 LINE",
"482 344 LINE",
"482 756 LINE",
"482 1120 LINE",
"244 1120 LINE",
"244 -380 LINE",
"524 -380 LINE"
);
},
{
closed = 1;
nodes = (
"1190 -16 OFFCURVE",
"1414 201 OFFCURVE",
"1414 560 CURVE SMOOTH",
"1414 919 OFFCURVE",
"1190 1136 OFFCURVE",
"872 1136 CURVE SMOOTH",
"556 1136 OFFCURVE",
"399 919 OFFCURVE",
"399 560 CURVE SMOOTH",
"399 201 OFFCURVE",
"556 -16 OFFCURVE",
"872 -16 CURVE SMOOTH"
);
},
{
closed = 1;
nodes = (
"631 152 OFFCURVE",
"510 300 OFFCURVE",
"510 560 CURVE SMOOTH",
"510 820 OFFCURVE",
"631 970 OFFCURVE",
"814 970 CURVE SMOOTH",
"993 970 OFFCURVE",
"1114 820 OFFCURVE",
"1114 560 CURVE SMOOTH",
"1114 300 OFFCURVE",
"993 152 OFFCURVE",
"814 152 CURVE SMOOTH"
);
}
);
width = 1496;
},
{
hints = (
{
origin = "{0, 4}";
scale = "{-0.9, 0.98}";
type = Corner;
name = _corner.Serif;
},
{
origin = "{0, 5}";
type = Corner;
name = _corner.Serif;
options = 1;
},
{
origin = "{0, 6}";
scale = "{-1.2, 1}";
type = Corner;
name = _corner.Serif;
}
);
layerId = "AF891779-7DE6-4679-9CA2-17B922C1DF84";
paths = (
{
closed = 1;
nodes = (
"532 344 LINE",
"458 580 LINE",
"490 756 LINE",
"490 1160 LINE",
"252 1160 LINE",
"252 -380 LINE",
"532 -380 LINE"
);
},
{
closed = 1;
nodes = (
"1198 -16 OFFCURVE",
"1430 209 OFFCURVE",
"1430 580 CURVE SMOOTH",
"1430 951 OFFCURVE",
"1198 1176 OFFCURVE",
"878 1176 CURVE SMOOTH",
"555 1176 OFFCURVE",
"400 951 OFFCURVE",
"400 580 CURVE SMOOTH",
"400 209 OFFCURVE",
"555 -16 OFFCURVE",
"878 -16 CURVE SMOOTH"
);
},
{
closed = 1;
nodes = (
"637 176 OFFCURVE",
"518 319 OFFCURVE",
"518 580 CURVE SMOOTH",
"518 841 OFFCURVE",
"637 988 OFFCURVE",
"826 988 CURVE SMOOTH",
"1011 988 OFFCURVE",
"1130 841 OFFCURVE",
"1130 580 CURVE SMOOTH",
"1130 319 OFFCURVE",
"1011 176 OFFCURVE",
"826 176 CURVE SMOOTH"
);
}
);
width = 1528;
}
);
leftKerningGroup = p;
leftMetricsKey = l;
rightKerningGroup = o;
rightMetricsKey = o;
unicode = 0070;
},
{
glyphname = q;
lastChange = "2020-08-19 13:37:19 +0000";
layers = (
{
hints = (
{
origin = "{0, 6}";
scale = "{1.2, 1}";
type = Corner;
name = _corner.Serif;
},
{
origin = "{0, 0}";
scale = "{-0.9, 1}";
type = Corner;
name = _corner.Serif;
options = 1;
}
);
layerId = "CA54B7DC-FBBB-40FE-ACF3-AABDD76D6A7B";
paths = (
{
closed = 1;
nodes = (
"1094 -380 LINE",
"1094 1100 LINE",
"1050 1100 LINE",
"1050 750 LINE",
"1076 550 LINE",
"1046 334 LINE",
"1046 -380 LINE"
);
},
{
closed = 1;
nodes = (
"912 -16 OFFCURVE",
"1090 198 OFFCURVE",
"1090 550 CURVE SMOOTH",
"1090 902 OFFCURVE",
"912 1116 OFFCURVE",
"618 1116 CURVE SMOOTH",
"344 1116 OFFCURVE",
"146 902 OFFCURVE",
"146 550 CURVE SMOOTH",
"146 198 OFFCURVE",
"344 -16 OFFCURVE",
"618 -16 CURVE SMOOTH"
);
},
{
closed = 1;
nodes = (
"370 24 OFFCURVE",
"194 220 OFFCURVE",
"194 550 CURVE SMOOTH",
"194 880 OFFCURVE",
"370 1076 OFFCURVE",
"618 1076 CURVE SMOOTH",
"870 1076 OFFCURVE",
"1050 880 OFFCURVE",
"1050 550 CURVE SMOOTH",
"1050 220 OFFCURVE",
"870 24 OFFCURVE",
"618 24 CURVE SMOOTH"
);
}
);
width = 1342;
},
{
hints = (
{
origin = "{0, 6}";
scale = "{1.4, 1}";
type = Corner;
name = _corner.Serif;
},
{
origin = "{0, 0}";
scale = "{-0.9, 1}";
type = Corner;
name = _corner.Serif;
options = 1;
}
);
layerId = "1E61A082-F045-49A7-AB52-DD1B03FD9B54";
paths = (
{
closed = 1;
nodes = (
"1060 -380 LINE",
"1060 1080 LINE",
"1016 1080 LINE",
"1016 740 LINE",
"1042 540 LINE",
"1012 324 LINE",
"1012 -380 LINE"
);
},
{
closed = 1;
nodes = (
"878 -16 OFFCURVE",
"1056 194 OFFCURVE",
"1056 540 CURVE SMOOTH",
"1056 886 OFFCURVE",
"878 1096 OFFCURVE",
"584 1096 CURVE SMOOTH",
"310 1096 OFFCURVE",
"112 886 OFFCURVE",
"112 540 CURVE SMOOTH",
"112 194 OFFCURVE",
"310 -16 OFFCURVE",
"584 -16 CURVE SMOOTH"
);
},
{
closed = 1;
nodes = (
"336 24 OFFCURVE",
"160 216 OFFCURVE",
"160 540 CURVE SMOOTH",
"160 864 OFFCURVE",
"336 1056 OFFCURVE",
"584 1056 CURVE SMOOTH",
"836 1056 OFFCURVE",
"1016 864 OFFCURVE",
"1016 540 CURVE SMOOTH",
"1016 216 OFFCURVE",
"836 24 OFFCURVE",
"584 24 CURVE SMOOTH"
);
}
);
width = 1258;
},
{
hints = (
{
origin = "{0, 6}";
scale = "{1.4, 1}";
type = Corner;
name = _corner.Serif;
},
{
origin = "{0, 0}";
scale = "{-0.9, 1}";
type = Corner;
name = _corner.Serif;
options = 1;
}
);
layerId = "642E5713-E15A-4A7E-A28E-9A6B75A6585C";
paths = (
{
closed = 1;
nodes = (
"1252 -380 LINE",
"1252 1120 LINE",
"1008 1120 LINE",
"1008 756 LINE",
"1046 560 LINE",
"972 344 LINE",
"972 -380 LINE"
);
},
{
closed = 1;
nodes = (
"940 -16 OFFCURVE",
"1097 201 OFFCURVE",
"1097 560 CURVE SMOOTH",
"1097 919 OFFCURVE",
"940 1136 OFFCURVE",
"624 1136 CURVE SMOOTH",
"306 1136 OFFCURVE",
"82 919 OFFCURVE",
"82 560 CURVE SMOOTH",
"82 201 OFFCURVE",
"306 -16 OFFCURVE",
"624 -16 CURVE SMOOTH"
);
},
{
closed = 1;
nodes = (
"503 152 OFFCURVE",
"382 300 OFFCURVE",
"382 560 CURVE SMOOTH",
"382 820 OFFCURVE",
"503 970 OFFCURVE",
"682 970 CURVE SMOOTH",
"865 970 OFFCURVE",
"986 820 OFFCURVE",
"986 560 CURVE SMOOTH",
"986 300 OFFCURVE",
"865 152 OFFCURVE",
"682 152 CURVE SMOOTH"
);
}
);
width = 1400;
},
{
hints = (
{
origin = "{0, 6}";
scale = "{1.2, 1}";
type = Corner;
name = _corner.Serif;
},
{
origin = "{0, 0}";
scale = "{-0.9, 1}";
type = Corner;
name = _corner.Serif;
options = 1;
}
);
layerId = "AF891779-7DE6-4679-9CA2-17B922C1DF84";
paths = (
{
closed = 1;
nodes = (
"1276 -380 LINE",
"1276 1160 LINE",
"1030 1160 LINE",
"1030 756 LINE",
"1070 580 LINE",
"996 344 LINE",
"996 -380 LINE"
);
},
{
closed = 1;
nodes = (
"973 -16 OFFCURVE",
"1128 209 OFFCURVE",
"1128 580 CURVE SMOOTH",
"1128 951 OFFCURVE",
"973 1176 OFFCURVE",
"650 1176 CURVE SMOOTH",
"330 1176 OFFCURVE",
"98 951 OFFCURVE",
"98 580 CURVE SMOOTH",
"98 209 OFFCURVE",
"330 -16 OFFCURVE",
"650 -16 CURVE SMOOTH"
);
},
{
closed = 1;
nodes = (
"517 176 OFFCURVE",
"398 319 OFFCURVE",
"398 580 CURVE SMOOTH",
"398 841 OFFCURVE",
"517 988 OFFCURVE",
"702 988 CURVE SMOOTH",
"891 988 OFFCURVE",
"1010 841 OFFCURVE",
"1010 580 CURVE SMOOTH",
"1010 319 OFFCURVE",
"891 176 OFFCURVE",
"702 176 CURVE SMOOTH"
);
}
);
width = 1468;
}
);
leftKerningGroup = o;
leftMetricsKey = o;
rightKerningGroup = q;
unicode = 0071;
},
{
glyphname = r;
lastChange = "2020-08-19 17:07:01 +0000";
layers = (
{
hints = (
{
origin = "{0, 5}";
scale = "{-0.9, 1}";
type = Corner;
name = _corner.Serif;
},
{
origin = "{0, 0}";
type = Corner;
name = _corner.Serif;
},
{
origin = "{0, 1}";
scale = "{-1.2, 1}";
type = Corner;
name = _corner.Serif;
options = 1;
}
);
layerId = "CA54B7DC-FBBB-40FE-ACF3-AABDD76D6A7B";
paths = (
{
closed = 1;
nodes = (
"332 0 LINE",
"380 0 LINE",
"380 730 LINE",
"372 730 LINE",
"372 1100 LINE",
"332 1100 LINE"
);
},
{
closed = 1;
nodes = (
"490 1114 OFFCURVE",
"346 940 OFFCURVE",
"346 644 CURVE",
"380 644 LINE",
"380 915 OFFCURVE",
"511 1074 OFFCURVE",
"722 1074 CURVE SMOOTH",
"850 1074 OFFCURVE",
"915 1012 OFFCURVE",
"909 899 CURVE SMOOTH",
"907 862 OFFCURVE",
"913 840 OFFCURVE",
"938 840 CURVE SMOOTH",
"968 840 OFFCURVE",
"972 863 OFFCURVE",
"972 908 CURVE SMOOTH",
"972 1041 OFFCURVE",
"868 1114 OFFCURVE",
"722 1114 CURVE SMOOTH"
);
}
);
width = 1084;
},
{
hints = (
{
origin = "{0, 5}";
scale = "{-0.9, 1}";
type = Corner;
name = _corner.Serif;
},
{
origin = "{0, 0}";
type = Corner;
name = _corner.Serif;
},
{
origin = "{0, 1}";
scale = "{-1.4, 1}";
type = Corner;
name = _corner.Serif;
options = 1;
}
);
layerId = "1E61A082-F045-49A7-AB52-DD1B03FD9B54";
paths = (
{
closed = 1;
nodes = (
"278 0 LINE",
"326 0 LINE",
"326 740 LINE",
"318 740 LINE",
"318 1080 LINE",
"278 1080 LINE"
);
},
{
closed = 1;
nodes = (
"423 1094 OFFCURVE",
"292 928 OFFCURVE",
"292 644 CURVE",
"326 644 LINE",
"326 907 OFFCURVE",
"451 1054 OFFCURVE",
"645 1054 CURVE SMOOTH",
"766 1054 OFFCURVE",
"835 988 OFFCURVE",
"827 875 CURVE SMOOTH",
"824 833 OFFCURVE",
"830 810 OFFCURVE",
"856 810 CURVE SMOOTH",
"881 810 OFFCURVE",
"891 835 OFFCURVE",
"891 882 CURVE SMOOTH",
"891 1025 OFFCURVE",
"789 1094 OFFCURVE",
"645 1094 CURVE SMOOTH"
);
}
);
width = 994;
},
{
hints = (
{
origin = "{0, 0}";
type = Corner;
name = _corner.Serif;
},
{
origin = "{0, 1}";
scale = "{-1.4, 1}";
type = Corner;
name = _corner.Serif;
options = 1;
},
{
origin = "{0, 5}";
scale = "{-0.9, 0.98}";
type = Corner;
name = _corner.Serif;
}
);
layerId = "642E5713-E15A-4A7E-A28E-9A6B75A6585C";
paths = (
{
closed = 1;
nodes = (
"254 0 LINE",
"532 0 LINE",
"532 800 LINE",
"482 800 LINE",
"482 1120 LINE",
"254 1119 LINE"
);
},
{
closed = 1;
nodes = (
"580 1139 OFFCURVE",
"452 1009 OFFCURVE",
"452 752 CURVE",
"532 752 LINE",
"532 887 OFFCURVE",
"583 962 OFFCURVE",
"670 963 CURVE SMOOTH",
"730 964 OFFCURVE",
"748 933 OFFCURVE",
"768 893 CURVE SMOOTH",
"790 849 OFFCURVE",
"822 813 OFFCURVE",
"889 813 CURVE SMOOTH",
"977 813 OFFCURVE",
"1034 880 OFFCURVE",
"1034 965 CURVE SMOOTH",
"1034 1069 OFFCURVE",
"945 1141 OFFCURVE",
"808 1140 CURVE SMOOTH"
);
}
);
width = 1072;
},
{
hints = (
{
origin = "{0, 0}";
type = Corner;
name = _corner.Serif;
},
{
origin = "{0, 1}";
scale = "{-1.2, 1}";
type = Corner;
name = _corner.Serif;
options = 1;
},
{
origin = "{0, 5}";
scale = "{-0.9, 0.98}";
type = Corner;
name = _corner.Serif;
}
);
layerId = "AF891779-7DE6-4679-9CA2-17B922C1DF84";
paths = (
{
closed = 1;
nodes = (
"274 0 LINE",
"552 0 LINE",
"552 840 LINE",
"504 840 LINE",
"504 1160 LINE",
"274 1159 LINE"
);
},
{
closed = 1;
nodes = (
"579 1180 OFFCURVE",
"462 1032 OFFCURVE",
"462 756 CURVE",
"552 756 LINE",
"552 911 OFFCURVE",
"612 994 OFFCURVE",
"693 994 CURVE SMOOTH",
"740 994 OFFCURVE",
"768 968 OFFCURVE",
"794 941 CURVE SMOOTH",
"827 906 OFFCURVE",
"866 881 OFFCURVE",
"922 881 CURVE SMOOTH",
"992 881 OFFCURVE",
"1050 923 OFFCURVE",
"1050 1015 CURVE SMOOTH",
"1050 1117 OFFCURVE",
"952 1180 OFFCURVE",
"812 1180 CURVE SMOOTH"
);
}
);
width = 1074;
}
);
leftKerningGroup = n;
leftMetricsKey = n;
rightKerningGroup = r;
unicode = 0072;
},
{
glyphname = s;
lastChange = "2020-08-19 12:56:08 +0000";
layers = (
{
layerId = "CA54B7DC-FBBB-40FE-ACF3-AABDD76D6A7B";
paths = (
{
closed = 1;
nodes = (
"178 663 OFFCURVE",
"334 598 OFFCURVE",
"508 556 CURVE SMOOTH",
"650 522 LINE SMOOTH",
"802 486 OFFCURVE",
"946 427 OFFCURVE",
"946 268 CURVE SMOOTH",
"946 112 OFFCURVE",
"832 24 OFFCURVE",
"642 24 CURVE SMOOTH",
"458 24 OFFCURVE",
"292 101 OFFCURVE",
"222 320 CURVE",
"186 320 LINE",
"248 75 OFFCURVE",
"434 -16 OFFCURVE",
"646 -16 CURVE SMOOTH",
"856 -16 OFFCURVE",
"994 88 OFFCURVE",
"994 268 CURVE SMOOTH",
"994 458 OFFCURVE",
"825 524 OFFCURVE",
"658 565 CURVE SMOOTH",
"518 599 LINE SMOOTH",
"359 638 OFFCURVE",
"226 688 OFFCURVE",
"226 848 CURVE SMOOTH",
"226 998 OFFCURVE",
"338 1076 OFFCURVE",
"510 1076 CURVE SMOOTH",
"672 1076 OFFCURVE",
"850 1000 OFFCURVE",
"910 790 CURVE",
"946 790 LINE",
"892 1024 OFFCURVE",
"708 1116 OFFCURVE",
"510 1116 CURVE SMOOTH",
"310 1116 OFFCURVE",
"178 1018 OFFCURVE",
"178 848 CURVE SMOOTH"
);
},
{
closed = 1;
nodes = (
"910 1100 LINE",
"910 848 LINE",
"946 790 LINE",
"954 790 LINE",
"954 1100 LINE"
);
},
{
closed = 1;
nodes = (
"222 0 LINE",
"222 250 LINE",
"186 320 LINE",
"178 320 LINE",
"178 0 LINE"
);
}
);
width = 1160;
},
{
layerId = "1E61A082-F045-49A7-AB52-DD1B03FD9B54";
paths = (
{
closed = 1;
nodes = (
"156 661 OFFCURVE",
"295 590 OFFCURVE",
"486 546 CURVE SMOOTH",
"632 512 LINE SMOOTH",
"784 477 OFFCURVE",
"928 419 OFFCURVE",
"928 263 CURVE SMOOTH",
"928 110 OFFCURVE",
"816 24 OFFCURVE",
"624 24 CURVE SMOOTH",
"438 24 OFFCURVE",
"270 121 OFFCURVE",
"200 390 CURVE",
"164 390 LINE",
"223 95 OFFCURVE",
"414 -16 OFFCURVE",
"628 -16 CURVE SMOOTH",
"840 -16 OFFCURVE",
"976 86 OFFCURVE",
"976 263 CURVE SMOOTH",
"976 446 OFFCURVE",
"815 514 OFFCURVE",
"640 555 CURVE SMOOTH",
"496 589 LINE SMOOTH",
"352 623 OFFCURVE",
"204 669 OFFCURVE",
"204 833 CURVE SMOOTH",
"204 979 OFFCURVE",
"314 1056 OFFCURVE",
"488 1056 CURVE SMOOTH",
"652 1056 OFFCURVE",
"832 963 OFFCURVE",
"892 710 CURVE",
"928 710 LINE",
"874 986 OFFCURVE",
"688 1096 OFFCURVE",
"488 1096 CURVE SMOOTH",
"286 1096 OFFCURVE",
"156 1000 OFFCURVE",
"156 833 CURVE SMOOTH"
);
},
{
closed = 1;
nodes = (
"892 1080 LINE",
"892 768 LINE",
"928 710 LINE",
"936 710 LINE",
"936 1080 LINE"
);
},
{
closed = 1;
nodes = (
"200 0 LINE",
"200 320 LINE",
"164 390 LINE",
"156 390 LINE",
"156 0 LINE"
);
}
);
width = 1112;
},
{
layerId = "642E5713-E15A-4A7E-A28E-9A6B75A6585C";
paths = (
{
closed = 1;
nodes = (
"94 610 OFFCURVE",
"245 500 OFFCURVE",
"468 453 CURVE SMOOTH",
"620 421 LINE SMOOTH",
"725 399 OFFCURVE",
"796 365 OFFCURVE",
"796 273 CURVE SMOOTH",
"796 181 OFFCURVE",
"728 132 OFFCURVE",
"622 132 CURVE SMOOTH",
"504 132 OFFCURVE",
"341 217 OFFCURVE",
"270 440 CURVE",
"158 440 LINE",
"203 126 OFFCURVE",
"392 -20 OFFCURVE",
"642 -20 CURVE SMOOTH",
"870 -20 OFFCURVE",
"1026 112 OFFCURVE",
"1026 332 CURVE SMOOTH",
"1026 552 OFFCURVE",
"863 650 OFFCURVE",
"644 696 CURVE SMOOTH",
"492 728 LINE SMOOTH",
"387 750 OFFCURVE",
"322 784 OFFCURVE",
"322 868 CURVE SMOOTH",
"322 952 OFFCURVE",
"384 988 OFFCURVE",
"478 988 CURVE SMOOTH",
"582 988 OFFCURVE",
"739 917 OFFCURVE",
"812 716 CURVE",
"924 716 LINE",
"863 1025 OFFCURVE",
"672 1140 OFFCURVE",
"458 1140 CURVE SMOOTH",
"250 1140 OFFCURVE",
"94 1034 OFFCURVE",
"94 820 CURVE SMOOTH"
);
},
{
closed = 1;
nodes = (
"816 1120 LINE",
"816 824 LINE",
"924 716 LINE",
"974 716 LINE",
"974 1120 LINE"
);
},
{
closed = 1;
nodes = (
"266 0 LINE",
"266 300 LINE",
"158 440 LINE",
"108 440 LINE",
"108 0 LINE"
);
}
);
width = 1108;
},
{
layerId = "AF891779-7DE6-4679-9CA2-17B922C1DF84";
paths = (
{
closed = 1;
nodes = (
"132 625 OFFCURVE",
"308 520 OFFCURVE",
"571 456 CURVE SMOOTH",
"653 436 LINE SMOOTH",
"764 409 OFFCURVE",
"829 374 OFFCURVE",
"829 290 CURVE SMOOTH",
"829 206 OFFCURVE",
"766 152 OFFCURVE",
"648 152 CURVE SMOOTH",
"528 152 OFFCURVE",
"413 211 OFFCURVE",
"338 380 CURVE",
"204 380 LINE",
"275 103 OFFCURVE",
"446 -20 OFFCURVE",
"681 -20 CURVE SMOOTH",
"910 -20 OFFCURVE",
"1081 105 OFFCURVE",
"1081 341 CURVE SMOOTH",
"1081 574 OFFCURVE",
"889 663 OFFCURVE",
"635 726 CURVE SMOOTH",
"554 746 LINE SMOOTH",
"445 773 OFFCURVE",
"384 810 OFFCURVE",
"384 890 CURVE SMOOTH",
"384 970 OFFCURVE",
"447 1008 OFFCURVE",
"545 1008 CURVE SMOOTH",
"647 1008 OFFCURVE",
"771 964 OFFCURVE",
"837 815 CURVE",
"971 815 LINE",
"888 1082 OFFCURVE",
"730 1180 OFFCURVE",
"514 1180 CURVE SMOOTH",
"298 1180 OFFCURVE",
"132 1079 OFFCURVE",
"132 850 CURVE SMOOTH"
);
},
{
closed = 1;
nodes = (
"841 1159 LINE",
"841 923 LINE",
"971 815 LINE",
"1021 815 LINE",
"1021 1159 LINE"
);
},
{
closed = 1;
nodes = (
"334 0 LINE",
"334 240 LINE",
"204 380 LINE",
"154 380 LINE",
"154 0 LINE"
);
}
);
width = 1199;
}
);
leftKerningGroup = s;
rightKerningGroup = s;
unicode = 0073;
},
{
glyphname = t;
lastChange = "2020-08-19 12:51:07 +0000";
layers = (
{
layerId = "CA54B7DC-FBBB-40FE-ACF3-AABDD76D6A7B";
paths = (
{
closed = 1;
nodes = (
"352 1240 LINE SMOOTH",
"352 1128 OFFCURVE",
"344 1100 OFFCURVE",
"232 1100 CURVE SMOOTH",
"18 1100 LINE",
"18 1060 LINE",
"348 1060 LINE",
"348 298 LINE SMOOTH",
"348 87 OFFCURVE",
"441 -20 OFFCURVE",
"616 -20 CURVE SMOOTH",
"791 -20 OFFCURVE",
"884 89 OFFCURVE",
"884 298 CURVE SMOOTH",
"884 340 LINE",
"840 340 LINE",
"840 298 LINE SMOOTH",
"840 121 OFFCURVE",
"767 24 OFFCURVE",
"618 24 CURVE SMOOTH",
"469 24 OFFCURVE",
"396 119 OFFCURVE",
"396 298 CURVE SMOOTH",
"396 1400 LINE",
"352 1400 LINE"
);
},
{
closed = 1;
nodes = (
"396 1060 LINE",
"978 1060 LINE",
"978 1100 LINE",
"396 1100 LINE"
);
}
);
width = 1040;
},
{
layerId = "1E61A082-F045-49A7-AB52-DD1B03FD9B54";
paths = (
{
closed = 1;
nodes = (
"346 1220 LINE SMOOTH",
"346 1108 OFFCURVE",
"338 1080 OFFCURVE",
"226 1080 CURVE SMOOTH",
"2 1080 LINE",
"2 1040 LINE",
"342 1040 LINE",
"342 312 LINE SMOOTH",
"342 92 OFFCURVE",
"440 -20 OFFCURVE",
"624 -20 CURVE SMOOTH",
"808 -20 OFFCURVE",
"906 94 OFFCURVE",
"906 312 CURVE SMOOTH",
"906 560 LINE",
"862 560 LINE",
"862 312 LINE SMOOTH",
"862 126 OFFCURVE",
"784 24 OFFCURVE",
"626 24 CURVE SMOOTH",
"468 24 OFFCURVE",
"390 124 OFFCURVE",
"390 312 CURVE SMOOTH",
"390 1380 LINE",
"346 1380 LINE"
);
},
{
closed = 1;
nodes = (
"390 1040 LINE",
"986 1040 LINE",
"986 1080 LINE",
"390 1080 LINE"
);
}
);
width = 1028;
},
{
layerId = "642E5713-E15A-4A7E-A28E-9A6B75A6585C";
paths = (
{
closed = 1;
nodes = (
"416 1374 LINE SMOOTH",
"416 1185 OFFCURVE",
"338 1114 OFFCURVE",
"106 1114 CURVE SMOOTH",
"6 1114 LINE",
"6 962 LINE",
"306 962 LINE",
"306 320 LINE SMOOTH",
"306 102 OFFCURVE",
"427 -20 OFFCURVE",
"650 -20 CURVE SMOOTH",
"869 -20 OFFCURVE",
"986 104 OFFCURVE",
"986 320 CURVE SMOOTH",
"986 560 LINE",
"818 560 LINE",
"818 336 LINE SMOOTH",
"818 247 OFFCURVE",
"782 192 OFFCURVE",
"702 192 CURVE SMOOTH",
"622 192 OFFCURVE",
"586 246 OFFCURVE",
"586 336 CURVE SMOOTH",
"586 1400 LINE",
"416 1400 LINE"
);
},
{
closed = 1;
nodes = (
"586 962 LINE",
"1056 962 LINE",
"1056 1120 LINE",
"586 1120 LINE"
);
}
);
width = 1128;
},
{
layerId = "AF891779-7DE6-4679-9CA2-17B922C1DF84";
paths = (
{
closed = 1;
nodes = (
"382 1414 LINE SMOOTH",
"382 1225 OFFCURVE",
"312 1150 OFFCURVE",
"82 1150 CURVE SMOOTH",
"22 1150 LINE",
"22 980 LINE",
"298 980 LINE",
"298 334 LINE SMOOTH",
"298 112 OFFCURVE",
"414 -20 OFFCURVE",
"646 -20 CURVE SMOOTH",
"876 -20 OFFCURVE",
"992 114 OFFCURVE",
"992 334 CURVE SMOOTH",
"992 400 LINE",
"810 400 LINE",
"810 340 LINE SMOOTH",
"810 252 OFFCURVE",
"774 202 OFFCURVE",
"694 202 CURVE SMOOTH",
"614 202 OFFCURVE",
"578 252 OFFCURVE",
"578 340 CURVE SMOOTH",
"578 1440 LINE",
"382 1440 LINE"
);
},
{
closed = 1;
nodes = (
"578 980 LINE",
"1044 980 LINE",
"1044 1160 LINE",
"578 1160 LINE"
);
}
);
width = 1112;
},
{
associatedMasterId = "AF891779-7DE6-4679-9CA2-17B922C1DF84";
layerId = "014447C3-B45D-4C17-BA0E-1FCFD3A54CAD";
name = "{700, 20}";
paths = (
{
closed = 1;
nodes = (
"374 1406 LINE SMOOTH",
"374 1217 OFFCURVE",
"303 1143 OFFCURVE",
"72 1143 CURVE SMOOTH",
"4 1143 LINE",
"4 977 LINE",
"285 977 LINE",
"285 331 LINE SMOOTH",
"285 110 OFFCURVE",
"404 -20 OFFCURVE",
"634 -20 CURVE SMOOTH",
"862 -20 OFFCURVE",
"980 112 OFFCURVE",
"980 331 CURVE SMOOTH",
"980 432 LINE",
"797 432 LINE",
"797 319 LINE SMOOTH",
"797 231 OFFCURVE",
"761 180 OFFCURVE",
"681 180 CURVE SMOOTH",
"601 180 OFFCURVE",
"565 230 OFFCURVE",
"565 319 CURVE SMOOTH",
"565 1432 LINE",
"374 1432 LINE"
);
},
{
closed = 1;
nodes = (
"565 977 LINE",
"1032 977 LINE",
"1032 1152 LINE",
"565 1152 LINE"
);
}
);
width = 1085;
}
);
leftKerningGroup = t;
rightKerningGroup = t;
unicode = 0074;
},
{
glyphname = u;
lastChange = "2020-08-19 12:38:07 +0000";
layers = (
{
hints = (
{
origin = "{1, 8}";
scale = "{-0.86, 1}";
type = Corner;
name = _corner.Serif;
},
{
origin = "{0, 1}";
scale = "{-0.9, 1}";
type = Corner;
name = _corner.Serif;
},
{
origin = "{0, 5}";
scale = "{-0.9, 1}";
type = Corner;
name = _corner.Serif;
}
);
layerId = "CA54B7DC-FBBB-40FE-ACF3-AABDD76D6A7B";
paths = (
{
closed = 1;
nodes = (
"1094 1100 LINE",
"1046 1100 LINE",
"1046 390 LINE",
"1054 390 LINE",
"1054 0 LINE",
"1094 0 LINE"
);
},
{
closed = 1;
nodes = (
"1046 548 LINE",
"1046 186 OFFCURVE",
"842 22 OFFCURVE",
"620 24 CURVE SMOOTH",
"450 26 OFFCURVE",
"350 100 OFFCURVE",
"350 278 CURVE",
"350 1102 LINE",
"302 1102 LINE",
"302 278 LINE",
"302 68 OFFCURVE",
"430 -14 OFFCURVE",
"618 -16 CURVE SMOOTH",
"862 -18 OFFCURVE",
"1084 146 OFFCURVE",
"1084 548 CURVE"
);
}
);
width = 1386;
},
{
hints = (
{
origin = "{0, 5}";
scale = "{-0.9, 1}";
type = Corner;
name = _corner.Serif;
},
{
origin = "{0, 1}";
scale = "{-0.9, 1}";
type = Corner;
name = _corner.Serif;
},
{
origin = "{1, 8}";
scale = "{-0.86, 1}";
type = Corner;
name = _corner.Serif;
}
);
layerId = "1E61A082-F045-49A7-AB52-DD1B03FD9B54";
paths = (
{
closed = 1;
nodes = (
"1026 1080 LINE",
"978 1080 LINE",
"978 380 LINE",
"986 380 LINE",
"986 0 LINE",
"1026 0 LINE"
);
},
{
closed = 1;
nodes = (
"978 538 LINE",
"978 183 OFFCURVE",
"774 22 OFFCURVE",
"552 24 CURVE SMOOTH",
"382 26 OFFCURVE",
"282 97 OFFCURVE",
"282 268 CURVE",
"282 1082 LINE",
"234 1082 LINE",
"234 268 LINE",
"234 65 OFFCURVE",
"362 -14 OFFCURVE",
"550 -16 CURVE SMOOTH",
"794 -18 OFFCURVE",
"1016 143 OFFCURVE",
"1016 538 CURVE"
);
}
);
width = 1272;
},
{
hints = (
{
origin = "{0, 1}";
scale = "{-0.9, 0.98}";
type = Corner;
name = _corner.Serif;
},
{
origin = "{1, 8}";
scale = "{-0.86, 0.98}";
type = Corner;
name = _corner.Serif;
},
{
origin = "{0, 5}";
scale = "{-0.9, 1}";
type = Corner;
name = _corner.Serif;
}
);
layerId = "642E5713-E15A-4A7E-A28E-9A6B75A6585C";
paths = (
{
closed = 1;
nodes = (
"1128 1120 LINE",
"850 1120 LINE",
"850 380 LINE",
"900 380 LINE",
"900 0 LINE",
"1128 0 LINE"
);
},
{
closed = 1;
nodes = (
"850 468 LINE",
"850 241 OFFCURVE",
"727 178 OFFCURVE",
"618 178 CURVE SMOOTH",
"522 178 OFFCURVE",
"466 227 OFFCURVE",
"466 320 CURVE SMOOTH",
"466 1120 LINE",
"188 1120 LINE",
"188 310 LINE SMOOTH",
"188 79 OFFCURVE",
"337 -20 OFFCURVE",
"542 -20 CURVE SMOOTH",
"783 -20 OFFCURVE",
"932 113 OFFCURVE",
"932 468 CURVE"
);
}
);
width = 1352;
},
{
hints = (
{
origin = "{0, 5}";
scale = "{-0.9, 1}";
type = Corner;
name = _corner.Serif;
},
{
origin = "{0, 1}";
scale = "{-0.9, 0.98}";
type = Corner;
name = _corner.Serif;
},
{
origin = "{1, 8}";
scale = "{-0.86, 0.98}";
type = Corner;
name = _corner.Serif;
}
);
layerId = "AF891779-7DE6-4679-9CA2-17B922C1DF84";
paths = (
{
closed = 1;
nodes = (
"1175 1160 LINE",
"897 1160 LINE",
"897 380 LINE",
"945 380 LINE",
"945 0 LINE",
"1175 0 LINE"
);
},
{
closed = 1;
nodes = (
"897 466 LINE",
"897 256 OFFCURVE",
"776 186 OFFCURVE",
"657 186 CURVE SMOOTH",
"560 186 OFFCURVE",
"501 234 OFFCURVE",
"501 328 CURVE SMOOTH",
"501 1160 LINE",
"223 1160 LINE",
"223 306 LINE SMOOTH",
"223 77 OFFCURVE",
"373 -20 OFFCURVE",
"579 -20 CURVE SMOOTH",
"864 -20 OFFCURVE",
"1001 150 OFFCURVE",
"1001 466 CURVE"
);
}
);
width = 1415;
}
);
leftKerningGroup = u;
rightKerningGroup = u;
rightMetricsKey = l;
unicode = 0075;
},
{
glyphname = v;
lastChange = "2020-08-19 12:48:24 +0000";
layers = (
{
hints = (
{
origin = "{0, 2}";
scale = "{0.6, 1}";
type = Corner;
name = _corner.Serif;
},
{
origin = "{0, 3}";
scale = "{-1.1, 1}";
type = Corner;
name = _corner.Serif;
options = 1;
},
{
origin = "{0, 6}";
scale = "{1.1, 1}";
type = Corner;
name = _corner.Serif;
},
{
origin = "{0, 7}";
scale = "{-0.6, 1}";
type = Corner;
name = _corner.Serif;
options = 1;
}
);
layerId = "CA54B7DC-FBBB-40FE-ACF3-AABDD76D6A7B";
paths = (
{
closed = 1;
nodes = (
"585 0 LINE",
"629 0 LINE",
"1044 1100 LINE",
"997 1100 LINE",
"601 45 LINE",
"617 45 LINE",
"221 1100 LINE",
"170 1100 LINE"
);
}
);
width = 1214;
},
{
hints = (
{
origin = "{0, 2}";
scale = "{0.6, 1}";
type = Corner;
name = _corner.Serif;
},
{
origin = "{0, 3}";
scale = "{-1.1, 1}";
type = Corner;
name = _corner.Serif;
options = 1;
},
{
origin = "{0, 6}";
scale = "{1.1, 1}";
type = Corner;
name = _corner.Serif;
},
{
origin = "{0, 7}";
scale = "{-0.6, 1}";
type = Corner;
name = _corner.Serif;
options = 1;
}
);
layerId = "1E61A082-F045-49A7-AB52-DD1B03FD9B54";
paths = (
{
closed = 1;
nodes = (
"575 0 LINE",
"617 0 LINE",
"1032 1080 LINE",
"987 1080 LINE",
"591 45 LINE",
"607 45 LINE",
"211 1080 LINE",
"160 1080 LINE"
);
}
);
width = 1192;
},
{
hints = (
{
origin = "{0, 2}";
scale = "{0.4, 0.98}";
type = Corner;
name = _corner.Serif;
},
{
origin = "{0, 3}";
scale = "{-1.3, 0.98}";
type = Corner;
name = _corner.Serif;
options = 1;
},
{
origin = "{0, 6}";
scale = "{1.3, 0.98}";
type = Corner;
name = _corner.Serif;
},
{
origin = "{0, 7}";
scale = "{-0.4, 0.98}";
type = Corner;
name = _corner.Serif;
options = 1;
}
);
layerId = "642E5713-E15A-4A7E-A28E-9A6B75A6585C";
paths = (
{
closed = 1;
nodes = (
"516 0 LINE",
"740 0 LINE",
"1170 1120 LINE",
"986 1120 LINE",
"632 193 LINE",
"731 192 LINE",
"390 1120 LINE",
"86 1120 LINE"
);
}
);
width = 1256;
},
{
hints = (
{
origin = "{0, 2}";
scale = "{0.4, 0.98}";
type = Corner;
name = _corner.Serif;
},
{
origin = "{0, 3}";
scale = "{-1.24, 0.98}";
type = Corner;
name = _corner.Serif;
options = 1;
},
{
origin = "{0, 6}";
scale = "{1.24, 0.98}";
type = Corner;
name = _corner.Serif;
},
{
origin = "{0, 7}";
scale = "{-0.4, 0.98}";
type = Corner;
name = _corner.Serif;
options = 1;
}
);
layerId = "AF891779-7DE6-4679-9CA2-17B922C1DF84";
paths = (
{
closed = 1;
nodes = (
"552 0 LINE",
"780 0 LINE",
"1214 1160 LINE",
"1011 1160 LINE",
"652 193 LINE",
"756 192 LINE",
"417 1160 LINE",
"118 1160 LINE"
);
}
);
width = 1332;
}
);
leftKerningGroup = v;
rightKerningGroup = v;
unicode = 0076;
},
{
glyphname = w;
lastChange = "2020-08-19 13:41:45 +0000";
layers = (
{
hints = (
{
origin = "{0, 2}";
scale = "{0.6, 1}";
type = Corner;
name = _corner.Serif;
},
{
origin = "{0, 3}";
scale = "{-1.1, 1}";
type = Corner;
name = _corner.Serif;
options = 1;
},
{
origin = "{0, 6}";
scale = "{1.1, 1}";
type = Corner;
name = _corner.Serif;
},
{
origin = "{0, 7}";
scale = "{-0.6, 1}";
type = Corner;
name = _corner.Serif;
options = 1;
},
{
origin = "{1, 6}";
scale = "{1.1, 1}";
type = Corner;
name = _corner.Serif;
},
{
origin = "{1, 7}";
scale = "{-0.6, 1}";
type = Corner;
name = _corner.Serif;
options = 1;
}
);
layerId = "CA54B7DC-FBBB-40FE-ACF3-AABDD76D6A7B";
paths = (
{
closed = 1;
nodes = (
"1062 0 LINE",
"1106 0 LINE",
"1438 1100 LINE",
"1392 1100 LINE",
"1077 49 LINE",
"1095 49 LINE",
"780 1100 LINE",
"730 1100 LINE"
);
},
{
closed = 1;
nodes = (
"502 0 LINE",
"546 0 LINE",
"819 904 LINE",
"791 962 LINE",
"517 49 LINE",
"535 49 LINE",
"220 1100 LINE",
"170 1100 LINE"
);
}
);
width = 1608;
},
{
hints = (
{
origin = "{0, 2}";
scale = "{0.6, 1}";
type = Corner;
name = _corner.Serif;
},
{
origin = "{0, 3}";
scale = "{-1.1, 1}";
type = Corner;
name = _corner.Serif;
options = 1;
},
{
origin = "{0, 6}";
scale = "{1.1, 1}";
type = Corner;
name = _corner.Serif;
},
{
origin = "{0, 7}";
scale = "{-0.6, 1}";
type = Corner;
name = _corner.Serif;
options = 1;
},
{
origin = "{1, 6}";
scale = "{1.1, 1}";
type = Corner;
name = _corner.Serif;
},
{
origin = "{1, 7}";
scale = "{-0.6, 1}";
type = Corner;
name = _corner.Serif;
options = 1;
}
);
layerId = "1E61A082-F045-49A7-AB52-DD1B03FD9B54";
paths = (
{
closed = 1;
nodes = (
"1052 0 LINE",
"1096 0 LINE",
"1428 1080 LINE",
"1384 1080 LINE",
"1069 49 LINE",
"1085 49 LINE",
"770 1080 LINE",
"720 1080 LINE"
);
},
{
closed = 1;
nodes = (
"492 0 LINE",
"536 0 LINE",
"811 895 LINE",
"788 961 LINE",
"509 49 LINE",
"525 49 LINE",
"210 1080 LINE",
"160 1080 LINE"
);
}
);
width = 1588;
},
{
hints = (
{
origin = "{0, 2}";
scale = "{0.4, 0.98}";
type = Corner;
name = _corner.Serif;
},
{
origin = "{0, 3}";
scale = "{-1.02, 0.98}";
type = Corner;
name = _corner.Serif;
options = 1;
},
{
origin = "{0, 6}";
scale = "{1.02, 0.98}";
type = Corner;
name = _corner.Serif;
},
{
origin = "{0, 7}";
scale = "{-0.4, 0.98}";
type = Corner;
name = _corner.Serif;
options = 1;
},
{
origin = "{1, 6}";
scale = "{0.9, 0.98}";
type = Corner;
name = _corner.Serif;
},
{
origin = "{1, 7}";
scale = "{-0.4, 0.98}";
type = Corner;
name = _corner.Serif;
options = 1;
}
);
layerId = "642E5713-E15A-4A7E-A28E-9A6B75A6585C";
paths = (
{
closed = 1;
nodes = (
"1089 0 LINE",
"1305 0 LINE",
"1676 1120 LINE",
"1499 1120 LINE",
"1197 193 LINE",
"1303 191 LINE",
"1007 1120 LINE",
"718 1120 LINE"
);
},
{
closed = 1;
nodes = (
"457 0 LINE",
"673 0 LINE",
"937 797 LINE",
"836 1024 LINE",
"565 193 LINE",
"672 191 LINE",
"375 1120 LINE",
"86 1120 LINE"
);
}
);
width = 1762;
},
{
hints = (
{
origin = "{0, 2}";
scale = "{0.4, 0.98}";
type = Corner;
name = _corner.Serif;
},
{
origin = "{0, 3}";
scale = "{-0.98, 0.98}";
type = Corner;
name = _corner.Serif;
options = 1;
},
{
origin = "{0, 6}";
scale = "{0.98, 0.98}";
type = Corner;
name = _corner.Serif;
},
{
origin = "{0, 7}";
scale = "{-0.2, 0.98}";
type = Corner;
name = _corner.Serif;
options = 1;
},
{
origin = "{1, 6}";
scale = "{0.88, 0.98}";
type = Corner;
name = _corner.Serif;
},
{
origin = "{1, 7}";
scale = "{-0.34, 0.98}";
type = Corner;
name = _corner.Serif;
options = 1;
}
);
layerId = "AF891779-7DE6-4679-9CA2-17B922C1DF84";
paths = (
{
closed = 1;
nodes = (
"1104 0 LINE",
"1314 0 LINE",
"1695 1160 LINE",
"1501 1160 LINE",
"1189 193 LINE",
"1292 191 LINE",
"997 1160 LINE",
"723 1160 LINE"
);
},
{
closed = 1;
nodes = (
"488 0 LINE",
"704 0 LINE",
"976 830 LINE",
"859 1050 LINE",
"583 193 LINE",
"686 191 LINE",
"391 1160 LINE",
"107 1160 LINE"
);
}
);
width = 1813;
}
);
leftKerningGroup = w;
leftMetricsKey = v;
rightKerningGroup = w;
rightMetricsKey = v;
unicode = 0077;
},
{
glyphname = x;
lastChange = "2020-08-19 13:15:31 +0000";
layers = (
{
hints = (
{
origin = "{0, 2}";
scale = "{0.54, 1}";
type = Corner;
name = _corner.Serif;
},
{
origin = "{0, 3}";
scale = "{-1.06, 1}";
type = Corner;
name = _corner.Serif;
options = 1;
},
{
origin = "{0, 6}";
scale = "{1.06, 1}";
type = Corner;
name = _corner.Serif;
},
{
origin = "{0, 7}";
scale = "{-0.54, 1}";
type = Corner;
name = _corner.Serif;
options = 1;
},
{
origin = "{1, 6}";
scale = "{1.1, 1}";
type = Corner;
name = _corner.Serif;
},
{
origin = "{1, 3}";
scale = "{-1.1, 1}";
type = Corner;
name = _corner.Serif;
options = 1;
},
{
origin = "{1, 2}";
scale = "{0.6, 1}";
type = Corner;
name = _corner.Serif;
},
{
origin = "{1, 7}";
scale = "{-0.6, 1}";
type = Corner;
name = _corner.Serif;
options = 1;
}
);
layerId = "CA54B7DC-FBBB-40FE-ACF3-AABDD76D6A7B";
paths = (
{
closed = 1;
nodes = (
"609 542 LINE",
"641 542 LINE",
"1056 1100 LINE",
"1001 1100 LINE",
"608 567 LINE",
"647 567 LINE",
"254 1100 LINE",
"194 1100 LINE"
);
},
{
closed = 1;
nodes = (
"646 578 LINE",
"610 578 LINE",
"180 0 LINE",
"235 0 LINE",
"643 553 LINE",
"608 553 LINE",
"1016 0 LINE",
"1076 0 LINE"
);
}
);
width = 1256;
},
{
hints = (
{
origin = "{0, 2}";
scale = "{0.54, 1}";
type = Corner;
name = _corner.Serif;
},
{
origin = "{0, 3}";
scale = "{-1.06, 1}";
type = Corner;
name = _corner.Serif;
options = 1;
},
{
origin = "{0, 6}";
scale = "{1.06, 1}";
type = Corner;
name = _corner.Serif;
},
{
origin = "{0, 7}";
scale = "{-0.54, 1}";
type = Corner;
name = _corner.Serif;
options = 1;
},
{
origin = "{1, 2}";
scale = "{0.6, 1}";
type = Corner;
name = _corner.Serif;
},
{
origin = "{1, 3}";
scale = "{-1.1, 1}";
type = Corner;
name = _corner.Serif;
options = 1;
},
{
origin = "{1, 6}";
scale = "{1.1, 1}";
type = Corner;
name = _corner.Serif;
},
{
origin = "{1, 7}";
scale = "{-0.6, 1}";
type = Corner;
name = _corner.Serif;
options = 1;
}
);
layerId = "1E61A082-F045-49A7-AB52-DD1B03FD9B54";
paths = (
{
closed = 1;
nodes = (
"609 532 LINE",
"640 532 LINE",
"1051 1080 LINE",
"998 1080 LINE",
"609 557 LINE",
"647 557 LINE",
"258 1080 LINE",
"198 1080 LINE"
);
},
{
closed = 1;
nodes = (
"646 568 LINE",
"611 568 LINE",
"186 0 LINE",
"239 0 LINE",
"642 543 LINE",
"608 543 LINE",
"1011 0 LINE",
"1071 0 LINE"
);
}
);
width = 1257;
},
{
hints = (
{
origin = "{0, 2}";
scale = "{0.02, 1}";
type = Corner;
name = _corner.Serif;
},
{
origin = "{0, 3}";
scale = "{-1.24, 1}";
type = Corner;
name = _corner.Serif;
options = 1;
},
{
origin = "{0, 6}";
scale = "{1.22, 1}";
type = Corner;
name = _corner.Serif;
},
{
origin = "{0, 7}";
scale = "{-0.02, 1}";
type = Corner;
name = _corner.Serif;
options = 1;
},
{
origin = "{1, 2}";
scale = "{0.06, 1}";
type = Corner;
name = _corner.Serif;
},
{
origin = "{1, 3}";
scale = "{-1.28, 1}";
type = Corner;
name = _corner.Serif;
options = 1;
},
{
origin = "{1, 6}";
scale = "{1.26, 1}";
type = Corner;
name = _corner.Serif;
},
{
origin = "{1, 7}";
scale = "{-0.06, 1}";
type = Corner;
name = _corner.Serif;
options = 1;
}
);
layerId = "642E5713-E15A-4A7E-A28E-9A6B75A6585C";
paths = (
{
closed = 1;
nodes = (
"483 512 LINE",
"715 512 LINE",
"1186 1120 LINE",
"974 1120 LINE",
"602 637 LINE",
"729 637 LINE",
"386 1120 LINE",
"44 1120 LINE"
);
},
{
closed = 1;
nodes = (
"757 624 LINE",
"527 624 LINE",
"44 0 LINE",
"255 0 LINE",
"640 499 LINE",
"511 499 LINE",
"866 0 LINE",
"1208 0 LINE"
);
}
);
width = 1252;
},
{
hints = (
{
origin = "{0, 2}";
scale = "{0.02, 0.98}";
type = Corner;
name = _corner.Serif;
},
{
origin = "{0, 3}";
scale = "{-1.38, 0.98}";
type = Corner;
name = _corner.Serif;
options = 1;
},
{
origin = "{0, 6}";
scale = "{1.34, 0.98}";
type = Corner;
name = _corner.Serif;
},
{
origin = "{0, 7}";
scale = "{-0.02, 0.98}";
type = Corner;
name = _corner.Serif;
options = 1;
},
{
origin = "{1, 2}";
scale = "{0.04, 1}";
type = Corner;
name = _corner.Serif;
},
{
origin = "{1, 3}";
scale = "{-1.42, 1}";
type = Corner;
name = _corner.Serif;
options = 1;
},
{
origin = "{1, 6}";
scale = "{1.38, 1}";
type = Corner;
name = _corner.Serif;
},
{
origin = "{1, 7}";
scale = "{-0.04, 1}";
type = Corner;
name = _corner.Serif;
options = 1;
}
);
layerId = "AF891779-7DE6-4679-9CA2-17B922C1DF84";
paths = (
{
closed = 1;
nodes = (
"527 532 LINE",
"760 532 LINE",
"1223 1160 LINE",
"997 1160 LINE",
"629 657 LINE",
"750 657 LINE",
"396 1160 LINE",
"72 1160 LINE"
);
},
{
closed = 1;
nodes = (
"785 644 LINE",
"548 644 LINE",
"73 0 LINE",
"299 0 LINE",
"679 519 LINE",
"562 519 LINE",
"927 0 LINE",
"1251 0 LINE"
);
}
);
width = 1324;
}
);
leftKerningGroup = x;
rightKerningGroup = x;
unicode = 0078;
},
